<svg xmlns="http://www.w3.org/2000/svg" xmlns:xlink="http://www.w3.org/1999/xlink" viewBox="0 0 1296 1296"><defs><style>.cls-1{isolation:isolate;}.cls-10,.cls-11,.cls-16,.cls-2,.cls-24,.cls-25,.cls-26,.cls-27,.cls-37,.cls-9{mix-blend-mode:multiply;}.cls-3{fill:url(#linear-gradient);}.cls-4{fill:url(#linear-gradient-2);}.cls-5{fill:url(#linear-gradient-3);}.cls-6{fill:url(#linear-gradient-4);}.cls-7{fill:url(#linear-gradient-5);}.cls-8,.cls-9{fill:#5eae45;}.cls-10{fill:url(#linear-gradient-6);}.cls-11{fill:url(#linear-gradient-7);}.cls-12{fill:url(#linear-gradient-8);}.cls-13{fill:url(#linear-gradient-9);}.cls-14{fill:url(#linear-gradient-10);}.cls-15{fill:url(#linear-gradient-11);}.cls-16{fill:#8ac3e0;}.cls-17{fill:url(#linear-gradient-12);}.cls-18{fill:url(#linear-gradient-13);}.cls-19{fill:url(#linear-gradient-14);}.cls-20{fill:url(#linear-gradient-15);}.cls-21{fill:url(#linear-gradient-16);}.cls-22{fill:url(#linear-gradient-17);}.cls-23{fill:url(#linear-gradient-18);}.cls-24{fill:url(#radial-gradient);}.cls-25{fill:url(#radial-gradient-2);}.cls-26{fill:url(#linear-gradient-19);}.cls-27{fill:url(#linear-gradient-20);}.cls-28{fill:url(#linear-gradient-21);}.cls-29{fill:url(#linear-gradient-22);}.cls-30{fill:url(#linear-gradient-23);}.cls-31{fill:url(#linear-gradient-24);}.cls-32,.cls-37{fill:#675db6;}.cls-33{fill:url(#linear-gradient-25);}.cls-34{fill:url(#linear-gradient-26);}.cls-35{fill:url(#linear-gradient-27);}.cls-36{fill:url(#linear-gradient-28);}</style><linearGradient id="linear-gradient" x1="-2278.19" y1="505.15" x2="-2559.28" y2="258.48" gradientTransform="translate(2836.72 398.2) rotate(3.74)" gradientUnits="userSpaceOnUse"><stop offset="0" stop-color="#fff"/><stop offset="0.15" stop-color="#fafeff"/><stop offset="0.32" stop-color="#ecfaff"/><stop offset="0.5" stop-color="#d5f3ff"/><stop offset="0.69" stop-color="#b4eaff"/><stop offset="0.89" stop-color="#8adeff"/><stop offset="1" stop-color="#70d7ff"/></linearGradient><linearGradient id="linear-gradient-2" x1="-1969.87" y1="93.91" x2="-2404.99" y2="-287.93" xlink:href="#linear-gradient"/><linearGradient id="linear-gradient-3" x1="1292.65" y1="-1736.69" x2="391.47" y2="-356.38" gradientTransform="translate(1649.12 -636.51) rotate(-176.26)" gradientUnits="userSpaceOnUse"><stop offset="0" stop-color="#f2ffff"/><stop offset="0.46" stop-color="#0aa9cc"/><stop offset="1" stop-color="#00439f"/></linearGradient><linearGradient id="linear-gradient-4" x1="1413.21" y1="-1528" x2="633.52" y2="-333.75" xlink:href="#linear-gradient-3"/><linearGradient id="linear-gradient-5" x1="1080.21" y1="-1828.83" x2="325.15" y2="-672.32" xlink:href="#linear-gradient-3"/><linearGradient id="linear-gradient-6" x1="578.26" y1="47.27" x2="-402.22" y2="1002.52" gradientTransform="translate(174.43 -31.75) rotate(3.74)" xlink:href="#linear-gradient"/><linearGradient id="linear-gradient-7" x1="585.67" y1="18.17" x2="-419.06" y2="997.05" gradientTransform="translate(174.43 -31.75) rotate(3.74)" xlink:href="#linear-gradient"/><linearGradient id="linear-gradient-8" x1="801.73" y1="45.51" x2="86.2" y2="742.64" gradientTransform="translate(174.43 -31.75) rotate(3.74)" xlink:href="#linear-gradient"/><linearGradient id="linear-gradient-9" x1="1082.01" y1="-226.92" x2="384.53" y2="452.61" gradientTransform="translate(174.43 -31.75) rotate(3.74)" xlink:href="#linear-gradient"/><linearGradient id="linear-gradient-10" x1="679.35" y1="468.49" x2="126.57" y2="1315.18" gradientTransform="translate(174.43 -31.75) rotate(3.74)" gradientUnits="userSpaceOnUse"><stop offset="0.3" stop-color="#0aa9cc"/><stop offset="1" stop-color="#00439f"/></linearGradient><linearGradient id="linear-gradient-11" x1="642.08" y1="146.58" x2="-374.98" y2="1704.4" xlink:href="#linear-gradient-10"/><linearGradient id="linear-gradient-12" x1="-2105.37" y1="-1925.55" x2="-2485.61" y2="-2259.23" gradientTransform="translate(-1660.23 -1516.94) rotate(-176.26)" xlink:href="#linear-gradient"/><linearGradient id="linear-gradient-13" x1="1206.17" y1="919.01" x2="812.17" y2="1522.48" gradientTransform="translate(-472.62 -482.23) rotate(3.74)" xlink:href="#linear-gradient-3"/><linearGradient id="linear-gradient-14" x1="1580.67" y1="836.16" x2="969.55" y2="1772.2" gradientTransform="translate(-472.62 -482.23) rotate(3.74)" xlink:href="#linear-gradient-3"/><linearGradient id="linear-gradient-15" x1="1021.05" y1="725.94" x2="397.49" y2="1681.04" gradientTransform="translate(-472.62 -482.23) rotate(3.74)" xlink:href="#linear-gradient-3"/><linearGradient id="linear-gradient-16" x1="1304.52" y1="858.2" x2="842.44" y2="1565.96" gradientTransform="translate(-472.62 -482.23) rotate(3.74)" xlink:href="#linear-gradient-3"/><linearGradient id="linear-gradient-17" x1="1699.28" y1="794.72" x2="1051.06" y2="1787.59" gradientTransform="translate(-472.62 -482.23) rotate(3.74)" xlink:href="#linear-gradient-3"/><linearGradient id="linear-gradient-18" x1="1103.77" y1="625.39" x2="403.44" y2="1698.07" gradientTransform="translate(-472.62 -482.23) rotate(3.74)" xlink:href="#linear-gradient-3"/><radialGradient id="radial-gradient" cx="1192.64" cy="678.79" r="783.05" gradientTransform="matrix(1.27, 0.08, -0.08, 1.24, -894.11, -673.05)" gradientUnits="userSpaceOnUse"><stop offset="0" stop-color="#626466"/><stop offset="0.15" stop-color="#8a8c8d"/><stop offset="0.34" stop-color="#b4b5b6"/><stop offset="0.52" stop-color="#d5d5d6"/><stop offset="0.7" stop-color="#ececec"/><stop offset="0.86" stop-color="#fafafa"/><stop offset="1" stop-color="#fff"/></radialGradient><radialGradient id="radial-gradient-2" cx="1190.88" cy="817.2" r="561.41" xlink:href="#radial-gradient"/><linearGradient id="linear-gradient-19" x1="716.54" y1="-2449.34" x2="-254.24" y2="-1503.54" gradientTransform="translate(1002.07 -1086.99) rotate(-176.26)" xlink:href="#linear-gradient"/><linearGradient id="linear-gradient-20" x1="540.29" y1="-2413.55" x2="-522.17" y2="-1378.42" gradientTransform="translate(1002.07 -1086.99) rotate(-176.26)" xlink:href="#linear-gradient"/><linearGradient id="linear-gradient-21" x1="505.01" y1="-2088.49" x2="201.55" y2="-1792.83" gradientTransform="translate(1002.07 -1086.99) rotate(-176.26)" xlink:href="#linear-gradient"/><linearGradient id="linear-gradient-22" x1="626.76" y1="-2234.4" x2="-189.14" y2="-984.71" gradientTransform="translate(1002.07 -1086.99) rotate(-176.26)" xlink:href="#linear-gradient-10"/><linearGradient id="linear-gradient-23" x1="982.65" y1="-2187.12" x2="-7.61" y2="-670.36" gradientTransform="translate(1002.07 -1086.99) rotate(-176.26)" xlink:href="#linear-gradient-10"/><linearGradient id="linear-gradient-24" x1="297.68" y1="-2358.84" x2="-968" y2="-420.21" gradientTransform="translate(1002.07 -1086.99) rotate(-176.26)" xlink:href="#linear-gradient-10"/><linearGradient id="linear-gradient-25" x1="271.43" y1="-2183.05" x2="-302.03" y2="-1304.69" gradientTransform="translate(1002.07 -1086.99) rotate(-176.26)" xlink:href="#linear-gradient-10"/><linearGradient id="linear-gradient-26" x1="207.98" y1="-2267.02" x2="-1243.67" y2="-43.54" gradientTransform="translate(1002.07 -1086.99) rotate(-176.26)" xlink:href="#linear-gradient-10"/><linearGradient id="linear-gradient-27" x1="282.9" y1="-2243.5" x2="-225.15" y2="-1465.32" gradientTransform="translate(1002.07 -1086.99) rotate(-176.26)" xlink:href="#linear-gradient-10"/><linearGradient id="linear-gradient-28" x1="313.73" y1="-2398.08" x2="-764.47" y2="-746.6" gradientTransform="translate(1002.07 -1086.99) rotate(-176.26)" xlink:href="#linear-gradient-10"/></defs><title>trt11</title><g class="cls-1"><g id="Layer_1" data-name="Layer 1"><g class="cls-2"><path class="cls-3" d="M377.07,359.55a396.17,396.17,0,0,0-36.67,36.51q2,5.15,4.06,10.25-12.13,14.42-22.89,29.81,4.76,9.78,9.53,19.41A421.59,421.59,0,0,0,302,509.35q-10.94,6.07-21.88,12.46Q274.6,535.46,270,549.43c4.47,5.76,8.91,11.47,13.39,17.09a449.31,449.31,0,0,0-11.58,49.57q8.43,9,16.85,17.75-2.83,20.76-3.81,41.7c4.89,4.43,9.77,8.83,14.67,13.15a462.38,462.38,0,0,0,6,81.65l.89-.18a462.84,462.84,0,0,1-5.93-81.94q-7.32-6.48-14.64-13.14c.66-13.93,1.93-27.84,3.85-41.65q-8.42-8.71-16.79-17.74a454.62,454.62,0,0,1,11.62-49.5q-6.71-8.45-13.34-17.08c3-9.06,6.29-18,9.86-26.87q10.92-6.37,21.83-12.45a424.9,424.9,0,0,1,29.46-54.43c-3.19-6.4-6.31-12.88-9.47-19.39q10.76-15.36,22.9-29.75-2-5.1-4-10.23a402,402,0,0,1,36.39-36.16Z"/></g><g class="cls-2"><path class="cls-4" d="M701.7,201.89a4.81,4.81,0,0,1,3.93-.82c1.24.35,1.5,1.29.57,2.08a4.69,4.69,0,0,1-3.91.83C701,203.64,700.78,202.7,701.7,201.89Z"/></g><g class="cls-2"><path class="cls-5" d="M417.62,664.2a463.31,463.31,0,0,1-10.53-87.78q-10.84-9.13-21.71-18.63A455.59,455.59,0,0,1,393.22,482q11.32-9.34,22.74-18.26c20.48-86.23,69.18-167.84,141.32-223.19-.6-.18-1.21-.35-1.8-.54-72,55.37-120.69,136.85-141.3,223q-11.46,8.93-22.85,18.27a465.25,465.25,0,0,0-8,77.63q10.92,9.49,21.84,18.64a465.54,465.54,0,0,0,10.39,86.4Q404.13,681.6,393,700.09a492.71,492.71,0,0,0,32.05,83.44q21.22,7.92,42.2,15A450.46,450.46,0,0,0,572,922.21q-1,18-1.48,36.35c.78,0,1.57,0,2.35,0,.32-12.44.75-24.73,1.37-36.89A448.94,448.94,0,0,1,468.64,797.1q-20.88-7.08-42-15a488,488,0,0,1-31.4-81.72Q406.27,681.87,417.62,664.2Z"/><path class="cls-6" d="M559.59,241.34c1.63-1.25,1.47-2.68-.39-3.26a8.05,8.05,0,0,0-6.36,1.26c-1.63,1.27-1.44,2.74.45,3.3A8,8,0,0,0,559.59,241.34Z"/><path class="cls-7" d="M576.14,958.39c0,1.7-2,3.11-4.5,3.12s-4.41-1.38-4.36-3.11,2.09-3.1,4.53-3.1S576.17,956.68,576.14,958.39Z"/></g><g class="cls-2"><path class="cls-8" d="M513.23,983.43q-10.58-6.07-20.73-12.84-24.57-.6-49.68-2.4A425.59,425.59,0,0,1,341.5,850.41q5.4-17.05,11.24-33.6A419.51,419.51,0,0,1,323.59,742q-16.14-9.79-32.28-20.32a439,439,0,0,1-9.71-82.83q9.51-11.31,19.16-22.23a408.41,408.41,0,0,1,8.32-71q-6.37-8.16-12.65-16.56C316.88,447.13,364.55,370,434.1,318l-1.62-.48c-69.87,52.26-117.66,129.87-138,212.27q6.33,8.38,12.75,16.58A407.87,407.87,0,0,0,299.08,616Q289.36,627,279.81,638.3a437.08,437.08,0,0,0,9.92,84.5q16.22,10.51,32.44,20.31a421.88,421.88,0,0,0,28.66,73.62q-5.9,16.59-11.37,33.7a426.24,426.24,0,0,0,102.48,119.2q25.17,1.79,49.84,2.31,9.87,6.51,20.14,12.47C512.36,984.07,512.79,983.76,513.23,983.43Z"/><path class="cls-8" d="M436.17,318.78c1.59-1.18,1.52-2.53-.15-3a7.53,7.53,0,0,0-5.93,1.23c-1.59,1.17-1.48,2.56.2,3A7.58,7.58,0,0,0,436.17,318.78Z"/><path class="cls-8" d="M514.89,982c1.61.94,1.85,2.48.5,3.49a5.34,5.34,0,0,1-5.43.13c-1.63-.94-1.84-2.53-.47-3.53A5.38,5.38,0,0,1,514.89,982Z"/></g><path class="cls-9" d="M639.61,927.85c-1.4-.78-1.74-2-1-3.08-4.48-2.54-8.94-5.15-13.31-7.88q-19.06.32-38.49-.09c-68.16-48.57-120.78-117.48-152-194-3.35-1.55-6.69-3.14-10.06-4.71a3.62,3.62,0,0,1-4.24.8,3.5,3.5,0,0,1-1.78-4.69,3.59,3.59,0,0,1,4.82-1.51,3.51,3.51,0,0,1,2,3.76q5.38,2.55,10.74,5c31,76.42,83.45,145.24,151.39,193.82q17.84.39,35.39.2C557,874,503.92,813.24,469.75,744.25q4-10.61,8.21-21a431.11,431.11,0,0,1-23.23-65.47q-11.61-7.14-23.25-14.64a439.19,439.19,0,0,1-10-83.54q13.1-15.54,26.44-30.33c.19-4.31.44-8.61.78-12.92q-19.5-20.5-38.6-42.61a420.43,420.43,0,0,1,21.43-76.84,2.36,2.36,0,0,1-1.33-3.29,5.11,5.11,0,0,1,4.77-3,2.36,2.36,0,0,1,2.14,3.46,5.13,5.13,0,0,1-3.75,3,417.59,417.59,0,0,0-21.27,75.93q18.22,21.18,36.81,40.94a402.39,402.39,0,0,1,10-61.84q-9.51-12.9-18.8-26.32c15.3-49.44,40.34-96.38,74.39-136.32q21.27-7.83,42.46-14.53c.29-1.06,1.59-2.17,3.33-2.73,2.11-.62,3.93-.2,4.13,1s-1.35,2.68-3.42,3.35c-1.72.56-3.24.32-3.85-.45q-20.67,6.62-41.46,14.29a383.68,383.68,0,0,0-67.63,117q14.11-9.6,28.27-18.68a374,374,0,0,1,32.44-59.55q31.71-15,63.43-27.24a339.29,339.29,0,0,1,29.79-29.81c2.67-.76,5.32-1.54,8-2.29a5.18,5.18,0,0,1,3.38-2.41c2-.53,3.62-.1,3.65,1s-1.54,2.42-3.53,3c-1.63.48-3,.22-3.45-.49-2.38.68-4.76,1.39-7.15,2.08a335.07,335.07,0,0,0-29.68,29.79Q541.52,315,509.92,330a375.34,375.34,0,0,0-32.29,59.48q-15.3,9.8-30.51,20.3-2.7,7.59-5.08,15.26,5.19,7.58,10.49,15,12.29-9.67,24.7-18.84a378.23,378.23,0,0,1,24.47-57c-1.1-.46-1.43-1.69-.71-3a5.13,5.13,0,0,1,4.6-2.57c1.66.19,2.28,1.63,1.41,3.23a5.2,5.2,0,0,1-3.69,2.54,374.84,374.84,0,0,0-24.69,57.62q-12.69,9.38-25.23,19.31c2.43,3.39,4.84,6.76,7.28,10.08a404.51,404.51,0,0,0-11.17,78.52q-13.26,14.76-26.28,30.29a438.13,438.13,0,0,0,3.67,46.61q19.2-27.15,39.33-52.28a396.88,396.88,0,0,1,5-71.62q9.24-8.81,18.65-17.25a3.66,3.66,0,0,1,1.23-3.71c1.38-1.24,3.21-1.27,4.05-.08s.41,3.13-.95,4.37a2.88,2.88,0,0,1-3.5.56q-9.06,8.21-18,16.74a397.24,397.24,0,0,0-4.91,71.49Q447,581,427.24,609.25q2.26,16.47,5.81,32.74,11.55,7.51,23.14,14.63a430.25,430.25,0,0,0,23.67,66.72q-4.12,10.39-8.12,21C500,801,540.81,852,591.35,891.31c0-7.75.15-15.46.33-23.11a411.42,411.42,0,0,1-67.26-73.31,4.11,4.11,0,0,1-4-1.65,2.61,2.61,0,0,1,1-4,4,4,0,0,1,4.76,1.43,2.62,2.62,0,0,1-.24,3.57,410.57,410.57,0,0,0,67.73,73.62q-.3,12.47-.26,25.09A404.7,404.7,0,0,0,640,923.74a5.74,5.74,0,0,1,4.81.2c1.68.9,1.89,2.53.46,3.62A5.66,5.66,0,0,1,639.61,927.85Z"/><path class="cls-9" d="M355.2,269.66q-8.29,7.56-16.08,15.61,5,16.35,10.3,32.32c-34.83,41.8-60.26,90.75-75.72,142.2Q255,473.23,236.36,487.67q-2.91,13.21-5.06,26.58Q253.82,538,276.39,560a444.21,444.21,0,0,0,2.35,76.22,3.2,3.2,0,0,1,2.88,2.84,3.73,3.73,0,0,1-2.95,4.07,3.24,3.24,0,0,1-3.85-2.81,3.69,3.69,0,0,1,2.11-3.77,441.28,441.28,0,0,1-2.41-75.62q-21.9-21.1-43.64-43.95a467.7,467.7,0,0,0-5.18,56.27q15,13.2,30,25.68a463.28,463.28,0,0,0,10.64,86.74q-8.1,12.6-16,25.59a489.08,489.08,0,0,0,25.06,71.27q12.71,5.26,25.32,10.19c38.17,77.75,98.88,145.85,174.79,190a6,6,0,0,1,5.1.15c1.74,1,1.89,2.76.31,4a6,6,0,0,1-6,.38c-1.45-.84-1.75-2.21-.91-3.34-75.8-44.16-136.5-112.16-174.72-189.78q-12.67-4.94-25.43-10.17A490.5,490.5,0,0,1,248.16,711q8-13,16.17-25.64A464.22,464.22,0,0,1,253.84,600q-15.08-12.51-30.22-25.7a469,469,0,0,1,10.85-87.36Q253.19,472.44,272,459c15.37-51.05,40.62-99.6,75.06-141.17q-5.43-16-10.5-32.44,8.07-8.37,16.69-16.25c-1.26-.69-1.32-2,0-3.18a7.85,7.85,0,0,1,6.52-1.52c2,.56,2.38,2.12.83,3.51A7.84,7.84,0,0,1,355.2,269.66Z"/><path class="cls-10" d="M388.79,356.66c1.88-1.5,4.92-2.28,6.75-1.78s1.76,2.11-.09,3.6-4.85,2.32-6.68,1.83S386.9,358.17,388.79,356.66Z"/><path class="cls-11" d="M389.53,335.15c2.07-1.41,5.3-2.06,7.22-1.46s1.75,2.18-.28,3.58-5.22,2.08-7.13,1.51S387.49,336.56,389.53,335.15Z"/><g class="cls-2"><path class="cls-12" d="M379.63,334.56C330,372.21,290.26,421.28,262.17,475.44q10,15.54,20,30.54c-23.53,52.56-36.65,109.53-39.67,166.83q13.56,11.84,27.06,23.13a493,493,0,0,0,33.1,178.54l2-.64a491.59,491.59,0,0,1-33-179c-8.92-7.53-17.91-15.22-26.88-23.09,3.14-57.17,16.34-114,40-166.38-6.6-10-13.18-20.14-19.79-30.45,27.91-53.45,67.23-101.9,116.2-139.17q37.41-5.91,73.82-9.49a369.55,369.55,0,0,1,69.24-31.37l-1.82-.8a370.54,370.54,0,0,0-68.61,31Q417.23,328.73,379.63,334.56Z"/></g><g class="cls-2"><path class="cls-13" d="M901.88,120.72a14,14,0,0,1,8.78.29c2.25,1,2,2.46-.56,3.31a14,14,0,0,1-8.69-.22C899.12,123.12,899.33,121.57,901.88,120.72Z"/></g><g class="cls-2"><path class="cls-8" d="M724.37,901.87a315.64,315.64,0,0,1-80.69-.88c-8.19,2.08-16.44,4.08-24.78,5.93a333.87,333.87,0,0,1-57.14-16.56c-15.94,1.51-32.11,2.53-48.47,3.16a365.94,365.94,0,0,1-82.69-57.65c.14-9,.4-18,.83-27a370.14,370.14,0,0,1-29.84-35.35q-18.81-6.07-37.71-13.07a392.5,392.5,0,0,1-36.67-75.14q-18.7-10.64-37.32-22.31A409.67,409.67,0,0,1,277,591.58q-13-10.85-25.9-22.33a407.1,407.1,0,0,1,22.47-146.5l-1.53-.07a408.12,408.12,0,0,0-22.46,147.46q13,11.46,26,22.34A411.41,411.41,0,0,0,288.65,664q18.69,11.65,37.47,22.3A393.85,393.85,0,0,0,363,761.52q18.94,7,37.84,13A369.78,369.78,0,0,0,429.88,809c-.45,9-.72,18-.89,27.08a366.32,366.32,0,0,0,83.84,58.49q24.6-.95,48.59-3.25a336.21,336.21,0,0,0,57.26,16.51c8.36-1.89,16.64-3.86,24.83-6a316.85,316.85,0,0,0,80.2.83Z"/></g><g class="cls-2"><path class="cls-8" d="M302.9,526.87a417.75,417.75,0,0,0,15.25,122.19q17.24,10.53,34.49,20.21a402.25,402.25,0,0,0,45.53,90.07q-3.3,14.79-6.18,29.94C467,887.35,595.43,952.49,723.43,939c.46-.59.92-1.16,1.39-1.74-127.26,13.49-255-50.92-329.93-148.19q2.82-15.06,6-29.81a400.92,400.92,0,0,1-46.37-91.69q-17.15-9.69-34.25-20.22a416.16,416.16,0,0,1-14.92-119.68Q324.6,505.45,344.61,485a369.36,369.36,0,0,1,32.2-110.12q-8.7-18.94-16.59-38.64c39.16-64.93,100.84-119.07,175.2-146.67q37.07-1.12,72.76.74l.7-1q-36.43-2.07-74.41-1C459.08,216,396.59,271,357.2,336.85q8,19.77,16.9,38.78a369.21,369.21,0,0,0-31.63,108.44Q322.34,504.61,302.9,526.87Z"/><path class="cls-8" d="M721.23,941.44c2.95-.33,6.51-2.07,7.94-3.88s.2-3-2.72-2.63-6.45,2-7.9,3.75S718.27,941.75,721.23,941.44Z"/><path class="cls-8" d="M609.55,187.91c3.31.22,5.36,1.2,4.63,2.2s-4,1.66-7.26,1.54-5.36-1.11-4.67-2.18S606.23,187.71,609.55,187.91Z"/></g><g class="cls-2"><path class="cls-8" d="M518.18,171.11a370,370,0,0,0-44,7.54q-5.29,17-9,34.89c-78.38,30.38-142.71,89-183.09,158.59q-32.15,16.1-64.31,34.79A449.7,449.7,0,0,0,184.38,536.4q21.3,20.75,42.63,40a454.71,454.71,0,0,0,16.36,127.32q-11,19.1-21.63,39a481.1,481.1,0,0,0,51.69,105q20.71,5.81,41.19,10.79c79.16,105.17,214.16,177,350.35,164.9.56-.68,1.09-1.36,1.64-2-136.19,12.22-271.22-59.73-350.14-165.06q-20.34-5-40.94-10.86A480.4,480.4,0,0,1,225,743q10.49-19.86,21.38-38.88A451.84,451.84,0,0,1,229.84,575q-21.14-19.23-42.22-40A446.57,446.57,0,0,1,220.38,408.3q31.94-18.66,63.88-34.8c40.51-70.13,105.37-129.18,184.44-159.43,2.6-11.76,5.71-23.3,9.39-34.51a369.68,369.68,0,0,1,42.51-7.18C519.8,172,519,171.53,518.18,171.11Z"/><path class="cls-8" d="M662.42,1026.28a14.19,14.19,0,0,0,8.76-4.38c1.68-2.1.49-3.53-2.62-3.24s-7,2.16-8.72,4.24S659.28,1026.57,662.42,1026.28Z"/><path class="cls-8" d="M514.48,169.37a22.23,22.23,0,0,1,10.86,1.78c2.5,1.32,1.71,2.63-1.72,3s-8.22-.33-10.76-1.63S511,169.77,514.48,169.37Z"/></g><g class="cls-2"><path class="cls-14" d="M376.78,728.19c7.05,2.59,14.08,5.12,21.09,7.54C460.57,841.19,574,922.36,700,934.33q29.26-10,57-21.5c-.33-.39-.65-.77-1-1.18q-27,11.07-55.53,20.72C575,920.15,462.05,839,399.76,733.72q-11-3.87-22.1-8C377.35,726.55,377.07,727.37,376.78,728.19Z"/><path class="cls-15" d="M375.84,731.7c-2.91-1.06-4.52-4-3.58-6.59a5.19,5.19,0,0,1,6.87-2.67c2.85,1.07,4.46,4,3.57,6.54S378.75,732.75,375.84,731.7Z"/></g><path class="cls-16" d="M571.22,159a26.3,26.3,0,0,1-8.63-1.43q-13.4.4-26.63,1.82a203.33,203.33,0,0,0-11.78,19.57c-126,27-225.39,128.25-263.43,243.11,2.4,3.6,4.8,7.19,7.22,10.74,2.15-1,4.39-.75,5.47.82,1.28,1.92.39,5-2,6.83s-5.43,1.85-6.79-.06c-1.12-1.6-.62-4,1-5.8q-3.93-5.73-7.83-11.54c37.73-115.31,137-217.25,263.12-244.82a199.43,199.43,0,0,1,10.64-18.35C402.9,175.21,293.91,265.48,243.62,375.07q-19.2,11.18-38.37,23.33a446.85,446.85,0,0,0-25.54,110.81q15,14.73,30.08,28.69a456.12,456.12,0,0,0,14.1,129.4q-15.73,26.36-30.82,54.33,3.65,10.26,7.76,20.35,50.82,21.94,100.41,38.74A427.45,427.45,0,0,0,376,872.06a7.43,7.43,0,0,1,6.78,1.49c2.13,1.9,2,4.58-.34,6a7.29,7.29,0,0,1-8.17-.88c-1.78-1.61-1.9-3.76-.55-5.26a429.62,429.62,0,0,1-74.35-90.68q-47.9-16-97-36.88a491.36,491.36,0,0,0,50.76,92.45q34,8.37,67.25,14.74c52.87,61,124,108.26,203.53,129.57q6.15,19.44,13.18,38.91c3-.53,5.59.07,6.21,1.65.72,1.92-1.75,4.55-5.54,5.83s-7.47.72-8.16-1.27c-.52-1.68,1.15-3.68,3.87-5-4.5-12.85-8.77-25.69-12.72-38.52-69.36-18.88-132.39-57.44-182.18-107.5q-2.69,20.51-4.84,41.6a435.82,435.82,0,0,0,93.94,62.92c2.67,26.39,6.09,53.34,10.07,80.91a413.83,413.83,0,0,0,78,16.61c.88,2.94,1.76,5.88,2.68,8.82,3.36-.86,6.2-.41,6.8,1.39.7,2.19-2.16,5.51-6.45,7.33s-8.32,1.49-9-.79c-.53-1.89,1.46-4.41,4.55-6.23-.82-2.67-1.56-5.37-2.37-8a417.37,417.37,0,0,1-78.16-17c-3.82-27.83-7.1-55-9.64-81.64a438.34,438.34,0,0,1-94-63.46q2.47-23,5.55-45.28c-5.89-6-11.58-12.22-17.09-18.56q-18.79-3.54-37.84-7.71c-3.47,13.88-6.76,28-10,42.36a472.2,472.2,0,0,0,79.94,72.33,9,9,0,0,1,8.14.61c2.6,1.8,2.53,4.79-.2,6.74a9.06,9.06,0,0,1-9.77.28,3.73,3.73,0,0,1-.84-5.78,470.3,470.3,0,0,1-81-73.59q5-22.2,10.5-43.65c-8.84-2-17.71-4.05-26.63-6.19a495.55,495.55,0,0,1-61.41-119.25q15.27-28.08,31.18-54.52a461.55,461.55,0,0,1-12.31-71.8q-33.47,42.87-65.34,91.13a524.75,524.75,0,0,0,46.6,119.62q-8.4,19.84-16.58,40.45c2.53,1.38,3.81,4,2.83,6.49-1.2,3.07-5.18,4.86-8.93,4s-5.76-4.19-4.51-7.32c1.06-2.57,4-4.1,7.07-4Q177.76,825.29,186,806a528.44,528.44,0,0,1-46.44-120.16q33.54-50.24,68.6-94.7a451,451,0,0,1-1.26-51.73q-15.19-14-30.38-28.73a447.67,447.67,0,0,1,26.09-113.54q19.31-12.16,38.63-23.33C283,283.22,362.61,205.65,462.45,173.37q-30-.56-61,.57C348.73,197.43,302.8,233.27,267,276.09c2,1,2.31,3,.68,5a10.33,10.33,0,0,1-9.13,3.25c-3.15-.62-4.16-3.13-2.18-5.55a10.21,10.21,0,0,1,7.63-3.32c36.16-43.31,82.64-79.51,136-103.11q33.87-1.17,66.66-.29A357.06,357.06,0,0,1,560.5,156.4c-1-.93.15-1.7,3-1.74a23.15,23.15,0,0,1,10,2.14C575.55,158,574.55,158.94,571.22,159Z"/><path class="cls-9" d="M744.09,932.79c-10-.1-20-.67-29.89-1.63q-35.64,11-73.41,19.37c-75.7-19-143.84-62.82-194.44-120q3.31-23.92,7.65-47.08-10.51-14.38-19.71-29.62-45.46-17.22-91.4-39.65a447.12,447.12,0,0,1-27.75-110.32,4.73,4.73,0,0,1-4.25-4.27,5.57,5.57,0,0,1,4.5-6,4.68,4.68,0,0,1,5.49,4.25,5.56,5.56,0,0,1-3.09,5.56A444.89,444.89,0,0,0,345,712.29q43.89,21.53,87.39,38.43a401.12,401.12,0,0,1-31.55-67q-23.67-13.22-47.27-28a420.9,420.9,0,0,1-12.86-122.39q14.43-15.94,29.18-31a380.73,380.73,0,0,1,25-97.57q-6.51-12.06-12.78-24.49c52.73-110.1,171.1-197,303.51-200-.75-.78.39-1.39,3-1.43,3.15,0,7.18.85,9,1.86s.7,1.77-2.42,1.8a25.35,25.35,0,0,1-7.8-1.25c-131.66,2.87-249.53,88.94-302.33,198.23q6.13,12.38,12.58,24.41a379.84,379.84,0,0,0-25.55,99.33q-14.64,15-28.94,30.93A420.36,420.36,0,0,0,355.78,654q23.45,14.82,47,28.07a398.31,398.31,0,0,0,54,101.25q-4.2,23.05-7.41,46.86c50.16,56.31,117.42,99.45,192.12,118.41q37.61-8.22,73.12-19.07c10.24,1.05,20.57,1.62,30.92,1.71a12.79,12.79,0,0,1,6.71-2.12c2.77,0,3.9,1.22,2.52,2.84s-4.83,3-7.64,3C744.72,935,743.62,934.05,744.09,932.79Z"/><g class="cls-2"><path class="cls-17" d="M735.42,864a295.76,295.76,0,0,1-38.48-.24c-3.75,1.06-7.53,2.06-11.32,3.06q-14.16-1.39-28.08-4.12c-7.28,1.37-14.62,2.66-22,3.82a313.18,313.18,0,0,1-45.15-15c-1.36-3.24-2.66-6.5-3.93-9.75-6.71-3.1-13.31-6.4-19.77-10q-9.63-.31-19.35-.9A321.17,321.17,0,0,1,515,808.49Q504.51,806.93,494,805q-12.61-10.95-24.06-23-8.19-2.09-16.39-4.38a348.62,348.62,0,0,1-39-54l-.55.23a349.3,349.3,0,0,0,39.2,54.29q8.21,2.28,16.4,4.38,11.46,12.07,24.11,23,10.56,1.89,21.09,3.44a324.44,324.44,0,0,0,32.34,22.38q9.74.57,19.38.88,9.45,5.17,19.25,9.7,1.89,4.91,3.92,9.77a310.36,310.36,0,0,0,45.76,15.21q11.1-1.75,22-3.85c9.28,1.8,18.66,3.19,28.11,4.1,3.8-1,7.58-2,11.33-3.06a297,297,0,0,0,38.21.22Z"/></g><g class="cls-2"><path class="cls-18" d="M400.12,707a352.72,352.72,0,0,0,39.48,61.22q11.76,3.66,23.5,6.93a337,337,0,0,0,44.43,41.46q1,7.64,2.15,15.27c60.21,42.79,137.22,66,213.52,59.36.23-.29.48-.58.72-.86C648,897,571.31,874.06,511.26,831.62c-.8-5.07-1.52-10.15-2.19-15.22a335.37,335.37,0,0,1-45.31-42.25c-7.8-2.18-15.6-4.52-23.41-7a352.56,352.56,0,0,1-38.73-60q3.76-14,8.07-27.67a340.12,340.12,0,0,1-20.49-65.38q-11.38-9.21-22.52-19a343.87,343.87,0,0,1,7.22-130.76Q387,452.3,400.41,441c-.17-.34-.33-.69-.5-1q-13.74,11.47-27.12,23.78A344.9,344.9,0,0,0,365.5,596q11.21,9.75,22.63,19a341.53,341.53,0,0,0,20.15,64.32Q404,693,400.12,707Z"/><path class="cls-19" d="M722.05,892.49a7.51,7.51,0,0,0,4.49-1.92c.74-.9-.06-1.47-1.8-1.32a7.51,7.51,0,0,0-4.47,1.87C719.52,892,720.31,892.65,722.05,892.49Z"/><path class="cls-20" d="M399.1,438.64c1.26-1,2.69-1,3.21.07s-.08,2.8-1.32,3.84-2.66,1-3.2-.05S397.84,439.69,399.1,438.64Z"/></g><g class="cls-2"><path class="cls-21" d="M437.1,414q-4.2,10.53-7.74,21.29,8.07,13.9,16.57,27.33a360.51,360.51,0,0,0-7,135.63q-8.66,14.19-16.9,28.92a386.16,386.16,0,0,0,22.36,71.63q15.51,8.13,31.05,15.54a368.55,368.55,0,0,0,39.91,62.36c-.83,6.9-1.55,13.85-2.2,20.85a365.34,365.34,0,0,0,48.18,46.08Q573.28,845,585.11,846c62.09,44.67,141.56,69.35,220.57,63.09.26-.31.53-.62.79-.94-79.11,6.27-158.68-18.49-220.78-63.3Q573.9,843.81,562,842.4a367.09,367.09,0,0,1-47.12-45q.95-10.46,2.14-20.78a367.08,367.08,0,0,1-40.57-63.36q-15.5-7.43-30.92-15.57a382.89,382.89,0,0,1-21.92-70.18q8.19-14.72,16.79-28.88a359.55,359.55,0,0,1,7-136.69Q439,448.51,431,434.61q3.43-10.38,7.52-20.59Z"/><path class="cls-22" d="M804.43,910.42a7.86,7.86,0,0,0,4.74-2c.81-1,0-1.62-1.79-1.49a8,8,0,0,0-4.73,2C801.82,909.86,802.63,910.56,804.43,910.42Z"/><path class="cls-23" d="M435,414a4.41,4.41,0,0,1,3.93-2.79c1.51.08,2.18,1.44,1.54,3.06a4.41,4.41,0,0,1-3.89,2.79C435.1,417,434.38,415.62,435,414Z"/></g><path class="cls-24" d="M425.81,417.8a4.56,4.56,0,0,1-3,2.53c-1.77,4.1-3.43,8.26-5,12.42,3.27,6.56,6.6,13.06,10,19.47-21.1,65.84-21.36,137.9-2.08,204,2.28,1.57,4.56,3.1,6.85,4.63a2.1,2.1,0,0,1,2.88-.35,3.34,3.34,0,0,1,1.24,3.89,2.12,2.12,0,0,1-3.27.94,3.35,3.35,0,0,1-1.39-3.19q-3.71-2.46-7.39-5c-19.42-66.24-19.31-138.41,1.68-204.41q-4.8-8.86-9.36-17.95c-23.76,63.3-28.23,133.31-14.32,199.12-3.17,5.9-6.25,11.89-9.32,17.92A379.65,379.65,0,0,0,414,711.57q10.91,5.63,21.82,10.89a366.07,366.07,0,0,0,39.69,62.28q-1.63,14.07-2.8,28.35,4,4.51,8.24,8.87,29.86,6.45,59.34,10.67a341.87,341.87,0,0,0,57.1,37.69,5.1,5.1,0,0,1,3.94.28c1.48.77,1.85,2,.82,2.79a4.79,4.79,0,0,1-4.59.06c-1.24-.63-1.67-1.62-1.18-2.38a342.45,342.45,0,0,1-56.67-37.35q-28.36-4-57.15-10.09a368.27,368.27,0,0,0,44.22,38.73q18.87,1.71,37.49,2.57a335.89,335.89,0,0,0,130.43,48.38q5.7,8.27,11.8,16.22c1.59-.29,3.09-.14,3.59.53s-.45,1.92-2.36,2.55-4,.49-4.6-.32.18-1.57,1.53-2.18q-6-7.85-11.53-16a335,335,0,0,1-115-39.51q2.14,9.36,4.58,18.69a342.6,342.6,0,0,0,59.41,22.91q7.71,16.43,16.58,32.37a342,342,0,0,0,43.11,4.25l2.49,3.26c1.68-.4,3.26-.31,3.78.36.62.82-.5,2.07-2.52,2.87s-4.23.76-4.85-.08.23-1.66,1.64-2.42c-.75-1-1.48-2-2.24-3A337.45,337.45,0,0,1,657,949.46c-5.92-10.67-11.38-21.56-16.5-32.58A343.21,343.21,0,0,1,581,893.8c-1.74-6.78-3.39-13.56-4.89-20.35-4.17-2.38-8.27-4.86-12.34-7.41q-10.51-.45-21.11-1.2,1.25,9.61,2.77,19.29a356.26,356.26,0,0,0,53.35,27.17,5.75,5.75,0,0,1,4.32-.08c1.64.65,2.08,1.91,1,2.84a5.49,5.49,0,0,1-5,.52c-1.38-.53-1.88-1.53-1.36-2.38a355.43,355.43,0,0,1-54-27.62c-1-6.64-2-13.26-2.78-19.87-4.9-.35-9.81-.77-14.73-1.18A368.94,368.94,0,0,1,471,813.25q1.19-14.34,2.89-28.44A364.52,364.52,0,0,1,450.27,751q-5.29,24.32-9.18,49.51A380.47,380.47,0,0,0,489,851.73q0,9.32.21,18.72c1.48.46,2.6,1.49,2.63,2.64,0,1.39-1.5,2.4-3.45,2.18s-3.55-1.49-3.57-2.9c0-1.16,1.07-2,2.53-2.13-.1-6.1-.16-12.17-.13-18.23a381.8,381.8,0,0,1-47.91-51.41q4.14-26.24,9.76-51.53-7.6-12.5-14.2-25.55-11-5.25-21.92-10.88a379.82,379.82,0,0,1-21.15-61q4.6-9.08,9.39-18A361.76,361.76,0,0,1,405,468.34q-9.92,8.79-19.68,18a367.48,367.48,0,0,0-7.07,90.22,2.68,2.68,0,0,1,2.08,2.63,3.26,3.26,0,0,1-2.47,3.46A2.57,2.57,0,0,1,375,580a3.34,3.34,0,0,1,1.8-3.22A368.31,368.31,0,0,1,384,485.7q10.65-10,21.54-19.54a344.14,344.14,0,0,1,15.92-45.9c-.93-.39-1.25-1.5-.7-2.77a4.3,4.3,0,0,1,3.75-2.6C425.91,415,426.48,416.27,425.81,417.8Z"/><path class="cls-25" d="M712.59,878.16q-8.91.17-17.79-.21-20,6.22-40.68,11.37a325.89,325.89,0,0,1-126.82-46q-2.49-11.56-4.45-23.15Q514.23,814,506,807.26q-28.6-4.65-57.52-11.56a356.89,356.89,0,0,1-40.45-51.28,3.57,3.57,0,0,1-3.21-1.68c-.88-1.38-.57-2.94.68-3.46a3.34,3.34,0,0,1,3.84,1.53,2.41,2.41,0,0,1-.11,3.09,354.19,354.19,0,0,0,40,50.71q27.69,6.72,55.16,11.27a333.15,333.15,0,0,1-31.95-30.32q-15.93-4.29-31.86-9.35A348.93,348.93,0,0,1,401.93,706c1.8-6.62,3.66-13.2,5.65-19.71a343.71,343.71,0,0,1-19.36-55.57c-4.94-3.67-9.85-7.44-14.73-11.26-14.37-68.28-7.83-141.38,20.33-205.8-.84-.37-1.12-1.43-.57-2.65a4.08,4.08,0,0,1,3.52-2.5c1.27.08,1.76,1.33,1.11,2.78a4.43,4.43,0,0,1-2.83,2.44c-28.06,64.1-34.66,136.84-20.46,204.83,4.85,3.83,9.76,7.57,14.66,11.25A340.94,340.94,0,0,0,409,686.45q-2.92,9.76-5.6,19.68a350.69,350.69,0,0,0,37.9,59q15.88,5.07,31.75,9.37a332.28,332.28,0,0,0,51.3,45.34q2,11.54,4.5,23.06a325.06,325.06,0,0,0,125.43,45.47q20.65-5.11,40.59-11.28,9.2.39,18.42.24a7.43,7.43,0,0,1,3.82-1.15c1.65-.05,2.42.57,1.7,1.39a6.77,6.77,0,0,1-4.3,1.58C713.13,879.23,712.36,878.78,712.59,878.16Z"/><path class="cls-26" d="M543.7,954.6c2.42.77,3.06,2.58,1.4,4.07a8.44,8.44,0,0,1-7.44,1.3c-2.42-.81-3-2.67-1.34-4.14A8.37,8.37,0,0,1,543.7,954.6Z"/><path class="cls-27" d="M693.43,954c2.55-.23,3.62.78,2.4,2.29s-4.32,3-6.89,3.2-3.62-.86-2.37-2.38S690.89,954.22,693.43,954Z"/><g class="cls-2"><path class="cls-28" d="M763,854.84a296.14,296.14,0,0,1-130.83-11.77c-10.69,1-21.49,1.77-32.38,2.27a319.28,319.28,0,0,1-105.39-71q-13.31-3.42-26.66-7.33a339.11,339.11,0,0,1-67.5-121.19l-1.16.32a339.29,339.29,0,0,0,68,121.88q13.37,3.95,26.74,7.3a319.39,319.39,0,0,0,105.68,70.9q16.38-.78,32.47-2.34a296.35,296.35,0,0,0,129.78,11.73,184.2,184.2,0,0,0,18.8,8.91A295.24,295.24,0,0,0,836,845.38c.16-.26.33-.5.49-.76a295.11,295.11,0,0,1-54.68,19A183.32,183.32,0,0,1,763,854.84Z"/></g><g class="cls-2"><path class="cls-8" d="M409.72,276a361.23,361.23,0,0,0-67.3,61.32c1.69,5.79,3.45,11.54,5.24,17.27a375.71,375.71,0,0,0-35.39,54.6q8,16.56,16.44,32.58a386.13,386.13,0,0,0-28,99.94q-13.56,13.23-26.88,27.2a423.94,423.94,0,0,0-.57,50.66q14.94,12.81,30,24.84a412.74,412.74,0,0,0,19.12,84.41q19.49,11,39,20.9a390.21,390.21,0,0,0,33.68,62q17.09,5.91,34.1,11.1a364.28,364.28,0,0,0,102.86,91.12c.35-.24.67-.5,1-.73A363.88,363.88,0,0,1,430,821.7q-17-5.19-34-11.13a390.08,390.08,0,0,1-33.55-61.89q-19.45-9.91-38.86-20.92a412.11,412.11,0,0,1-18.94-84.28q-15-12-29.87-24.84a416.65,416.65,0,0,1,.57-49.22q13.25-13.95,26.75-27.18a385.17,385.17,0,0,1,28.34-101q-8.37-16-16.28-32.5a374.1,374.1,0,0,1,35.46-54.44q-2.64-8.55-5.14-17.21a360.43,360.43,0,0,1,66.75-60.65C410.72,276.27,410.22,276.11,409.72,276Z"/></g><g class="cls-2"><path class="cls-29" d="M350.42,868.43a382,382,0,0,1-61.23-98.35q-16.92-8.83-33.82-18.48a400.29,400.29,0,0,1-20.59-98.06q9.94-13.92,20.23-27.26c-1.84-115.43,54.3-235.44,154.64-300.53l-2-.61c-100.26,65.14-156.46,185-154.91,300.4q-10.35,13.38-20.4,27.33a402,402,0,0,0,21.09,100.4q17,9.68,34,18.47a383.82,383.82,0,0,0,60.29,96.9q-2.42,22.32-3.7,45.25A381.59,381.59,0,0,0,442,982.67q31.92-2.08,62.72-6.14c69.31,23.71,149.09,24.74,220.84-1.87A157.83,157.83,0,0,0,750.84,981c.86-.7,1.7-1.43,2.54-2.14a152.87,152.87,0,0,1-25.75-6.1c-72.18,27.08-152.61,26.1-222.35,2q-30.66,4-62.45,5.94A379.48,379.48,0,0,1,347,913.47Q348.12,890.66,350.42,868.43Z"/><path class="cls-30" d="M412.12,326.73c2.29-1.48,2.54-3.17.52-3.82s-5.56,0-7.87,1.5-2.48,3.26-.43,3.9S409.83,328.21,412.12,326.73Z"/><path class="cls-31" d="M756.75,975.89c1.18.13,0,2.08-2.6,4.33s-5.76,3.91-6.95,3.7,0-2.17,2.66-4.35S755.56,975.78,756.75,975.89Z"/></g><g class="cls-2"><path class="cls-32" d="M827.77,886.87a299.12,299.12,0,0,1-29.14,18.86q-25.3,21-53.76,40.16c-67.82,25.78-143.47,25.78-209.53,4.1q-7-15-12.85-30.46a326.48,326.48,0,0,1-87.33-57.75q-25-5.16-50.09-12.12a356.33,356.33,0,0,1-57.58-91.4q5.1-15.37,10.76-30.3a344.13,344.13,0,0,1-18.55-89.48q-9.57-9.43-18.85-19.38c-.84-108.41,53.9-220.52,149.24-280.59l-1.72-.54c-95.81,60.46-150.63,173.36-149.46,282.37q9.39,9.9,19,19.39a343.7,343.7,0,0,0,18.23,87.86q-5.76,15-10.93,30.4A358,358,0,0,0,384,851.3q25.23,6.9,50.33,12a327.61,327.61,0,0,0,85.92,56.88Q526,935.72,533,950.9c66.79,22.17,143.46,22.25,212-4.08q28.47-19.32,53.86-40.46A300,300,0,0,0,827.16,888C827.35,887.6,827.57,887.24,827.77,886.87Z"/><path class="cls-32" d="M452.23,339.37c2.18-1.37,2.54-2.91.79-3.48s-5,.07-7.22,1.45-2.49,3-.7,3.55S450.06,340.75,452.23,339.37Z"/><path class="cls-32" d="M828.43,885.48c2.17-1.57,3.39-2,2.76-.83a21,21,0,0,1-5.08,5c-2.18,1.61-3.44,1.92-2.8.74A22.7,22.7,0,0,1,828.43,885.48Z"/></g><g class="cls-2"><path class="cls-33" d="M586.32,914.79c-1,.16-1.91.35-2.86.52,4.21,9.08,8.73,18,13.47,26.88a338.46,338.46,0,0,0,104.12,1.91,268.26,268.26,0,0,0,37.26,27.08,348.08,348.08,0,0,0,68.47-32.38c2.14.29,4.29.5,6.42.73.89-.89,1.79-1.75,2.68-2.64-2.3-.15-4.6-.39-6.89-.66a348.53,348.53,0,0,1-68.17,32.58,262.58,262.58,0,0,1-37.33-26.52,337.83,337.83,0,0,1-103.87-1.48Q592.58,928,586.32,914.79Z"/><path class="cls-34" d="M819.43,933.25c1.17,0-.09,2.32-2.85,5.1s-6,4.91-7.21,4.8.15-2.42,2.91-5.14S818.24,933.19,819.43,933.25Z"/></g><g class="cls-2"><path class="cls-35" d="M643,946l-2.95.27c2.73,9.7,5.64,19.41,8.8,29.09A354.31,354.31,0,0,0,751.56,994c.5-.56,1-1.13,1.51-1.7a353,353,0,0,1-101.33-18.2Q647.06,960.07,643,946Z"/><path class="cls-36" d="M754.9,990c2.89.09,4,1.54,2.43,3.31s-5.23,3.21-8.16,3.11-4-1.66-2.38-3.43S752,989.88,754.9,990Z"/></g><path class="cls-37" d="M894.27,874.48c-1.78,1.53-2.9,2.1-2.86,1.55q-8.65,7.23-17.75,13.8-18.24,17.79-38.43,34.82c-102.17,57.17-232.55,48.15-326.5-8.8q-7.62-.24-15.28-.62c-.39,1.38-2.09,2.36-4.41,2.24-2.8-.14-5.29-1.8-5.53-3.7s1.81-3.26,4.57-3.09a6.32,6.32,0,0,1,5.09,2.77c5.47.27,10.9.54,16.33.71,93.54,57,223.52,66.38,325.56,9.69Q853.65,908.3,870.59,892c-89.7,62.93-210.8,69.71-304.73,28.58q-3.6-10.05-6.75-20.19a330,330,0,0,1-73.89-52.28q-18-3.78-36.08-8.47a355.16,355.16,0,0,1-59.93-90.79q6.54-21,14.21-41.23-2.69-7.83-5-15.76-30.1-21.51-58.91-46.67a359.78,359.78,0,0,1,2.75-102.87c-1.53-.47-2.47-2.11-2.08-4.15.44-2.47,2.59-4.52,4.71-4.6s3.4,1.83,3,4.27a5.87,5.87,0,0,1-3.56,4.38,359.38,359.38,0,0,0-2.87,101.61q27.45,24.1,56.13,45a336.12,336.12,0,0,1-12.14-78.77q-14.12-15-27.53-31.18c4.33-66.27,28.38-132.12,70.42-185.11q24.44-11.42,49-20.88a7.28,7.28,0,0,1,4.2-3.53c2.44-.9,4.38-.46,4.35,1s-2,3.34-4.42,4.29c-2,.77-3.59.56-4.13-.34q-24,9.31-47.81,20.56c-36.41,46.11-59.26,101.9-67.2,159.07q13.27-14.42,27.06-27.9a320.77,320.77,0,0,1,30.3-80.87,689.39,689.39,0,0,1,69.89-39.94,288.13,288.13,0,0,1,37.6-38c3.08-1,6.15-2.06,9.24-3.06a8.06,8.06,0,0,1,4.3-3c2.32-.71,4-.26,3.7,1s-2.32,2.87-4.61,3.62c-1.89.63-3.29.4-3.61-.42-2.77.91-5.52,1.85-8.28,2.79a287.72,287.72,0,0,0-37.4,38,694.37,694.37,0,0,0-69.52,40,320.21,320.21,0,0,0-30,80.74q-14.82,14.63-29.08,30.31-1.32,10.23-2,20.53,7.53,9.09,15.26,17.87,10.56-14.16,21.6-27.62a318.56,318.56,0,0,1,16.85-76.79c-1.2-.49-1.68-2-1-3.86.82-2.18,2.94-3.9,4.73-3.83s2.54,1.86,1.72,4a6.1,6.1,0,0,1-3.71,3.71,317.55,317.55,0,0,0-16.93,77.51q-11.25,13.77-22,28.31,5.32,6,10.74,11.82A335.85,335.85,0,0,0,405.44,708q-7.56,20.13-14,41.1a353,353,0,0,0,29.9,52.5,666.7,666.7,0,0,1,14.27-67.74,325.29,325.29,0,0,1-26.54-87q6.57-12.4,13.62-24.36a5,5,0,0,1,.08-4.83c1.05-1.75,2.93-2.05,4.21-.7a5,5,0,0,1,.45,5.61,2.53,2.53,0,0,1-3.48,1.21q-6.75,11.61-13.07,23.6a324.12,324.12,0,0,0,26.72,86.69,666,666,0,0,0-14.36,70.21,353.61,353.61,0,0,0,26.94,33.71q18,4.69,35.9,8.54a329.8,329.8,0,0,0,75.29,53.21q3.2,10.08,6.83,20c77.3,33.53,172,36,252.91-.43a151.19,151.19,0,0,1-17.35-3.32,303.57,303.57,0,0,1-134.23,14.24,9.88,9.88,0,0,1-5.88,1.08c-2.45-.33-3.45-1.61-2.22-2.83s4.16-1.9,6.6-1.57c2,.27,3.06,1.16,2.66,2.14a302.61,302.61,0,0,0,134.87-14.6,148.36,148.36,0,0,0,18.88,3.33,308,308,0,0,0,67.57-43,32,32,0,0,1,4.54-4.74c2.11-1.82,3.29-2.37,2.68-1.18A25.82,25.82,0,0,1,894.27,874.48Z"/><path class="cls-37" d="M350.36,341.58c-7.59,6.43-14.84,13.21-21.8,20.24q3,20.52,7.45,40.64c-43.45,56.05-67.95,125.35-72.11,195q-17.38,20.28-34,42.06.8,17.78,3.16,35.4,34,27,69,49.77a365.65,365.65,0,0,0,41.81,89.51,5.44,5.44,0,0,1,4.91,2.51c1.37,2.07,1,4.42-.95,5.26s-4.64-.13-6-2.22A3.61,3.61,0,0,1,342,815a367.8,367.8,0,0,1-41.61-88.8q-33.82-21.88-66.81-47.68a401.92,401.92,0,0,0,17.29,72.25q23.3,13.38,46.68,25.18A377.81,377.81,0,0,0,360,871.57q-1.28,15.64-2,31.57a372.78,372.78,0,0,0,80.77,59.76q19.18-.39,38-1.58c106.14,48.09,247.2,36.58,344-43.79a32.23,32.23,0,0,1,4.92-5.18c2.26-1.93,3.47-2.43,2.76-1a27,27,0,0,1-5.4,6.1c-1.9,1.62-3.07,2.15-3,1.48-96.81,80.35-237.74,92-344,44.17q-18.92,1.25-38.18,1.7a375.63,375.63,0,0,1-82.67-61.25q.8-16,2.12-31.72a380,380,0,0,1-61.46-94.23q-23.52-11.77-47-25.14a403.8,403.8,0,0,1-21.41-113.63Q244.3,617,261.82,596.63c4.28-69.13,28.58-137.88,71.5-193.7q-4.54-20.19-7.76-40.83,10.8-11,22.61-21.1c-1.29-.84-1.09-2.43.69-3.92,2.16-1.78,5.76-2.7,8-2.07s2.3,2.52.16,4.28A10.71,10.71,0,0,1,350.36,341.58Z"/></g></g></svg>