<svg xmlns="http://www.w3.org/2000/svg" viewBox="0 0 1296 1296"><defs><style>.cls-1{isolation:isolate;}.cls-2{opacity:0.09;}.cls-3{fill:#0099eb;opacity:0.5;}.cls-3,.cls-4,.cls-6,.cls-8{mix-blend-mode:screen;}.cls-4{opacity:0.4;}.cls-5{fill:#bd6b00;}.cls-7{fill:#c2f1ff;}.cls-8{opacity:0.8;}</style></defs><title>trt13</title><g class="cls-1"><g id="a" class="cls-2"><path class="cls-3" d="M573.06,998.17l7.17,1.28,8.62,1.5,11.73,1.49a374.64,374.64,0,0,0,73.18,1.38,365.63,365.63,0,0,0,101-22.57,370.24,370.24,0,0,0,102.5-59.12c31.18-25.67,58.14-56.33,78.14-88.43a359.58,359.58,0,0,0,42-94,355.34,355.34,0,0,0,12.76-71.76c.81-8.77.84-15.68,1-20.39s.17-7.21.17-7.21h19.66s-.06,2.64-.17,7.6-.18,12.22-1,21.46A375.14,375.14,0,0,1,1016.3,745a380.24,380.24,0,0,1-44.24,99.11c-21.09,33.81-49.47,66.11-82.32,93.14a390,390,0,0,1-108,62.29,385.31,385.31,0,0,1-106.43,23.79,395.09,395.09,0,0,1-77.06-1.45l-12.36-1.58-9.08-1.57-7.55-1.35Z"/><path class="cls-3" d="M461.44,387.33,459.09,389c-1.58,1.06-3.82,2.77-6.7,5.05a294,294,0,0,0-24.17,20.66c-5.08,4.6-10.25,10.16-16,16.11l-8.46,9.7c-2.93,3.36-5.67,7.08-8.67,10.79a315.78,315.78,0,0,0-33.61,54.33,319.82,319.82,0,0,0-24.27,71.45c-2.47,13.17-4.78,26.79-5.57,40.86-.71,7-.61,14.15-.87,21.33,0,3.59.16,7.21.22,10.83l.14,5.45c.06,1.82.26,3.64.38,5.46.28,3.65.56,7.32.84,11q.71,5.49,1.4,11c.26,1.84.43,3.7.75,5.53l1,5.51c.71,3.68,1.22,7.4,2.1,11.07A306.62,306.62,0,0,0,369.91,791a310.9,310.9,0,0,0,25.82,39,301.11,301.11,0,0,0,31.38,34.78c5.56,5.48,11.54,10.48,17.42,15.54,6.12,4.78,12.12,9.69,18.51,14,6.21,4.58,12.81,8.54,19.26,12.65,6.64,3.79,13.19,7.67,20,11,6.67,3.58,13.65,6.44,20.45,9.52,7,2.69,13.8,5.57,20.83,7.76,27.85,9.58,56.18,14.33,83.09,16a321.94,321.94,0,0,0,75.73-4.94,309.24,309.24,0,0,0,61.51-18.13A329.55,329.55,0,0,0,808,905.86c11.65-7.23,20.43-13.51,26.26-18l8.88-6.93,26.12,31.56-10,7.84c-6.6,5-16.52,12.14-29.71,20.31A370.82,370.82,0,0,1,779.64,966,350,350,0,0,1,710,986.5a363.43,363.43,0,0,1-85.58,5.58c-30.42-1.85-62.49-7.26-94-18.09-7.95-2.5-15.71-5.73-23.59-8.8-7.71-3.46-15.58-6.73-23.14-10.76C476,950.69,468.53,946.32,461,942c-7.31-4.61-14.75-9.13-21.79-14.29-7.22-4.91-14-10.42-20.93-15.85-6.66-5.71-13.4-11.38-19.69-17.56A342,342,0,0,1,363.15,855,351.61,351.61,0,0,1,334,810.84a347.89,347.89,0,0,1-36.56-97.25c-1-4.15-1.58-8.36-2.37-12.52l-1.12-6.24c-.35-2.08-.57-4.18-.85-6.26q-.8-6.26-1.58-12.46l-1-12.42c-.13-2.06-.35-4.12-.42-6.17s-.11-4.11-.16-6.15c-.08-4.1-.26-8.17-.25-12.23.27-8.11.2-16.16,1-24.09.93-15.9,3.49-31.32,6.32-46.22a360.35,360.35,0,0,1,27.48-80.89,356.2,356.2,0,0,1,38-61.46c3.38-4.21,6.5-8.39,9.8-12.2l9.57-11c6.45-6.75,12.31-13,18-18.22a337,337,0,0,1,27.33-23.36c3.26-2.57,5.79-4.5,7.57-5.7l2.66-1.88Z"/><path class="cls-3" d="M1041.66,640.3s-.12-4.95-.34-14.22c0-4.63-.46-10.35-1-17.06-.29-3.36-.48-7-.94-10.81s-1-7.91-1.55-12.22a389.5,389.5,0,0,0-45.32-136,401,401,0,0,0-56.44-77.73l-8.93-9.3c-3-3.15-6.24-6.05-9.39-9.1-6.27-6.14-13.12-11.8-19.92-17.66a415,415,0,0,0-44.74-31.93c-3.91-2.56-8.07-4.75-12.14-7.13s-8.19-4.69-12.46-6.79S820,286,815.73,283.92L802.59,278c-4.36-2.05-8.93-3.67-13.42-5.48s-9-3.57-13.68-5.06-9.25-3.14-13.92-4.62l-14.17-4a401.81,401.81,0,0,0-234.65,8.69A397,397,0,0,0,410.8,320.66a386.31,386.31,0,0,0-42.18,35.15l-4.87,4.63c-1.59,1.55-3.1,3.19-4.65,4.77L350,374.78l-8.6,9.83c-1.42,1.64-2.85,3.25-4.22,4.91l-4,5c-2.64,3.36-5.3,6.66-7.85,10L318,414.76q-1.8,2.53-3.57,5.06L311.05,425c-2.2,3.44-4.4,6.85-6.57,10.23a406.54,406.54,0,0,0-21.82,41.07,389.62,389.62,0,0,0-26.1,77c-.67,3-1.4,5.84-1.95,8.72s-1,5.71-1.55,8.49c-1,5.57-2,10.94-2.56,16.14s-1.36,10.17-1.82,14.93-.72,9.33-1.06,13.66-.46,8.42-.56,12.27-.18,7.46-.26,10.82c0,6.73.22,12.44.32,17.08s.35,8.19.54,10.58.27,3.63.27,3.63l20.51-1.5s-.09-1.17-.26-3.44-.46-5.64-.52-10-.34-9.82-.31-16.2c.08-3.19.17-6.62.25-10.27s.16-7.55.54-11.65.65-8.42,1-13,1.12-9.24,1.73-14.16,1.47-10,2.43-15.3c.48-2.64,1-5.32,1.46-8.06s1.22-5.46,1.85-8.27a370.14,370.14,0,0,1,24.75-73A384.5,384.5,0,0,1,322,445.83l6.24-9.7,3.18-4.89q1.68-2.4,3.39-4.8l6.93-9.67c2.42-3.18,4.94-6.31,7.45-9.5L353,402.5c1.29-1.57,2.66-3.1,4-4.65l8.15-9.34,8.68-9.06c1.46-1.51,2.9-3.06,4.41-4.54l4.61-4.39a367.3,367.3,0,0,1,40-33.33,376.57,376.57,0,0,1,207.34-71.11,380.78,380.78,0,0,1,111.84,12.49l13.44,3.81c4.42,1.39,8.81,2.91,13.19,4.38s8.69,3.11,13,4.79,8.6,3.25,12.73,5.19l12.46,5.61c4.08,2,8.09,4.07,12.11,6.1s7.94,4.21,11.81,6.44,7.81,4.33,11.51,6.76a395.68,395.68,0,0,1,42.44,30.28c6.44,5.57,12.95,10.93,18.89,16.76,3,2.89,6.08,5.64,8.9,8.62l8.48,8.83a380.36,380.36,0,0,1,53.52,73.72,370.19,370.19,0,0,1,30.17,70.91,366.48,366.48,0,0,1,12.79,58q.78,6.12,1.47,11.59c.45,3.63.61,7.07.89,10.25.51,6.37.91,11.79.94,16.19.22,8.8.33,13.49.33,13.49Z"/><path class="cls-3" d="M957.64,640.3s0-2.1-.15-6-.1-9.73-.8-17.07a299.58,299.58,0,0,0-10.43-60c-.86-3-1.75-6.14-2.65-9.3q-1.58-4.67-3.22-9.5c-.55-1.61-1.11-3.23-1.66-4.87s-1.27-3.24-1.92-4.87l-4-9.94a344,344,0,0,0-20.91-40.42c-16.67-26.83-38.4-53.18-64.34-74.88a327.24,327.24,0,0,0-40.85-29.48,330.87,330.87,0,0,0-43.67-21.86l-11-4.3-11-3.69c-3.6-1.3-7.26-2.23-10.85-3.26s-7.1-2.14-10.67-2.86l-10.48-2.41c-3.45-.79-6.9-1.27-10.26-1.91-6.72-1.34-13.31-2-19.6-2.83A306.43,306.43,0,0,0,618,330l-5.24.39c-1.64.15-3.17.39-4.6.56l-7.25.91-4.49.57-1.53.27-2-12.28,1.59-.28,4.68-.6,7.54-.95c1.48-.17,3.07-.42,4.78-.57l5.45-.41a318.75,318.75,0,0,1,63.7.85c6.55.85,13.4,1.56,20.39,2.94,3.49.67,7.08,1.17,10.67,2l10.9,2.51c3.71.76,7.36,2,11.11,3s7.53,2,11.28,3.39l11.4,3.84,11.42,4.48a344.42,344.42,0,0,1,45.42,22.73A339.72,339.72,0,0,1,855.73,394c27,22.56,49.56,49.95,66.89,77.85a354.91,354.91,0,0,1,21.75,42q2.08,5.24,4.12,10.34c.67,1.7,1.34,3.39,2,5.06s1.16,3.4,1.73,5.07l3.35,9.89c.94,3.28,1.86,6.51,2.77,9.66a312.59,312.59,0,0,1,10.84,62.41c.72,7.63.69,13.65.83,17.74s.15,6.29.15,6.29Z"/><path class="cls-3" d="M919.93,634.15c0-1.95-.1-4.33-.17-7s-.43-5.77-.66-9.11a272.77,272.77,0,0,0-8.27-48.28,265.51,265.51,0,0,0-16.88-46c-1.3-3.09-2.89-5.73-4.08-8.17l-3.24-6.26L883.55,504l-33.48,19.11,2.66,4.56,2.77,5.39c1,2.1,2.41,4.36,3.51,7a226.08,226.08,0,0,1,14.5,39.48,234.1,234.1,0,0,1,7.11,41.5c.19,2.88.48,5.51.57,7.85s.1,4.4.14,6.09c.1,3.37.16,5.3.16,5.3s-.06,1.93-.16,5.3c0,1.69-.08,3.74-.14,6.09s-.38,5-.57,7.84A234,234,0,0,1,873.51,701,226.38,226.38,0,0,1,859,740.52c-1.1,2.66-2.49,4.92-3.51,7l-2.77,5.38-2.66,4.57,33.48,19.11,3.08-5.31,3.24-6.26c1.19-2.44,2.78-5.09,4.08-8.17a265.51,265.51,0,0,0,16.88-46,272.77,272.77,0,0,0,8.27-48.28c.23-3.34.55-6.39.66-9.11s.12-5.1.17-7.06c.11-3.91.17-6.14.17-6.14S920,638.06,919.93,634.15Z"/><path class="cls-3" d="M832.56,454.85s-.76-.85-2.39-2.34l-7.08-6.71c-6.45-5.58-15.79-14-29.05-22.9a259.17,259.17,0,0,0-50.64-27l-7.87-3.1L727.27,390l-4.22-1.43-4.35-1.21c-2.93-.81-5.87-1.71-8.88-2.49a300.2,300.2,0,0,0-38.63-6.78,296.16,296.16,0,0,0-42.77-.84,259.15,259.15,0,0,0-45.16,6.57A265,265,0,0,0,420.82,498.41a261.31,261.31,0,0,0-38.47,100.36,264,264,0,0,0,205.4,299c3.31.86,6.68,1.29,10,1.91s6.55,1.23,9.81,1.55l9.63,1.23,9.47.7c3.11.31,6.2.37,9.25.43s6,.19,9,.2l8.76-.23,4.29-.1,4.19-.33a266.19,266.19,0,0,0,56.59-9.94c3.87-1,7.42-2.25,10.78-3.39s6.54-2.14,9.39-3.35l8-3.12c2.42-1,4.57-2.05,6.52-2.91l5.16-2.31c1.48-.68,2.68-1.35,3.66-1.84l3-1.52,11.45,22.12-3.27,1.67c-1.08.53-2.39,1.26-4,2l-5.65,2.52c-2.13.95-4.49,2.07-7.14,3.19l-8.75,3.42c-3.13,1.31-6.59,2.44-10.28,3.67S730,916,725.73,917.08A291.66,291.66,0,0,1,663.79,928l-4.6.35-4.67.12-9.57.24c-3.24,0-6.53-.15-9.85-.21s-6.71-.14-10.11-.47l-10.35-.78-10.55-1.33c-3.57-.36-7.13-1-10.73-1.7s-7.28-1.16-10.91-2.1A289.74,289.74,0,0,1,413.35,815a286.56,286.56,0,0,1-13.6-330A290,290,0,0,1,577.53,359.65,283.35,283.35,0,0,1,627,352.46a291.06,291.06,0,0,1,89,8.35c3.3.85,6.52,1.83,9.72,2.71l4.77,1.34,4.62,1.56,9,3,8.62,3.39a284.24,284.24,0,0,1,55.44,29.55c14.5,9.74,24.73,18.93,31.77,25.05l7.74,7.34c1.78,1.63,2.62,2.56,2.62,2.56Z"/><path class="cls-3" d="M824.71,506.31,822,502.79c-.9-1.14-2-2.54-3.31-4.2l-4.73-5.48a228.6,228.6,0,0,0-32.73-30.5,224,224,0,0,0-55.38-31A226.64,226.64,0,0,0,582.48,425a224.32,224.32,0,0,0-58.07,25.7,220.11,220.11,0,0,0-35.51,27.49c-4,3.67-6.87,6.79-8.87,8.88L477,490.28l-14.59-13.1,3.31-3.5c2.18-2.27,5.3-5.65,9.64-9.65A240.8,240.8,0,0,1,514,434.15a243.27,243.27,0,0,1,63.16-27.95,246.31,246.31,0,0,1,155.83,7.19,243.59,243.59,0,0,1,60.23,33.72,247.64,247.64,0,0,1,35.57,33.14l5.13,6,3.61,4.56,3,3.83Z"/><path class="cls-3" d="M625.1,809.79l1.57.18c1,.15,2.57.27,4.58.39a162,162,0,0,0,17.46.42,172.79,172.79,0,0,0,60.7-12.64A177.37,177.37,0,0,0,745.66,778,174.75,174.75,0,0,0,779,745.9a169.8,169.8,0,0,0,13.82-20.15,177,177,0,0,0,11-22.47,170.18,170.18,0,0,0,11.53-49.52,164.26,164.26,0,0,0,.09-25.58,170.32,170.32,0,0,0-10.95-49c-1.39-3.89-3.17-7.59-4.79-11.32-1.84-3.64-3.56-7.31-5.61-10.76a170.56,170.56,0,0,0-27.87-36.8,175.23,175.23,0,0,0-32.62-25.61,171.57,171.57,0,0,0-57.88-22.07c-7.41-1.31-13.3-1.95-17.32-2.27l-6.16-.42,1.88-40.82,7.64.51c5,.4,12.27,1.19,21.45,2.83a221.49,221.49,0,0,1,32.48,8.68A210.08,210.08,0,0,1,755,459.79a216.2,216.2,0,0,1,40.36,31.69,211.61,211.61,0,0,1,34.58,45.64c2.52,4.3,4.69,8.83,6.94,13.35,2,4.62,4.22,9.24,6,14a210.33,210.33,0,0,1,13.56,60.76,204.32,204.32,0,0,1-.11,31.68A210.84,210.84,0,0,1,842,718.35a219.67,219.67,0,0,1-13.63,27.9,212.07,212.07,0,0,1-17.13,25A215,215,0,0,1,770,810.88,218.1,218.1,0,0,1,725,836a215.43,215.43,0,0,1-41.81,12.19,204.33,204.33,0,0,1-33.39,3.49,202.22,202.22,0,0,1-21.62-.52c-2.49-.16-4.4-.31-5.68-.48l-1.94-.23Z"/><path class="cls-3" d="M454.41,470s-2.08,2.41-6,6.92c-2,2.23-4.26,5.13-6.92,8.56s-5.62,7.45-8.79,12.06A250.83,250.83,0,0,0,395.34,582a255.58,255.58,0,0,0-6.76,61.27,251.09,251.09,0,0,0,10.12,68A255.31,255.31,0,0,0,545.31,874.61a256.22,256.22,0,0,0,71.74,18.31c48,5.1,93.38-4,128.65-19.42a255.49,255.49,0,0,0,77-51.34c4.06-3.84,7.38-7.54,10.39-10.66s5.28-6,7.24-8.27,3.37-4.06,4.33-5.28l1.44-1.85-16.23-12.54-1.33,1.7c-.87,1.13-2.16,2.79-4,4.86s-4,4.68-6.66,7.61-5.82,6.28-9.57,9.81a234.45,234.45,0,0,1-70.8,47.21c-32.42,14.18-74.2,22.54-118.33,17.86A235.55,235.55,0,0,1,446.75,767.16a232.93,232.93,0,0,1-28.3-61.61,242.34,242.34,0,0,1-6.91-31.64A245.45,245.45,0,0,1,409.13,643a235.36,235.36,0,0,1,6.22-56.35,231.19,231.19,0,0,1,34.34-77.6c2.93-4.24,5.59-8,8.1-11.09s4.54-5.83,6.36-7.88l5.52-6.37Z"/><path class="cls-3" d="M516.78,526l-2.17,2.51c-1.4,1.66-3.56,4-6,7.24a164.84,164.84,0,0,0-17.92,28.19A172.3,172.3,0,0,0,482,584.47a187.37,187.37,0,0,0-6.43,24A171.61,171.61,0,0,0,474,662.43a177.33,177.33,0,0,0,5.72,26.88,179.31,179.31,0,0,0,9.69,24.81,170.21,170.21,0,0,0,26.21,39.21A165.67,165.67,0,0,0,540.28,776c3.16,2.53,5.88,4.2,7.63,5.47s2.77,1.86,2.77,1.86l-6.84,10.42s-1.06-.65-3-2-4.8-3.16-8.19-5.87a179.37,179.37,0,0,1-26.39-24.33,183.12,183.12,0,0,1-28.14-42.08,192.5,192.5,0,0,1-10.39-26.63A190.35,190.35,0,0,1,461.63,664a183.74,183.74,0,0,1,1.61-57.82,199.22,199.22,0,0,1,6.89-25.82,184.58,184.58,0,0,1,9.4-22,177.27,177.27,0,0,1,19.22-30.26c2.61-3.47,4.91-6,6.41-7.75l2.33-2.69Z"/><path class="cls-3" d="M602.49,513.64l-2.85.91c-1.77.7-4.35,1.58-7.36,2.85a129.56,129.56,0,0,0-21.14,11.11,132.85,132.85,0,0,0-18.8,14.74c-1.18,1.13-2.3,2.12-3.23,3.07l-2.38,2.5L544.65,551h0s-.71.83-1.95,2.28l-2.27,2.6c-.85,1-1.73,2.23-2.74,3.51a132.77,132.77,0,0,0-12.84,20.09,127.67,127.67,0,0,0-9,22c-1,3.1-1.58,5.74-2.1,7.57s-.62,2.91-.62,2.91l37.74,8.11s.16-.76.43-2.08.81-3.17,1.5-5.38A89.89,89.89,0,0,1,559.19,597a94.93,94.93,0,0,1,9.14-14.28c.73-.92,1.34-1.79,2-2.52l1.63-1.86,1.39-1.65h0l1.51-1.54,1.7-1.81c.66-.68,1.48-1.37,2.32-2.19a94.33,94.33,0,0,1,13.36-10.49,90.7,90.7,0,0,1,15-7.88c2.14-.9,4-1.51,5.23-2l2-.64Z"/><path class="cls-3" d="M521,646a14.92,14.92,0,0,0,.09,1.55c.08,1,.19,2.54.34,4.52A128.09,128.09,0,0,0,524.25,669a118.93,118.93,0,0,0,9,25,125.06,125.06,0,0,0,8.13,14.18,143.15,143.15,0,0,0,11.21,14.31,125.84,125.84,0,0,0,32.22,25.29,123,123,0,0,0,43.29,14.09,125.16,125.16,0,0,0,48.76-3.35,123,123,0,0,0,44.73-22.7,124.46,124.46,0,0,0,32-38.75,121.7,121.7,0,0,0,13.52-46.51,123.06,123.06,0,0,0-69.34-120.71,116.77,116.77,0,0,0-16-6.32c-1.89-.62-3.34-1.08-4.35-1.3l-1.5-.4,6.42-24,1.81.48c1.21.28,3,.83,5.23,1.57a139.7,139.7,0,0,1,19.23,7.62,147,147,0,0,1,83.4,145.16,146.48,146.48,0,0,1-16.28,56,149,149,0,0,1-241.75,30.58A164.93,164.93,0,0,1,520.57,722a149.35,149.35,0,0,1-9.8-17.08,143.55,143.55,0,0,1-10.86-30.1,152.64,152.64,0,0,1-3.43-20.34c-.17-2.37-.31-4.19-.4-5.42a18.48,18.48,0,0,1-.11-1.86Z"/><g class="cls-4"><path class="cls-5" d="M326.16,486l-19.09-9.33,5.18-9.87c2.1-4,5-9.53,8.92-15.93a366.45,366.45,0,0,1,44.27-60.07,372,372,0,0,1,81.23-67.44c33.23-20.65,71.89-36.57,111.78-46a383.89,383.89,0,0,1,86.43-9.89c11.63,0,23.21.55,34.43,1.64a373.25,373.25,0,0,1,102.88,24.6,382.67,382.67,0,0,1,66.45,34.06l10.06,6.62,14.15,10.3L860,361.48l-13.4-9.75-9.5-6.25a360.65,360.65,0,0,0-62.71-32.14,351.61,351.61,0,0,0-97-23.2c-10.56-1-21.48-1.55-32.44-1.55a362.41,362.41,0,0,0-81.55,9.33c-37.67,8.94-74.15,24-105.46,43.43a350.09,350.09,0,0,0-76.6,63.6,344.67,344.67,0,0,0-41.77,56.67c-3.67,6-6.38,11.15-8.36,14.92Zm-16-10.33,15,7.36,3.95-7.53c2-3.81,4.72-9,8.42-15a348.21,348.21,0,0,1,42-57,352.45,352.45,0,0,1,77.09-64c31.51-19.59,68.22-34.71,106.14-43.71a364.62,364.62,0,0,1,82.06-9.39c11,0,22,.52,32.66,1.56a354.21,354.21,0,0,1,97.65,23.35,362.4,362.4,0,0,1,63.1,32.35l9.56,6.28,11.66,8.48,10.16-13.25-13-9.43-9.21-6.07a380.74,380.74,0,0,0-66-33.85,371.1,371.1,0,0,0-102.27-24.45c-11.14-1.08-22.65-1.63-34.21-1.63A381.58,381.58,0,0,0,559,279.52c-39.65,9.41-78.07,25.23-111.11,45.76a369.32,369.32,0,0,0-80.74,67,363.4,363.4,0,0,0-44,59.72c-3.89,6.35-6.76,11.82-8.85,15.82Z"/></g><g class="cls-4"><path class="cls-5" d="M699.77,977.65l-6.95-41.19,3.87-.62c1.65-.22,4.08-.69,7.91-1.53a284.8,284.8,0,0,0,29.76-7.64c5.29-1.53,10.95-3.61,16.95-5.8l3.79-1.39,11.46-4.81c2.52-1.06,5-2.26,7.64-3.53,1.47-.72,2.95-1.43,4.47-2.14A305.54,305.54,0,0,0,831,876.25a309.05,309.05,0,0,0,51.56-51.51c8.83-11.73,16-21.83,22.31-33,2.52-4,4.75-8.29,6.91-12.44,1-1.89,2-3.79,3-5.68s1.9-3.95,2.83-6c.53-1.16,1.06-2.32,1.61-3.47l2.22-4.78c.46-1,.86-2,1.28-3.07.23-.6.47-1.19.72-1.79l4-9.88,3.5-10.1c.2-.59.41-1.19.62-1.78.38-1.09.77-2.18,1.09-3.29l1.51-5.2c.34-1.25.72-2.5,1.09-3.76.65-2.18,1.32-4.43,1.83-6.67a295.05,295.05,0,0,0,8.86-88,297,297,0,0,0-5.61-44.67A287.51,287.51,0,0,0,928,537.94c-2.09-6-4.63-12-7.09-17.71l-1.33-3.11-1.92-4c-2.52-5.28-5.13-10.75-8.06-15.89-2.7-5.2-5.8-10.23-8.79-15.09q-1.25-2-2.48-4l-1.94-2.87c-3.38-5-6.88-10.22-10.64-15-3.16-4.4-6.66-8.58-10-12.61-1.2-1.43-2.4-2.86-3.58-4.3-1.12-1.21-2.27-2.47-3.42-3.73-3.6-4-7.33-8.05-11.23-11.75-18.35-18.42-40.22-34.88-65-49a309.54,309.54,0,0,0-67.58-27.75A297.73,297.73,0,0,0,664,340.77c-6.26-.4-12.66-.61-19-.61-9.24,0-18.62.42-28.69,1.27-13.61,1.37-24,3.16-30.39,4.43l-11.75,2.47-9.62-40.65,13.2-2.79c10.65-2.11,22.29-3.8,34.63-5,11.4-1,22.07-1.46,32.63-1.46,7.27,0,14.59.24,21.74.69a339.64,339.64,0,0,1,69.49,11.78,351.05,351.05,0,0,1,76.91,31.58c28.15,15.94,53.07,34.71,74.08,55.78,4.66,4.44,9.11,9.33,13.42,14.06l3.29,3.62,3.54,4.23c4.05,4.81,8.23,9.79,12,15,4.5,5.78,8.69,12,12.74,18.06l1.59,2.35,2.28,3.71c3.6,5.82,7.31,11.83,10.55,18,3.48,6.14,6.6,12.67,9.6,19l2.81,6.13c3,6.89,6,14,8.55,21.27a326.46,326.46,0,0,1,13.92,49.33,336.73,336.73,0,0,1,6.4,50.87,336.76,336.76,0,0,1-10.1,100.23c-.62,2.63-1.39,5.27-2.15,7.82-.4,1.36-.8,2.72-1.17,4.07L972.71,742c-.39,1.3-.83,2.58-1.28,3.86-.23.66-.46,1.31-.68,2l-4,11.5-4.52,11.23-.76,1.89c-.5,1.24-1,2.48-1.55,3.69l-2.5,5.42c-.57,1.2-1.12,2.39-1.66,3.58-1.11,2.41-2.22,4.81-3.4,7.17-1,2-2.06,3.89-3.06,5.83-2.57,4.91-5.21,10-8.18,14.74-7.92,13.92-17.29,26.78-25.41,37.52a341.08,341.08,0,0,1-118.39,96.07q-2.4,1.13-4.69,2.24c-3.13,1.51-6.09,2.94-9.11,4.21l-13,5.46-3,1.11c-7.29,2.69-14.19,5.22-20.59,7.08a326,326,0,0,1-33.84,8.7c-4.35.94-7.16,1.48-9.09,1.75Zm-4.35-39.33,6.2,36.76,2-.33c1.9-.26,4.66-.79,9-1.72a322.81,322.81,0,0,0,33.65-8.65c6.35-1.85,13.21-4.37,20.47-7l3-1.09,13-5.44c3-1.25,5.9-2.67,9-4.16,1.55-.75,3.11-1.5,4.7-2.24A339.26,339.26,0,0,0,913.94,849c8.06-10.67,17.37-23.46,25.25-37.3,2.94-4.72,5.57-9.76,8.11-14.64q1.51-2.91,3.07-5.82c1.15-2.3,2.24-4.68,3.35-7.07.55-1.2,1.1-2.4,1.66-3.59l2.5-5.41c.53-1.17,1-2.38,1.5-3.59.25-.63.51-1.27.77-1.9l4.5-11.17,4-11.43c.22-.66.45-1.33.68-2,.44-1.25.87-2.49,1.25-3.76l1.72-5.89c.37-1.35.78-2.72,1.18-4.09.74-2.52,1.51-5.12,2.12-7.72a335,335,0,0,0,10-99.6,335,335,0,0,0-6.35-50.55,324.47,324.47,0,0,0-13.84-49c-2.51-7.18-5.55-14.27-8.49-21.13l-1-2.4-1.74-3.65c-3-6.28-6.09-12.77-9.55-18.88-3.22-6.17-6.92-12.16-10.49-17.94l-3.82-6c-4-6-8.2-12.21-12.68-18-3.75-5.21-7.91-10.15-11.93-14.93-1.17-1.4-2.35-2.8-3.51-4.2l-3.27-3.58c-4.27-4.7-8.7-9.57-13.32-14-20.89-20.95-45.65-39.59-73.61-55.43A348.77,348.77,0,0,0,735.56,313a337.76,337.76,0,0,0-69-11.69c-7.11-.45-14.37-.69-21.6-.69-10.49,0-21.1.48-32.42,1.45-12.25,1.22-23.82,2.9-34.38,5l-10.93,2.3,8.59,36.29,9.6-2c6.41-1.27,16.92-3.08,30.63-4.46,10.15-.86,19.6-1.28,28.9-1.28,6.42,0,12.87.21,19.17.61a299.4,299.4,0,0,1,61.4,10.41,311.3,311.3,0,0,1,68.09,27.95c25,14.19,47,30.78,65.49,49.32,3.94,3.73,7.69,7.86,11.32,11.84,1.15,1.26,2.29,2.52,3.45,3.78,1.22,1.47,2.42,2.9,3.61,4.32,3.42,4.07,6.95,8.28,10.13,12.72,3.78,4.83,7.3,10.05,10.7,15.11l2,2.92,2.5,4.06c3,4.9,6.14,10,8.85,15.2,2.95,5.17,5.58,10.67,8.12,16l1.94,4.05,1.35,3.15c2.47,5.78,5,11.76,7.13,17.85a288.43,288.43,0,0,1,12.33,43.65,300.14,300.14,0,0,1,5.66,45,314,314,0,0,1-1.17,45,310.63,310.63,0,0,1-7.76,43.61c-.52,2.28-1.2,4.56-1.86,6.77-.37,1.25-.73,2.49-1.08,3.73l-1.51,5.23c-.34,1.15-.74,2.27-1.13,3.4-.21.58-.42,1.17-.61,1.76l-3.52,10.16-4,9.94c-.25.6-.48,1.19-.72,1.77-.42,1.08-.85,2.14-1.32,3.18l-2.23,4.8c-.54,1.15-1.07,2.3-1.6,3.45-.94,2-1.87,4.07-2.87,6.07s-2,3.8-3,5.69c-2.18,4.18-4.43,8.5-7,12.55-6.34,11.18-13.57,21.35-22.46,33.17A301.52,301.52,0,0,1,779.65,911c-1.53.71-3,1.43-4.47,2.13-2.66,1.29-5.17,2.5-7.74,3.58l-11.52,4.83L752.09,923c-6,2.21-11.73,4.3-17.08,5.84a285.18,285.18,0,0,1-29.94,7.7c-3.88.84-6.37,1.32-8.05,1.55Z"/></g><g class="cls-4"><path class="cls-5" d="M644,1023.44a388.05,388.05,0,0,1-254-95.06l-10.59-9.51c-2.65-2.53-5.23-5.08-7.79-7.63l-2.34-2.32c-3.29-3.16-6.39-6.56-9.39-9.85l-.35-.39c-.95-1-1.9-2.09-2.86-3.12-2.18-2.37-4.43-4.82-6.48-7.38l-8.85-10.69c-2.1-2.68-4.11-5.38-6.12-8.07l-2.24-3c-2.81-3.66-5.35-7.4-7.93-11.23-.82-1.25-1.65-2.47-2.49-3.69-1.69-2.49-3.45-5.06-5-7.71A398.83,398.83,0,0,1,292.41,797l-2-4.64c-2.69-6.27-5.47-12.76-7.74-19.24-.46-1.29-.94-2.57-1.42-3.85-1-2.63-2-5.34-2.84-8.06l-3.75-11.87a386.27,386.27,0,0,1-15.62-91.68A377.58,377.58,0,0,1,278.2,520l3.91-11.29c.85-2.4,1.76-4.63,2.64-6.79.42-1,.82-2,1.21-3,2.27-5.68,4.47-11.12,6.51-15.31l6.29-13.51,19.86,9.71-6,12.84c-1.88,3.86-3.88,8.8-6.12,14.4-.37.94-.76,1.91-1.17,2.9-.82,2-1.67,4.1-2.45,6.32L299.21,527a355.59,355.59,0,0,0-18,129.69,364.42,364.42,0,0,0,14.73,86.42l3.55,11.24c.77,2.5,1.71,5,2.62,7.44.47,1.26.94,2.52,1.39,3.79,2.08,5.93,4.64,11.9,7.11,17.67q1,2.4,2.06,4.82a378.06,378.06,0,0,0,23.73,44.13c1.44,2.44,3.06,4.81,4.63,7.11.82,1.2,1.64,2.4,2.44,3.62,2.55,3.79,4.87,7.2,7.44,10.53l2.29,3.06c1.84,2.46,3.69,4.94,5.59,7.38L367.13,874c1.88,2.36,4,4.62,6,6.8.94,1,1.88,2,2.81,3.08l.42.46c2.79,3.06,5.67,6.22,8.71,9.14l2.65,2.62c2.29,2.27,4.58,4.54,6.91,6.78l10,9a364.62,364.62,0,0,0,301.22,84.32,353.91,353.91,0,0,0,48.89-11.91l5.9-1.86c1.25-.41,2.49-.86,3.74-1.32l13.41-4.91,13-5.43c1.19-.49,2.37-1,3.54-1.51l8.24-3.93c2.55-1.21,5.09-2.42,7.59-3.67l15.15-8.16,14.4-8.64a372.29,372.29,0,0,0,34.54-24.92,358.56,358.56,0,0,0,52.66-52.65l1.73-2.11c1.17-1.42,2.33-2.82,3.41-4.25l4.73-6.36c2.8-3.77,6-8,8.64-12.18q1.24-1.89,2.46-3.71c1.81-2.71,3.53-5.27,5.11-7.83l6.42-10.8c1.88-3.06,3.45-6,5-8.92l5.11-9.72c1.9-3.79,3.49-7.26,4.9-10.32.62-1.36,1.21-2.64,1.77-3.82,1.78-3.73,3-6.74,3.78-8.73l1.73-4.29,20.53,8.25-1.74,4.3c-.89,2.22-2.19,5.45-4.1,9.47-.58,1.22-1.18,2.54-1.82,3.93-1.5,3.27-3.2,7-5.25,11l-5.39,10.26c-1.62,3.07-3.29,6.24-5.3,9.52l-6.78,11.39c-1.74,2.81-3.59,5.59-5.56,8.53l-2.46,3.7c-2.67,4.16-5.62,8.17-9.19,13l-5,6.71c-1.18,1.57-2.44,3.09-3.71,4.64-.58.71-1.17,1.42-1.75,2.14a381,381,0,0,1-55.89,55.88,392,392,0,0,1-36.68,26.44l-15.26,9.17-16,8.64c-2.69,1.36-5.4,2.64-8.12,3.94l-8.67,4.11c-1.31.6-2.62,1.15-3.94,1.7l-13.57,5.69-14.16,5.18c-1.34.49-2.69,1-4.06,1.44l-6.22,2a374.29,374.29,0,0,1-51.86,12.64A386.84,386.84,0,0,1,644,1023.44ZM299.83,473.14l-5.32,11.44c-2,4.15-4.2,9.55-6.45,15.18l-1.22,3c-.87,2.13-1.77,4.34-2.6,6.69l-3.9,11.26a374.95,374.95,0,0,0-19,136.82,383.76,383.76,0,0,0,15.53,91.14l3.74,11.85c.83,2.67,1.83,5.35,2.8,8,.48,1.29,1,2.58,1.43,3.88,2.25,6.42,5,12.87,7.7,19.11l2,4.62a398.55,398.55,0,0,0,25,46.53c1.55,2.61,3.28,5.15,5,7.61.84,1.23,1.68,2.47,2.5,3.71,2.55,3.8,5.07,7.5,7.85,11.12l2.25,3c2,2.67,4,5.35,6.07,8L352,886.77c2,2.51,4.24,4.93,6.4,7.27,1,1,1.92,2.09,2.86,3.15l.35.37c3,3.27,6.05,6.64,9.3,9.76l2.35,2.33c2.56,2.54,5.12,5.09,7.73,7.58l10.55,9.48a384.71,384.71,0,0,0,317.72,88.92,372.32,372.32,0,0,0,51.55-12.56l6.22-2c1.33-.44,2.65-.93,4-1.41l14.11-5.17,13.51-5.66c1.3-.55,2.59-1.09,3.87-1.67l8.65-4.1c2.71-1.29,5.4-2.57,8-3.9l16.75-9.07,14.4-8.65a393.23,393.23,0,0,0,36.45-26.28,379.41,379.41,0,0,0,55.56-55.55c.59-.73,1.18-1.44,1.77-2.16,1.25-1.52,2.48-3,3.65-4.56l5-6.7c3.55-4.77,6.47-8.74,9.12-12.86l2.47-3.72c2-2.93,3.8-5.69,5.51-8.45l6.78-11.38c2-3.23,3.63-6.37,5.23-9.41l5.38-10.23c2-4,3.71-7.71,5.21-11,.64-1.4,1.25-2.72,1.83-4,1.88-4,3.16-7.15,4-9.26l.94-2.32-16.35-6.57-.83,2.06c-.86,2.16-2.08,5.21-3.89,9-.56,1.18-1.14,2.45-1.76,3.8-1.42,3.08-3,6.57-5,10.41l-5.12,9.74c-1.53,2.91-3.11,5.93-5,9L954.85,832c-1.61,2.61-3.34,5.19-5.16,7.92l-2.45,3.68c-2.69,4.2-5.9,8.5-8.72,12.3l-4.73,6.37c-1.11,1.46-2.29,2.89-3.47,4.33-.58.7-1.15,1.39-1.72,2.1a361.44,361.44,0,0,1-53,53,374.47,374.47,0,0,1-34.78,25.09l-14.47,8.69-15.23,8.2c-2.55,1.27-5.1,2.49-7.67,3.71l-8.26,3.93c-1.2.54-2.41,1-3.61,1.55l-13,5.45-13.46,4.93c-1.27.46-2.54.92-3.82,1.34l-5.91,1.86a354.69,354.69,0,0,1-49.19,12,367.6,367.6,0,0,1-105.86,2.71,368.58,368.58,0,0,1-197.25-87.56l-10-9c-2.38-2.27-4.68-4.55-7-6.83l-2.64-2.61c-3.08-3-6-6.15-8.8-9.24l-.43-.47c-.92-1-1.86-2-2.79-3.05-2-2.22-4.15-4.51-6.07-6.91L357,865.27c-1.93-2.48-3.79-5-5.64-7.45l-2.28-3c-2.6-3.38-4.95-6.82-7.52-10.66-.8-1.21-1.62-2.4-2.43-3.59-1.59-2.33-3.23-4.74-4.69-7.21A378.86,378.86,0,0,1,310.56,789l-2.07-4.85c-2.49-5.81-5.07-11.81-7.16-17.81-.45-1.25-.92-2.5-1.38-3.75-.92-2.46-1.88-5-2.66-7.55l-3.56-11.26a366.51,366.51,0,0,1-14.82-87,357.64,357.64,0,0,1,18.16-130.51l3.71-10.7c.8-2.28,1.66-4.39,2.49-6.43.4-1,.79-1.94,1.16-2.89,2.26-5.63,4.27-10.62,6.18-14.53l5-10.83Z"/></g><g class="cls-4"><path class="cls-5" d="M552,941.05l-2.56-.73-11.32-3.86-1.55-.53c-.92-.31-1.89-.64-2.88-1l-4.93-2a308.32,308.32,0,0,1-55.1-27.87l-3.55-2.33c-4.25-2.78-8.65-5.65-12.95-8.93-.94-.7-1.91-1.4-2.88-2.1-1.83-1.33-3.73-2.7-5.55-4.17l-8.39-6.8c-2-1.51-3.84-3.22-5.67-4.88-.9-.82-1.8-1.64-2.72-2.44L430,871.71c-2.16-1.93-4.39-3.92-6.48-6.08l-8.23-8.16-8-8.77a331.64,331.64,0,0,1-29.76-39.15,326.5,326.5,0,0,1-23.77-44.79c-12.88-29.15-21.42-62.45-24.69-96.28a343.81,343.81,0,0,1-.81-45.87l1.52-17.52,1.82-13.67,1.76-9.62a304.48,304.48,0,0,1,17.47-59c2.07-5.38,4.08-9.67,5.69-13.12.45-1,.87-1.86,1.24-2.67l3.05-6.57,12.88,6.3-2.92,6.31c-.36.8-.78,1.68-1.23,2.65-1.54,3.27-3.44,7.34-5.39,12.43a289.54,289.54,0,0,0-16.68,56.3l-1.69,9.19-1.93,14.49-1.26,15.29a329.24,329.24,0,0,0,.78,43.77c3.13,32.33,11.28,64.12,23.57,91.92a312.73,312.73,0,0,0,22.7,42.78A319,319,0,0,0,418,839.25l7.67,8.37,7.89,7.82c1.95,2,4,3.89,6.08,5.71l1.89,1.69c.9.78,1.79,1.6,2.68,2.41,1.79,1.61,3.47,3.15,5.29,4.54l8.08,6.56c1.68,1.36,3.45,2.63,5.15,3.87,1,.7,2,1.4,2.9,2.11,4,3.09,8.2,5.8,12.22,8.43l3.52,2.3A294.49,294.49,0,0,0,534,919.68l4.73,1.88c1,.37,1.88.68,2.77,1l14.73,4.89ZM361.89,503.49,359.81,508c-.37.81-.79,1.71-1.25,2.68-1.59,3.42-3.59,7.67-5.63,13a301.1,301.1,0,0,0-17.35,58.57l-1.75,9.55L331.64,609l-1.13,13.78a342.13,342.13,0,0,0,.81,45.53c3.24,33.58,11.72,66.64,24.5,95.59A306.43,306.43,0,0,0,409,847.21l8.44,9.17,7.75,7.68c2,2.12,4.25,4.08,6.38,6l1.91,1.72c.92.8,1.83,1.63,2.74,2.45,1.88,1.71,3.65,3.31,5.56,4.78l8.41,6.82c1.77,1.44,3.64,2.79,5.44,4.1,1,.7,2,1.41,2.92,2.13,4.25,3.24,8.61,6.08,12.83,8.84l3.54,2.33a307.46,307.46,0,0,0,54.7,27.66l4.92,2c1,.36,1.89.68,2.79,1l1.57.54,11.63,3.94,2.92-9.35-1.13-.36-11.49-3.92c-.92-.31-1.88-.63-2.88-1l-4.73-1.89a297.05,297.05,0,0,1-53-26.82l-3.51-2.31c-4.06-2.65-8.26-5.38-12.36-8.52-.93-.69-1.89-1.38-2.85-2.08-1.74-1.25-3.53-2.55-5.25-3.95l-8.07-6.53c-1.86-1.44-3.66-3.07-5.4-4.65-.88-.8-1.76-1.6-2.66-2.39l-1.89-1.7c-2.07-1.83-4.2-3.74-6.19-5.8l-7.91-7.84-7.72-8.43a319,319,0,0,1-28.62-37.65A315.57,315.57,0,0,1,364.87,760c-12.38-28-20.59-60-23.74-92.62a332.57,332.57,0,0,1-.79-44.11l1.46-16.86,1.76-13.18,1.69-9.19a290.75,290.75,0,0,1,16.81-56.72c2-5.14,3.88-9.25,5.43-12.55l1.23-2.64,2-4.33Z"/></g><g class="cls-4"><path class="cls-5" d="M376.89,658.2l-.47-7-.12-6.85c0-.95,0-1.92-.05-2.92-.05-1.9-.11-3.86,0-6a255.43,255.43,0,0,1,5.12-47.22A265.89,265.89,0,0,1,395,542.59l1.35-3.36c.69-1.74,1.34-3.38,2-4.87l5.38-11.61,6-11.36c.79-1.45,1.7-3,2.67-4.58.6-1,1.22-2,1.84-3.1a267.41,267.41,0,0,1,28.05-38.55,258.75,258.75,0,0,1,34.56-32.88c1.57-1.36,3.17-2.52,4.72-3.63.81-.59,1.6-1.16,2.33-1.73l5.52-4.07,5.94-4,22.1,32.66L512.26,455l-4.66,3.46c-.64.5-1.36,1-2.1,1.55a47.86,47.86,0,0,0-3.89,3,218.48,218.48,0,0,0-29.45,28,227.7,227.7,0,0,0-23.87,32.83c-.57,1-1.15,1.94-1.7,2.85-.78,1.29-1.52,2.51-2.16,3.68l-5.14,9.75-4.61,10c-.53,1.19-1.05,2.51-1.61,3.91-.39,1-.8,2-1.25,3.1a227.36,227.36,0,0,0-11.6,38.82,216.89,216.89,0,0,0-4.36,40.21,48.47,48.47,0,0,0,0,5c0,.92.06,1.79.05,2.62l.09,5.83.43,6.15ZM494.76,422l-4,2.68-5.45,4c-.73.56-1.54,1.14-2.38,1.75-1.5,1.09-3.06,2.21-4.61,3.55A256.7,256.7,0,0,0,444,466.63a265.2,265.2,0,0,0-27.8,38.22c-.63,1.07-1.25,2.11-1.85,3.11-1,1.58-1.85,3.07-2.62,4.48l-6,11.3-5.35,11.55c-.65,1.44-1.29,3.05-2,4.77-.43,1.08-.88,2.21-1.36,3.37a263.56,263.56,0,0,0-13.49,45.19,253.51,253.51,0,0,0-5.09,46.85c-.12,2.1-.07,4,0,5.86,0,1,.06,2,.05,3l.12,6.78.32,4.75,35-2.23-.29-5.25-.07-4.63c0-.83,0-1.68-.05-2.56a48.6,48.6,0,0,1,0-5.11,218.65,218.65,0,0,1,4.4-40.56,226.44,226.44,0,0,1,11.73-39.23c.44-1.07.84-2.09,1.23-3.08.57-1.43,1.1-2.78,1.66-4l4.63-10,5.18-9.81c.66-1.21,1.41-2.46,2.22-3.79.54-.9,1.11-1.84,1.68-2.82a228,228,0,0,1,24.12-33.18,221,221,0,0,1,29.71-28.26c1.32-1.16,2.75-2.18,4-3.09.72-.51,1.41-1,2.05-1.51l4.74-3.51,3.37-2.24Z"/></g><g class="cls-4"><path class="cls-5" d="M644.18,920.34a281.69,281.69,0,0,1-63-7.1,277,277,0,0,1-46.17-14.8,281.24,281.24,0,0,1-74-45.21c-1.57-1.35-3.09-2.72-4.6-4.08l-2.7-2.42-3.56-3.18-9.93-9.84-6.06-6.63a273,273,0,0,1-35.56-49.37,276.26,276.26,0,0,1-16-33.24l-.88-2.11-3.58-9.69c-.44-1.14-.74-2-.94-2.6h-6.08l30.63-10.21.32,1.14s.29,1,1,2.94l4.22,11.12A252,252,0,0,0,454,809.53l5.5,6,9,8.91,3.2,2.85c.89.78,1.77,1.57,2.65,2.38,1.31,1.18,2.62,2.37,4,3.53a254.77,254.77,0,0,0,67.07,41,250.22,250.22,0,0,0,41.83,13.4A255.07,255.07,0,0,0,894.3,691.78a252.27,252.27,0,0,0,.44-100.24,252.7,252.7,0,0,0-91.6-149.84c-1.7-1.46-3.49-2.75-5.24-4-.86-.62-1.72-1.24-2.57-1.88l-1.11-.82c-2.25-1.66-4.38-3.23-6.65-4.63l-7.86-5.17-7.86-4.59c-2.66-1.65-5.5-3.1-7.79-4.27l-3.07-1.6c-1.55-.82-3.1-1.63-4.65-2.39l-11.43-5.24-3.73-1.47A256.41,256.41,0,0,0,688,390.32c-3.24-.67-6.33-1.06-9.31-1.44l-2.5-.33c-3-.4-5.82-.79-8.46-.93l-8.31-.68c-1.49-.08-2.94-.12-4.3-.16l-2.56-.08-6.33-.2c-.66,0-1.26,0-1.82,0l-1.24,0-4.35.08-.46-26.3,4.67-.07,1.31,0c.91,0,1.94,0,3.08,0l6,.2,2.59.08c1.57,0,3.23.09,5,.18l9.1.75c3.05.18,6.29.61,9.73,1.08l2.24.29c3.36.43,6.84.87,10.5,1.62a282.8,282.8,0,0,1,58.64,16.9l5.9,2.45,10.8,5c1.78.87,3.53,1.79,5.29,2.72l3.21,1.67c2.53,1.29,5.69,2.91,8.64,4.73l8.63,5.06,8.63,5.66c2.57,1.59,5.08,3.44,7.51,5.23l1.13.83c.89.67,1.79,1.32,2.7,2,2,1.42,4,2.9,5.93,4.54A279,279,0,0,1,920.7,586.46a278.66,278.66,0,0,1-.49,110.68,280.08,280.08,0,0,1-130,182.63,285.41,285.41,0,0,1-104.85,37.54A281.08,281.08,0,0,1,644.18,920.34ZM379.53,729.66q.27.81.81,2.22l4.44,11.74a273.53,273.53,0,0,0,15.86,33,270.4,270.4,0,0,0,35.27,49l6,6.6,9.85,9.75,3.52,3.14,2.7,2.43c1.5,1.35,3,2.71,4.55,4a279,279,0,0,0,73.39,44.85,274.59,274.59,0,0,0,45.79,14.68A279.23,279.23,0,0,0,918,696.69a276.44,276.44,0,0,0,.49-109.79,276.86,276.86,0,0,0-100.31-164c-1.88-1.61-3.88-3.05-5.82-4.45-.91-.66-1.83-1.31-2.72-2l-1.13-.83c-2.5-1.84-4.87-3.58-7.38-5.15l-8.6-5.64-8.6-5c-2.9-1.79-6-3.38-8.51-4.66l-3.23-1.68c-1.74-.92-3.48-1.83-5.21-2.68l-13.85-6.26-2.73-1.08a280.7,280.7,0,0,0-58.2-16.78c-3.62-.74-7.06-1.17-10.38-1.6l-2.25-.29c-3.39-.46-6.6-.89-9.59-1.06l-9.1-.75c-1.71-.09-3.36-.14-4.9-.18l-2.61-.08-6-.21c-1.08,0-2.09,0-3,0l-1.35,0-2.4,0,.39,21.81,2.11,0,1.21,0c.57,0,1.19,0,1.87,0l6.41.2,2.55.08c1.37,0,2.84.08,4.38.16l8.32.69c2.7.14,5.57.53,8.6.94l2.48.32c3,.39,6.16.78,9.45,1.47A258,258,0,0,1,742,403.56l5.05,2.08,10.23,4.69c1.6.78,3.16,1.6,4.74,2.43,1,.53,2,1.07,3,1.59,2.86,1.46,5.42,2.79,7.93,4.34l7.88,4.61,7.89,5.18c2.32,1.44,4.58,3.11,6.78,4.72l1.11.82c.85.64,1.7,1.25,2.55,1.86,1.78,1.28,3.62,2.61,5.34,4.09A255,255,0,0,1,897,591.11a254.67,254.67,0,0,1-.45,101.13,256,256,0,0,1-118.83,167,258.93,258.93,0,0,1-191,30.61,252.79,252.79,0,0,1-42.2-13.53,287.25,287.25,0,0,1-36.9-18.95,291.47,291.47,0,0,1-30.75-22.39c-1.38-1.18-2.71-2.38-4-3.58-.87-.79-1.75-1.58-2.63-2.35l-3.25-2.9-9.07-9L452.28,811a254.06,254.06,0,0,1-46.95-75.11l-1-2.33-3.28-8.87c-.32-.83-.56-1.5-.74-2Z"/></g><g class="cls-4"><path class="cls-5" d="M644.38,876.88A239.06,239.06,0,0,1,601.64,873a238.21,238.21,0,0,1-132.77-72.72,234.55,234.55,0,0,1-38-55.08,239.61,239.61,0,0,1-16.7-44.06l-1.89-7.36L410,682.56l20.91-3.88L433,689l1.74,6.71A217.48,217.48,0,0,0,450,735.87,213.28,213.28,0,0,0,484.54,786a217.91,217.91,0,0,0,159.83,69.71,209.94,209.94,0,0,0,22.2-1.16A214.38,214.38,0,0,0,709,845.83c4.24-1.25,7.65-2.52,10.14-3.44l6.39-2.37,7.87,19.64-6.84,2.55c-2.75,1-6.51,2.4-11.19,3.79a235.72,235.72,0,0,1-46.57,9.59A229.6,229.6,0,0,1,644.38,876.88ZM412.63,684.35l1.88,8.95,1.88,7.3a237.07,237.07,0,0,0,16.55,43.64,232.23,232.23,0,0,0,37.59,54.56,237.18,237.18,0,0,0,173.85,75.84,225.24,225.24,0,0,0,24.16-1.28,232.81,232.81,0,0,0,46.14-9.5c4.64-1.37,8.35-2.75,11.07-3.75l4.69-1.74-6.21-15.48-4.32,1.6c-2.52.93-6,2.21-10.27,3.48a216,216,0,0,1-42.83,8.82A209.15,209.15,0,0,1,644.37,858a219.48,219.48,0,0,1-39.32-3.54,219.24,219.24,0,0,1-122.17-66.91A215.72,215.72,0,0,1,448,736.86a221.49,221.49,0,0,1-15.38-40.57l-1.75-6.77-1.72-8.24Z"/></g><g class="cls-4"><path class="cls-5" d="M545.31,821l-7.4-4.26c-5.64-3.34-11.53-7.25-17.51-11.62a214.58,214.58,0,0,1-24.59-21.44,202,202,0,0,1-26.26-33.11A208.43,208.43,0,0,1,448,705.66a204.18,204.18,0,0,1-10.46-54.59c-.28-4-.28-8-.28-12v-2.58l.12-3c.15-3.88.31-7.89.75-11.87a204.89,204.89,0,0,1,14.42-58.78,196.68,196.68,0,0,1,13.78-27.6,205.42,205.42,0,0,1,39-47.46,214.28,214.28,0,0,1,23.95-18.53,204.69,204.69,0,0,1,25.75-14.49,210.83,210.83,0,0,1,53.1-17,214.11,214.11,0,0,1,50.09-2.67,209.52,209.52,0,0,1,41.74,7.2,199.51,199.51,0,0,1,30.65,11.21,197.19,197.19,0,0,1,18.64,9.67c2.27,1.3,3.79,2.21,4.77,2.87l2.52,1.61L734,502.87l-2.23-1.43c-.74-.51-1.89-1.2-3.76-2.25a152.72,152.72,0,0,0-14.88-7.73,165.39,165.39,0,0,0-57.72-14.69,172,172,0,0,0-39.86,2.13,168.65,168.65,0,0,0-42.38,13.58A166.85,166.85,0,0,0,552.59,504a170.65,170.65,0,0,0-19.05,14.74,163.66,163.66,0,0,0-31,37.81,156.85,156.85,0,0,0-11,22A163.55,163.55,0,0,0,480,625.47c-.35,2.92-.46,5.88-.57,8.74,0,1-.08,2.06-.13,3.08v2.78c0,2.9,0,5.9.22,8.79a163.09,163.09,0,0,0,8.33,43.5A166.78,166.78,0,0,0,505,728.18a163.31,163.31,0,0,0,40.48,43.42c6,4.38,10.9,7.45,13.94,9.25l6.12,3.53ZM644.56,436.9a212.62,212.62,0,0,0-36,3.09A208.85,208.85,0,0,0,556,456.8a203.31,203.31,0,0,0-25.47,14.34,213.79,213.79,0,0,0-23.68,18.33,203.13,203.13,0,0,0-38.57,46.94,203.19,203.19,0,0,0-27.9,85.45c-.43,3.92-.59,7.9-.74,11.74l-.11,2.93v2.54c0,3.91,0,8,.28,11.87a202,202,0,0,0,10.34,54,207,207,0,0,0,21.29,44.39,200.53,200.53,0,0,0,26,32.73,211.61,211.61,0,0,0,24.32,21.21c5.91,4.32,11.73,8.19,17.3,11.49l5.4,3.1,18.09-32.65-4.22-2.43c-3.1-1.84-8.05-4.95-14.15-9.4a165.43,165.43,0,0,1-41-44,169.14,169.14,0,0,1-17.41-36.3A165.68,165.68,0,0,1,477.28,649c-.22-3-.22-6-.23-8.93v-2.82c0-1.09.09-2.11.13-3.13.12-2.9.23-5.9.58-8.88a166.33,166.33,0,0,1,11.65-47.49,159.49,159.49,0,0,1,11.15-22.32A165.73,165.73,0,0,1,532,517.1a173.67,173.67,0,0,1,19.32-15,169.59,169.59,0,0,1,20.8-11.7,171.63,171.63,0,0,1,42.94-13.76,174.59,174.59,0,0,1,40.42-2.16A167.65,167.65,0,0,1,714,489.43a155.16,155.16,0,0,1,15.06,7.82c1.93,1.09,3.1,1.79,3.88,2.32l.3.2,20.18-31.43-.64-.41c-1-.64-2.44-1.53-4.68-2.8a192.22,192.22,0,0,0-18.44-9.58,196.88,196.88,0,0,0-30.31-11.08,208.15,208.15,0,0,0-41.29-7.13C653.63,437.05,649.08,436.9,644.56,436.9Z"/></g><g class="cls-4"><path class="cls-5" d="M735.13,870.07l-8.19-20.43,8.53-3.62c2.34-.95,5.12-2.28,8.86-4.11s8.08-4.12,11.73-6.16a224.91,224.91,0,0,0,62.83-52.5,227.5,227.5,0,0,0,29.47-46,222.93,222.93,0,0,0,18.69-57.92,224.43,224.43,0,0,0-101.94-229c-32.91-20.67-71.9-32.94-109.81-34.54A226.93,226.93,0,0,0,574,426.57c-3.34,1-6.4,2.18-9.1,3.19-1.17.44-2.3.86-3.39,1.25-2.55,1-4.82,2-6.8,2.82l-2.2.94c-2.41,1-4.24,1.89-5.45,2.48l-2.93,1.42-9.68-19.78,3.05-1.48c1.37-.67,3.4-1.65,6.08-2.77l2.29-1c2.2-.94,4.71-2,7.58-3.14,1.14-.41,2.3-.84,3.5-1.29,3-1.13,6.43-2.41,10.17-3.57a245.86,245.86,0,0,1,38.24-9.18,249.23,249.23,0,0,1,51-2.75C698,395.51,740.84,409,776.92,431.65A245.93,245.93,0,0,1,888.85,683.11a244.44,244.44,0,0,1-20.52,63.58A249.15,249.15,0,0,1,836,797.22a246.19,246.19,0,0,1-69,57.66c-5.5,3.08-9.47,5.17-12.89,6.77-4,1.94-7.12,3.45-9.74,4.52Zm-5.28-19.23,6.52,16.27,7.11-3c2.58-1.05,5.72-2.54,9.64-4.46,3.38-1.59,7.32-3.66,12.76-6.71a243.64,243.64,0,0,0,68.37-57.13,247.36,247.36,0,0,0,32-50.07,255.17,255.17,0,0,0,12.1-30.13,251.62,251.62,0,0,0,8.23-32.87,242.53,242.53,0,0,0-17.32-141.32,244.37,244.37,0,0,0-93.59-107.87C740,411.08,697.55,397.73,656.29,396a246.82,246.82,0,0,0-88.5,11.82c-3.7,1.15-7.08,2.42-10.06,3.53l-3.5,1.3c-2.82,1.1-5.31,2.17-7.48,3.1l-2.31,1c-2.63,1.1-4.62,2.07-5.94,2.71l-1.06.51,7.71,15.76.87-.42c1.26-.62,3.13-1.53,5.6-2.55l2.17-.93c2-.86,4.3-1.85,6.91-2.86l3.39-1.26c2.72-1,5.82-2.18,9.2-3.23A226.83,226.83,0,0,1,608.46,416a229.14,229.14,0,0,1,46.94-2.53c38.29,1.62,77.68,14,110.91,34.89a226.2,226.2,0,0,1,103,231.31,234.55,234.55,0,0,1-7.64,30.53,237,237,0,0,1-11.24,28,226.84,226.84,0,0,1-93.22,99.52c-3.69,2.07-8,4.42-11.86,6.23s-6.59,3.19-9,4.16Z"/></g><g class="cls-4"><path class="cls-5" d="M709.53,806.22,704.22,793l5.45-2.33c1.82-.77,4.09-1.72,6.74-3.07a160.13,160.13,0,0,0,27.5-16.76,170,170,0,0,0,16.32-14,183.06,183.06,0,0,0,15.8-18A165.31,165.31,0,0,0,800.31,693a169.68,169.68,0,0,0,6.55-25.59,171.86,171.86,0,0,0,2.24-25.47,163.64,163.64,0,0,0-5.87-44.83,157.9,157.9,0,0,0-11.52-29.93c-1.12-2.39-2.23-4.34-3.12-5.92-.44-.77-.83-1.45-1.15-2.06-1-1.76-1.54-2.68-1.55-2.7l-.63-1,12.35-7.29.59.92s.66,1,1.75,3c.33.62.72,1.31,1.16,2.08,1,1.74,2.21,3.9,3.46,6.55a173.12,173.12,0,0,1,12.51,32.49A177.67,177.67,0,0,1,823.46,642a174,174,0,0,1-9.55,55.49,179.72,179.72,0,0,1-26.4,49.81,194.5,194.5,0,0,1-17.18,19.6,176,176,0,0,1-17.76,15.26,174.19,174.19,0,0,1-29.86,18.2c-2.93,1.49-5.43,2.54-7.43,3.39Zm-2.41-12.05,3.65,9.1,3.63-1.55c2-.83,4.42-1.86,7.31-3.33a171.53,171.53,0,0,0,29.51-18,174.35,174.35,0,0,0,17.53-15.06,192,192,0,0,0,17-19.35,177.25,177.25,0,0,0,26.06-49.17,181.29,181.29,0,0,0,7-27.46A183.39,183.39,0,0,0,821.21,642a176,176,0,0,0-6.3-48.15,170.49,170.49,0,0,0-12.37-32.1c-1.22-2.6-2.43-4.73-3.4-6.43-.45-.79-.85-1.5-1.18-2.13-.45-.83-.83-1.49-1.1-2l-8.47,5c.27.46.62,1.08,1,1.86.32.6.69,1.27,1.12,2,.91,1.61,2,3.61,3.18,6a160.24,160.24,0,0,1,11.68,30.31,166.12,166.12,0,0,1,6,45.45,175.1,175.1,0,0,1-2.28,25.81,172.05,172.05,0,0,1-6.63,25.93,167.59,167.59,0,0,1-24.62,46.46,183.2,183.2,0,0,1-16,18.28,173.63,173.63,0,0,1-16.55,14.22,161.77,161.77,0,0,1-27.84,17c-2.7,1.38-5,2.35-6.87,3.14Z"/></g><g class="cls-4"><path class="cls-5" d="M643.93,770.37h0c-2.7,0-5.24-.09-7.55-.26-2-.12-3.88-.3-5.42-.45-.82-.08-1.56-.16-2.2-.21l-4-.59,5.61-39,3.16.49,1.83.16c1,.1,2.18.22,3.48.29a87.43,87.43,0,0,0,16.2-.47,91.53,91.53,0,0,0,15.9-3.39c.48-.16,1-.3,1.43-.44s1-.3,1.49-.46l4.2-1.54,4.09-1.75c.42-.18.87-.41,1.36-.65s.89-.46,1.37-.68a90.59,90.59,0,0,0,13.87-8.4,85.69,85.69,0,0,0,12.07-10.72c.91-1,1.68-1.84,2.34-2.6.48-.55.91-1,1.28-1.44l1.9-2.44,31,24.45-2.48,3.14c-.47.52-1,1.06-1.47,1.67-1,1.17-2.24,2.57-3.67,4.08a125.68,125.68,0,0,1-17.39,15.45,130.11,130.11,0,0,1-20,12.09l-1.61.79c-.82.4-1.59.78-2.32,1.11l-5.76,2.45-5.94,2.18c-.75.26-1.55.51-2.41.77l-1.76.54a130.07,130.07,0,0,1-22.86,4.86A134.32,134.32,0,0,1,643.93,770.37ZM627.26,767l1.76.26c.57,0,1.33.11,2.17.2,1.51.15,3.31.33,5.34.45a127.17,127.17,0,0,0,22.92-.67,130,130,0,0,0,22.44-4.77l1.79-.56c.82-.25,1.59-.48,2.3-.73l6.06-2.23,5.5-2.35c.69-.3,1.43-.67,2.21-1.06l1.64-.8A127.65,127.65,0,0,0,721,742.84a123,123,0,0,0,17.09-15.17c1.41-1.5,2.61-2.87,3.61-4,.54-.61,1-1.17,1.45-1.64l1-1.33L716.68,699l-.57.73c-.43.46-.84.93-1.3,1.46-.67.78-1.46,1.68-2.38,2.65a88.39,88.39,0,0,1-12.38,11,92.82,92.82,0,0,1-14.24,8.63c-.48.22-.92.44-1.33.65s-1,.51-1.49.72l-4.14,1.77h0l-.65.24-3.63,1.33c-.52.19-1.05.34-1.62.51l-1.38.42a92.62,92.62,0,0,1-16.33,3.49,91.18,91.18,0,0,1-16.62.47c-1.31-.07-2.51-.19-3.55-.29-.69-.07-1.31-.13-1.84-.16l-1-.16Z"/></g><g class="cls-4"><path class="cls-5" d="M549.92,749.34l-2.22-1.92c-1-.82-2.48-2.23-3.91-3.62a138,138,0,0,1-13.51-14.88,143.2,143.2,0,0,1-28.72-112.71,144.2,144.2,0,0,1,57.12-91.93,145.6,145.6,0,0,1,165.74-3.61,143.93,143.93,0,0,1,58.94,80.25,161.34,161.34,0,0,1,4.34,20.83,146.28,146.28,0,0,1,1.18,19.17A142.1,142.1,0,0,1,780,689.81l-.45,1.28-2,4.93c-.44,1.16-.74,1.75-.74,1.75l-.48.94-24.27-10.5.55-1.07a11.17,11.17,0,0,0,.53-1.26l2.15-5.5a115.61,115.61,0,0,0,7.14-39.59,119.6,119.6,0,0,0-1-15.64,136.29,136.29,0,0,0-3.54-17A119,119,0,0,0,741,572.88a117.72,117.72,0,0,0-31.23-30.31,118.87,118.87,0,0,0-135.47,2.94,118,118,0,0,0-46.66,75.13,116.46,116.46,0,0,0-.06,38.89,118.44,118.44,0,0,0,10.06,31.54,117,117,0,0,0,13.48,21.64,111.15,111.15,0,0,0,11,12.13c1.37,1.34,2.41,2.34,3.15,2.93l2,1.74Zm94.16-250.58A141.83,141.83,0,0,0,613,502.2a144.4,144.4,0,0,0-53,23.89,141.2,141.2,0,0,0-28,201.44,135.32,135.32,0,0,0,13.29,14.64c1.42,1.38,2.84,2.75,3.81,3.53l.55.48,14.42-16.45-.29-.25c-.78-.62-1.83-1.62-3.26-3a113.67,113.67,0,0,1-11.22-12.36A119.51,119.51,0,0,1,573,543.7a121.23,121.23,0,0,1,138-3,120,120,0,0,1,49.07,66.84,139.42,139.42,0,0,1,3.61,17.33,120.87,120.87,0,0,1,1,15.94,114.84,114.84,0,0,1-2.94,25.74,112.57,112.57,0,0,1-4.32,14.57l-.51,1.46-1.67,4.12-.15.38,20.13,8.71c.07-.17.15-.37.23-.59l2.43-6.13a139.85,139.85,0,0,0,5.27-17.69,136.64,136.64,0,0,0,3.48-30.48A141.64,141.64,0,0,0,785.46,622a157.78,157.78,0,0,0-4.27-20.49,141.71,141.71,0,0,0-58-79A144.08,144.08,0,0,0,671,501.33,141.84,141.84,0,0,0,644.08,498.76Z"/></g><g class="cls-6"><path class="cls-7" d="M644.37,945.43V934.22c4.39,0,8.86-.1,13.27-.29l.5,11.19C653.56,945.32,648.93,945.42,644.37,945.43Zm-13.76-.3c-4.57-.2-9.2-.5-13.74-.9l1-11.16c4.38.38,8.84.68,13.24.87Zm41.27-.93-1-11.16c4.39-.39,8.83-.88,13.19-1.46l1.5,11.1C681.05,943.28,676.44,943.8,671.88,944.2Zm-68.7-1.48c-4.52-.6-9.1-1.31-13.61-2.11l2-11c4.35.77,8.76,1.46,13.11,2Zm96-2.17-2-11c4.33-.77,8.7-1.66,13-2.63l2.51,10.92C708.21,938.82,703.67,939.74,699.18,940.55Zm-123.12-2.67c-4.44-1-8.93-2.12-13.36-3.32l3-10.81c4.27,1.16,8.6,2.24,12.88,3.21Zm150-3.42-3-10.8c4.25-1.16,8.52-2.44,12.71-3.79l3.48,10.66C734.89,931.93,730.45,933.25,726,934.46ZM549.5,930.63c-4.36-1.4-8.75-2.93-13-4.52l4-10.49c4.13,1.53,8.35,3,12.56,4.35ZM752.23,926l-4-10.49c4.1-1.53,8.24-3.18,12.29-4.9l4.43,10.3C760.78,922.7,756.49,924.41,752.23,926Zm-228.58-5c-4.2-1.78-8.43-3.69-12.57-5.67l4.89-10.1c4,1.91,8.07,3.75,12.11,5.47Zm253.84-5.75-4.89-10.09c3.94-1.89,7.91-3.91,11.79-6l5.35,9.86C785.71,911.2,781.59,913.29,777.49,915.25Zm-278.7-6.15c-4-2.15-8.05-4.43-12-6.77l5.79-9.62c3.8,2.26,7.69,4.46,11.55,6.52Zm302.91-6.82-5.8-9.62c3.77-2.24,7.55-4.6,11.22-7l6.22,9.34C809.53,897.5,805.61,900,801.7,902.28ZM475.12,895c-3.82-2.51-7.63-5.14-11.32-7.81l6.63-9.06c3.56,2.57,7.23,5.1,10.91,7.52Zm349.53-7.83L818,878.14c3.58-2.59,7.12-5.28,10.55-8l7,8.75C832,881.73,828.36,884.52,824.65,887.2Zm-371.82-8.28c-3.58-2.84-7.14-5.8-10.57-8.79l7.42-8.43c3.31,2.88,6.74,5.72,10.19,8.46Zm393.33-8.79-7.42-8.44c3.32-2.87,6.61-5.87,9.8-8.89l7.79,8.1C853,864,849.6,867.14,846.16,870.13ZM432.09,860.9c-3.33-3.16-6.61-6.42-9.75-9.68l8.15-7.74c3,3.14,6.18,6.27,9.39,9.32Zm434-9.68-8.15-7.75c3.05-3.16,6.06-6.43,9-9.73l8.48,7.38C872.36,844.54,869.23,847.94,866.07,851.22Zm-453-10.1c-3-3.41-6-6.94-8.83-10.49l8.8-7c2.75,3.42,5.61,6.82,8.51,10.12Zm471.16-10.5-8.81-7c2.75-3.42,5.46-7,8.06-10.49l9.11,6.6C889.88,823.4,887.06,827.06,884.21,830.62ZM395.87,819.76c-2.69-3.66-5.33-7.44-7.86-11.23l9.4-6.19c2.44,3.66,5,7.3,7.57,10.82Zm504.56-11.29-9.4-6.18c2.45-3.67,4.83-7.43,7.08-11.17l9.67,5.75C905.44,800.76,903,804.66,900.43,808.47ZM380.68,797c-2.34-3.87-4.63-7.87-6.81-11.87l9.92-5.33c2.1,3.86,4.31,7.71,6.56,11.44ZM914.6,785l-9.92-5.32c2.1-3.86,4.13-7.82,6.05-11.76l10.15,4.87C918.89,776.84,916.78,781,914.6,785Zm-547-12.05c-2-4.08-3.9-8.26-5.7-12.43l10.36-4.42c1.73,4,3.58,8.05,5.49,12Zm559-12.65-10.37-4.4c1.74-4.05,3.41-8.18,4.95-12.27l10.56,3.94C930.13,751.78,928.4,756.06,926.6,760.26ZM356.78,747.81c-1.62-4.26-3.15-8.61-4.56-12.92l10.71-3.47c1.37,4.15,2.85,8.34,4.4,12.44ZM936.3,734.57l-10.72-3.46c1.36-4.16,2.64-8.41,3.81-12.63l10.87,3C939,725.84,937.71,730.25,936.3,734.57Zm-588-12.79c-1.22-4.38-2.36-8.84-3.37-13.27l11-2.5c1,4.27,2.07,8.57,3.24,12.79Zm595.36-13.6-11-2.48c1-4.29,1.87-8.63,2.64-12.92l11.1,2C945.55,699.22,944.63,703.73,943.61,708.18ZM342.11,695.1c-.81-4.46-1.54-9-2.15-13.53l11.17-1.5c.59,4.35,1.29,8.73,2.08,13ZM948.5,681.24l-11.18-1.49c.59-4.33,1.08-8.74,1.47-13.11l11.23,1C949.62,672.17,949.1,676.75,948.5,681.24ZM338.42,668c-.41-4.51-.72-9.1-.93-13.65l11.27-.51c.2,4.39.5,8.81.89,13.16Zm612.52-14-11.27-.5c.2-4.34.29-8.78.29-13.18v-.65h11.28v.65C951.24,644.86,951.14,649.47,950.94,654ZM348.45,640.63H337.17v-.33c0-4.44.1-8.94.29-13.35l11.27.48c-.19,4.26-.28,8.59-.28,12.87Zm591.19-14.16c-.2-4.39-.51-8.82-.91-13.16l11.23-1c.41,4.5.73,9.09.94,13.65Zm-590-12.2-11.23-1c.4-4.54.91-9.12,1.51-13.6l11.18,1.48C350.47,605.48,350,609.89,349.59,614.27Zm587.65-14.06c-.6-4.35-1.3-8.73-2.09-13l11.09-2c.82,4.45,1.55,9,2.17,13.52ZM353.09,588.14l-11.1-2c.81-4.46,1.73-9,2.74-13.41l11,2.46C354.75,579.49,353.87,583.84,353.09,588.14Zm579.39-13.86c-1-4.28-2.09-8.58-3.27-12.78l10.87-3c1.22,4.36,2.35,8.82,3.38,13.27ZM358.94,562.42l-10.87-3c1.21-4.38,2.53-8.79,3.94-13.12l10.73,3.45C361.38,554,360.1,558.2,358.94,562.42Zm566.44-13.54c-1.37-4.18-2.86-8.36-4.41-12.44l10.55-4c1.61,4.23,3.15,8.58,4.58,12.91ZM367.11,537.31l-10.56-3.93c1.61-4.27,3.34-8.55,5.14-12.74l10.36,4.4C370.32,529.07,368.66,533.2,367.11,537.31ZM916,524.24c-1.73-4-3.58-8-5.5-12l10.15-4.89c2,4.09,3.91,8.27,5.71,12.42ZM377.55,513l-10.16-4.86c2-4.1,4.09-8.21,6.26-12.22l9.93,5.31C381.49,505.1,379.46,509.06,377.55,513Zm526.92-12.45c-2.08-3.83-4.3-7.67-6.57-11.43l9.66-5.77c2.37,3.9,4.66,7.89,6.83,11.87ZM390.14,489.75,380.46,484c2.34-3.9,4.81-7.8,7.34-11.61l9.41,6.17C394.77,482.24,392.39,486,390.14,489.75ZM890.82,478c-2.43-3.64-5-7.27-7.58-10.81l9.11-6.6c2.69,3.67,5.34,7.44,7.86,11.22ZM404.77,467.73l-9.12-6.59c2.69-3.68,5.5-7.34,8.35-10.9l8.81,7C410.07,460.65,407.36,464.18,404.77,467.73Zm470.42-11c-2.74-3.4-5.61-6.8-8.52-10.1l8.47-7.39c3,3.43,6,7,8.85,10.49Zm-453.87-9.62-8.5-7.36c3-3.43,6.14-6.83,9.29-10.11l8.16,7.73C427.22,440.52,424.21,443.8,421.32,447.09Zm436.38-10.2c-3-3.15-6.21-6.29-9.4-9.31l7.78-8.11c3.32,3.14,6.6,6.39,9.76,9.67ZM439.64,428l-7.79-8.09c3.3-3.15,6.72-6.26,10.15-9.24l7.43,8.42C446.12,422,442.83,425,439.64,428Zm398.85-9.33c-3.3-2.87-6.73-5.71-10.19-8.45l7-8.76c3.59,2.84,7.16,5.79,10.58,8.76Zm-378.89-8-7-8.75c3.56-2.84,7.24-5.63,10.93-8.31l6.65,9.06C466.58,405.22,463,407.91,459.6,410.65Zm358.13-8.4c-3.58-2.58-7.26-5.1-10.93-7.51l6.21-9.35c3.81,2.49,7.62,5.12,11.34,7.79ZM481,395.13l-6.23-9.34c3.8-2.5,7.71-5,11.64-7.3l5.8,9.61C488.45,390.35,484.68,392.72,481,395.13Zm314.53-7.41c-3.78-2.24-7.67-4.43-11.56-6.51l5.34-9.87c4,2.16,8.08,4.44,12,6.76Zm-291.81-6.14-5.36-9.86c4-2.16,8.13-4.25,12.24-6.23l4.91,10.09C511.58,377.48,507.61,379.5,503.74,381.58Zm268.41-6.36c-4-1.89-8-3.72-12.11-5.45l4.42-10.3c4.23,1.79,8.46,3.69,12.57,5.66Zm-244.58-5.11-4.45-10.29c4.2-1.79,8.49-3.51,12.75-5.11l4,10.49C535.74,366.73,531.61,368.39,527.57,370.11Zm220.12-5.24c-4.14-1.54-8.37-3-12.56-4.34l3.46-10.67c4.35,1.4,8.75,2.92,13,4.51Zm-195.33-4.05-3.5-10.65c4.36-1.41,8.79-2.74,13.19-3.95l3,10.8C560.83,358.18,556.55,359.46,552.36,360.82Zm170-4.06c-4.23-1.15-8.56-2.22-12.87-3.19L712,342.64c4.48,1,9,2.12,13.37,3.32Zm-144.48-3-2.52-10.93c4.45-1,9-1.94,13.5-2.75l2,11C586.59,351.92,582.22,352.81,577.93,353.79ZM696.54,351c-4.33-.77-8.74-1.45-13.11-2l1.48-11.11c4.54.6,9.12,1.31,13.61,2.1ZM604,349.07,602.51,338c4.53-.61,9.14-1.13,13.69-1.53l1,11.15C612.83,348,608.39,348.48,604,349.07Zm66.21-1.57c-4.38-.38-8.83-.67-13.25-.85l.48-11.2c4.58.2,9.21.49,13.74.89Zm-39.79-.81-.51-11.19c4.55-.21,9.18-.32,13.77-.33v11.21C639.3,346.39,634.84,346.49,630.45,346.69Z"/></g><g class="cls-8"><path class="cls-7" d="M644.29,731.53h-.08a92.84,92.84,0,0,1-14.26-1.1l1.74-11.06a82.88,82.88,0,0,0,12.52,1Zm14.35-1.12-1.75-11.07a80.82,80.82,0,0,0,12.27-2.93l3.49,10.65A92.14,92.14,0,0,1,658.64,730.41Zm-42.7-3.29a90.15,90.15,0,0,1-13.31-5.47l5.11-10a81.05,81.05,0,0,0,11.67,4.79Zm70-5.55-5.14-10A81,81,0,0,0,691.57,705l6.64,9.05A90.91,90.91,0,0,1,686,721.57Zm-95.61-7.39a92.3,92.3,0,0,1-11-9.28l8-7.93a81.09,81.09,0,0,0,9.61,8.14Zm118.8-9.4-8-7.92a80.86,80.86,0,0,0,8.21-9.54l9.12,6.58A91.36,91.36,0,0,1,709.14,704.78ZM570,694a89.83,89.83,0,0,1-7.55-12.18l10-5.11a81.62,81.62,0,0,0,6.62,10.69ZM726,681.7l-10-5.09A79.25,79.25,0,0,0,720.82,665l10.72,3.45A89.86,89.86,0,0,1,726,681.7Zm-169.1-13.05a89.55,89.55,0,0,1-3.38-13.91L564.68,653a80.53,80.53,0,0,0,3,12.19Zm178-14.1-11.14-1.73a80.38,80.38,0,0,0,1-12.52V640H736v.24A91.75,91.75,0,0,1,734.89,654.55ZM552.41,640.47v-.17a91.72,91.72,0,0,1,1.08-14.07l11.15,1.71a79.64,79.64,0,0,0-1,12.36Zm171.29-13a79.41,79.41,0,0,0-3-12.19l10.71-3.5a90.35,90.35,0,0,1,3.4,13.9ZM567.54,615.73l-10.73-3.43a90.52,90.52,0,0,1,5.49-13.24l10.05,5.07A79.86,79.86,0,0,0,567.54,615.73Zm148.3-12A79.53,79.53,0,0,0,709.19,593l9.09-6.62a90.44,90.44,0,0,1,7.58,12.16Zm-136.9-10.28-9.13-6.58A91.2,91.2,0,0,1,579.14,576l8,7.9A80.19,80.19,0,0,0,578.94,593.42Zm122-9.9a82,82,0,0,0-9.64-8.13l6.6-9.08a92.28,92.28,0,0,1,11,9.26Zm-104.25-7.85-6.66-9a92.27,92.27,0,0,1,12.25-7.52l5.15,10A80.51,80.51,0,0,0,596.71,575.67Zm83.82-6.81a80.61,80.61,0,0,0-11.68-4.77l3.44-10.67a92,92,0,0,1,13.33,5.44Zm-61.43-4.62-3.51-10.65a93.15,93.15,0,0,1,14-3.37l1.79,11.07A80.31,80.31,0,0,0,619.1,564.24Zm37.46-3a81.93,81.93,0,0,0-12.35-.94h-.27V549.07h.2a94.63,94.63,0,0,1,14.14,1.06Z"/></g><g class="cls-8"><path class="cls-7" d="M644.27,865.92h-1.2l.14-22.41h2.12l.12,22.41Zm-3.55,0-2.35,0,.53-22.4,2.15,0Zm7.09,0-.33-22.4,2.11,0,.59,22.4ZM636,865.78l-2.35-.1,1-22.38,2.15.08Zm16.54,0-.8-22.39c.71,0,1.42,0,2.12-.09l1.06,22.39Zm-21.27-.21-2.38-.14,1.52-22.36,2.11.13Zm26,0L656,843.18l2.12-.13,1.52,22.36Zm-30.73-.3-2.37-.2,2-22.32c.7.07,1.41.12,2.11.18Zm35.49,0-1.79-22.34,2.14-.17,2,22.32Zm-40.2-.4-2.38-.24,2.45-22.28c.7.07,1.4.15,2.11.21Zm44.91,0-2.24-22.3,2.13-.22,2.45,22.27Zm-49.62-.5-2.38-.29,2.92-22.22,2.1.26Zm54.33,0-2.71-22.25,2.14-.26L673.78,864Zm-59-.6-2.37-.34,3.38-22.15,2.09.3Zm63.73,0L673,841.52l2.12-.3,3.38,22.15ZM607.72,863c-.78-.12-1.57-.25-2.35-.39l3.83-22.08,2.09.35Zm73.1,0-3.63-22.11,2.12-.36,3.83,22.08Zm-77.77-.78-2.34-.43,4.3-22,2.08.39Zm82.44,0-4.09-22,2.1-.39,4.31,22Zm-87.12-.88-2.31-.48,4.77-21.91,2.1.44Zm91.77,0-4.56-21.94,2.1-.44,4.77,21.9Zm-96.4-1-2.3-.53,5.23-21.8,2.09.48Zm101,0-5-21.85,2.08-.48,5.24,21.79Zm-105.61-1.07-2.32-.58L592.53,837l2.05.52Zm110.23,0-5.49-21.73L696,837l5.68,21.68Zm-114.83-1.16-2.3-.63,6.15-21.56,2,.57ZM704,858l-6-21.62,2.07-.57,6.15,21.56Zm-124-1.25-2.29-.68,6.61-21.42,2,.6Zm128.51,0-6.35-21.5,2-.61,6.61,21.43Zm-133.07-1.36-2.25-.72,7-21.29,2,.66Zm137.61,0L706.24,834l2-.65,7.07,21.28Zm-142.11-1.45c-.76-.25-1.52-.51-2.27-.78L576.18,832l2,.69Zm146.61,0-7.27-21.22,2-.69,7.49,21.13Zm-151.11-1.55-2.25-.83,8-21,2,.73Zm155.58,0-7.71-21.06,2-.73,7.94,21Zm-160-1.65c-.74-.29-1.48-.57-2.21-.87l8.38-20.8,2,.78Zm164.46,0-8.14-20.9,2-.77,8.41,20.8Zm-168.89-1.75-2.19-.92,8.84-20.61,2,.83Zm173.32,0-8.64-20.69,2-.82L733.05,848Zm4.31-1.82-9-20.54,1.93-.85,9.25,20.43C736.64,846.43,735.92,846.76,735.19,847.07Zm-182,0-2.2-1,9.3-20.41,1.93.85Zm186.31-1.92L730,824.8l1.92-.9,9.69,20.24Zm-190.65,0-2.15-1,9.7-20.22,1.93.9Zm194.9-2L733.89,823l1.91-.94,10.08,20Zm-199.19,0L542.43,842l10.14-20,1.9.94ZM748,841,737.7,821.08l1.85-1,10.56,19.8C749.4,840.29,748.69,840.66,748,841Zm-207.66,0-2.11-1.1,10.57-19.8,1.89,1Zm211.89-2.16-10.79-19.68,1.89-1,11,19.59Zm-216.08,0c-.7-.38-1.41-.76-2.11-1.16l11-19.54,1.84,1Zm220.2-2.22-11.16-19.47L747,816l11.34,19.37ZM532,836.47l-2.07-1.18,11.38-19.35c.61.35,1.22.71,1.84,1Zm228.43-2.3L748.82,815l1.84-1.11L762.41,833Zm-232.53-.08-2-1.21,11.75-19.13,1.84,1.1Zm236.55-2.37-12-19,1.81-1.14,12.15,18.88C765.76,830.89,765.1,831.31,764.43,831.72Zm-240.6-.09-2-1.26L534,811.5l1.8,1.13Zm244.61-2.45L756,810.46l1.82-1.19,12.52,18.64Zm-248.6-.09-2-1.31,12.55-18.61,1.78,1.17Zm252.5-2.51L759.59,808.1l1.77-1.22,12.91,18.37Zm-256.44-.12L514,825.13l12.9-18.38,1.77,1.23Zm260.32-2.58-13.14-18.21,1.74-1.25,13.3,18.09ZM512,823.75l-1.92-1.39,13.33-18.07,1.73,1.25Zm268-2.65-13.53-17.93,1.69-1.27,13.72,17.78ZM508.17,821l-1.87-1.41,13.7-17.8,1.71,1.29Zm275.64-2.71L769.9,800.6l1.69-1.33,14.06,17.53Zm-279.39-.14-1.86-1.47,14.08-17.5,1.67,1.31Zm283.09-2.79L773.24,798l1.66-1.36,14.42,17.23Zm-286.8-.16-1.81-1.49,14.42-17.22L515,797.8Zm290.4-2.82-14.57-17.1,1.61-1.37,14.78,16.92Zm-294-.19c-.61-.51-1.21-1-1.8-1.54l14.8-16.91,1.61,1.39Zm297.62-2.91-15-16.77,1.59-1.41,15.13,16.61Zm-301.19-.17c-.6-.53-1.19-1-1.77-1.58l15.14-16.6,1.58,1.4Zm304.69-3L782.93,789.6c.52-.47,1-1,1.54-1.43L800,804.47ZM490,805.87l-1.71-1.59L503.74,788l1.58,1.47Zm311.66-3L786,786.69l1.52-1.47,15.81,16Zm-315.1-.22L484.86,801l15.81-16,1.55,1.49ZM805,799.56l-15.94-15.84,1.48-1.5,16.14,15.65Zm-321.85-.22-1.65-1.67L497.67,782l1.51,1.52Zm325.14-3.13-16.24-15.55,1.44-1.51L810,794.46C809.42,795.05,808.87,795.63,808.31,796.21ZM479.86,796l-1.61-1.7L494.73,779l1.47,1.55Zm331.72-3.22L795,777.6,796.4,776l16.77,15C812.65,791.58,812.12,792.16,811.58,792.74Zm-334.93-.2c-.54-.58-1.08-1.17-1.61-1.76l16.81-14.93,1.42,1.55Zm338.1-3.31-16.94-14.79,1.42-1.62,17.06,14.66ZM473.48,789l-1.56-1.79L489,772.66l1.39,1.59Zm344.36-3.36L800.6,771.23,802,769.6l17.39,14.26Zm-347.45-.22-1.5-1.78,17.39-14.28,1.38,1.66ZM820.87,782l-17.56-14,1.36-1.69,17.66,13.93Zm-353.49-.18L465.92,780l17.69-13.9,1.33,1.67Zm356.42-3.49L806,764.62l1.3-1.68,18,13.53C824.77,777.1,824.29,777.72,823.8,778.34Zm-359.34-.2L463,776.28l18-13.53,1.3,1.69Zm362.22-3.57-18.14-13.31,1.27-1.73,18.26,13.15Zm-365.08-.19-1.38-1.87,18.23-13.18,1.28,1.74Zm367.86-3.63-18.41-12.92,1.25-1.78,18.5,12.81Zm-370.64-.18-1.34-1.9L476,755.88l1.24,1.76Zm373.36-3.7-18.7-12.53,1.22-1.8L833.47,765Zm-376-.15-1.31-2,18.79-12.38,1.19,1.76ZM834.78,763l-18.92-12.19L817,749l19,12Zm-381.25-.16c-.44-.67-.87-1.33-1.29-2l19.07-11.94,1.13,1.75ZM837.32,759l-19.16-11.81,1.12-1.81L838.56,757C838.15,757.65,837.74,758.33,837.32,759ZM451,758.84c-.42-.67-.84-1.35-1.24-2l19.3-11.57,1.11,1.79ZM839.78,755l-19.41-11.41,1.08-1.84L841,752.92C840.58,753.6,840.18,754.28,839.78,755Zm-391.24-.16-1.18-2,19.53-11.2,1.08,1.84Zm393.61-3.93-19.64-11,1-1.88,19.75,10.83Zm-396-.13c-.39-.68-.77-1.36-1.15-2l19.77-10.78,1,1.85Zm398.24-4-19.86-10.62c.34-.62.66-1.23,1-1.85l20,10.36C845.18,745.34,844.81,746.05,844.43,746.75Zm-400.51-.11-1.12-2.1,20-10.34,1,1.84Zm402.71-4.08-20.07-10.2,1-1.89,20.19,10C847.35,741.15,847,741.86,846.63,742.56Zm-404.9-.1-1.06-2.09,20.2-10,1,1.9Zm407-4.13-20.28-9.78.91-1.89,20.41,9.52C849.44,736.9,849.09,737.62,848.74,738.33Zm-409.11-.08-1-2.11L459,726.6l.92,1.92ZM850.77,734l-20.5-9.33c.29-.64.59-1.28.87-1.92l20.61,9.09C851.43,732.6,851.1,733.33,850.77,734Zm-413.15,0-1-2.11,20.59-9.14.88,2Zm415.08-4.26L832,720.81c.28-.64.56-1.28.83-1.93l20.8,8.67Zm-417,0-.93-2.16,20.79-8.68.83,1.94Zm-1.83-4.34c-.3-.73-.6-1.46-.89-2.19L454,715c.26.66.53,1.31.79,2Zm420.67,0-20.89-8.42.81-2,21,8.25ZM432.14,721q-.43-1.11-.84-2.22L452.44,711l.75,2ZM856.3,721l-21.07-8,.76-2,21.14,7.79Zm-425.82-4.36-.78-2.21L451,707l.72,2ZM858,716.54,836.73,709c.24-.66.48-1.33.71-2l21.3,7.34C858.48,715.05,858.22,715.8,858,716.54Zm-429-4.39c-.25-.74-.5-1.49-.74-2.24l21.45-6.9c.22.67.44,1.34.67,2Zm430.58-.08-21.38-7.13c.23-.67.45-1.33.67-2l21.46,6.87Zm-432-4.41-.69-2.23L448.36,699l.63,2Zm433.51-.1-21.53-6.67.63-2,21.59,6.47ZM426.1,703.15c-.22-.75-.43-1.51-.64-2.26l21.72-6,.58,2Zm436.24-.09-21.66-6.25c.2-.67.39-1.35.58-2l21.73,6C862.78,701.53,862.56,702.29,862.34,703.06Zm-437.51-4.44-.6-2.28,21.85-5.56c.17.69.35,1.37.54,2.05Zm438.78-.1-21.79-5.8c.19-.67.36-1.35.54-2l21.85,5.51Zm-439.95-4.47c-.19-.76-.37-1.52-.55-2.29l22-5.09c.16.68.32,1.37.49,2.06Zm441.12-.1-21.9-5.33c.17-.68.33-1.36.49-2l22,5.07C865.15,692.41,865,693.18,864.78,694Zm-442.2-4.49c-.17-.76-.34-1.53-.5-2.3l22.06-4.63.45,2.07Zm443.27-.1-22-4.88c.15-.68.3-1.36.44-2L866.36,687C866.2,687.81,866,688.59,865.85,689.36Zm-444.25-4.5-.45-2.31,22.15-4.18c.13.7.27,1.39.41,2.08Zm445.23-.11-22.1-4.41c.14-.69.27-1.38.4-2.06l22.16,4.14C867.14,683.2,867,684,866.83,684.75Zm-446.11-4.52c-.14-.77-.27-1.55-.41-2.33l22.24-3.7c.12.69.24,1.39.37,2.08Zm447-.11-22.19-4,.36-2.07,22.24,3.69C868,678.56,867.85,679.34,867.71,680.12Zm-447.77-4.53c-.13-.78-.24-1.55-.36-2.33L441.89,670c.1.7.21,1.39.32,2.09Zm448.55-.11L846.22,672c.11-.69.22-1.38.32-2.08l22.31,3.22C868.74,673.91,868.62,674.7,868.49,675.48Zm-449.24-4.55c-.11-.78-.21-1.56-.31-2.34l22.37-2.79c.09.7.18,1.4.28,2.1Zm449.93-.11-22.34-3,.27-2.08,22.38,2.75C869.39,669.25,869.29,670,869.18,670.82Zm-450.52-4.56c-.09-.78-.17-1.56-.26-2.35l22.43-2.32c.07.7.15,1.4.23,2.1Zm451.11-.15-22.41-2.5.24-2.13L870,663.79Zm-451.6-4.55-.21-2.33,22.47-1.87.19,2.12Zm452.09-.13-22.46-2,.19-2.13,22.47,1.84Zm-452.48-4.56-.16-2.33,22.5-1.42.15,2.14Zm452.87-.13-22.49-1.58.14-2.13,22.5,1.38Zm-453.17-4.57-.11-2.33,22.53-1L440,651ZM870.94,652l-22.52-1.12.1-2.13,22.53.91Zm-453.65-4.56-.06-2.33,22.54-.5.05,2.14Zm453.84-.14-22.54-.66.06-2.13,22.54.45Zm-453.94-4.56,0-2.34,22.55,0v2.14Zm454-.14-22.55-.2V640l22.55.07Zm-431.5-4.34-22.55-.23,0-2.33,22.54.43Zm408.95-.37,0-2.14,22.55-.46,0,2.33Zm-408.86-3.87-22.54-.69.08-2.34,22.53.89Zm408.77-.37-.08-2.13,22.53-.93.08,2.33ZM440,629.82l-22.52-1.15.13-2.34,22.51,1.35Zm408.42-.37-.13-2.13,22.51-1.38.13,2.33Zm-408.16-3.87L417.76,624l.18-2.33,22.47,1.81Zm407.89-.36-.17-2.13,22.47-1.85.18,2.33ZM440.6,621.35l-22.45-2.07.22-2.33,22.44,2.27ZM847.78,621l-.21-2.13,22.43-2.3.23,2.33ZM441,617.13l-22.4-2.53c.09-.78.18-1.56.28-2.34L441.29,615Zm406.31-.36c-.08-.7-.17-1.4-.26-2.09l22.37-2.83c.1.78.2,1.57.29,2.35Zm-405.78-3.85-22.35-3,.33-2.33,22.32,3.21Zm405.25-.36-.3-2.09,22.3-3.29c.12.79.23,1.57.34,2.35Zm-404.64-3.84-22.28-3.45.38-2.31,22.25,3.65Zm404-.36c-.11-.69-.22-1.39-.34-2.08l22.23-3.75.39,2.34Zm-403.3-3.83-22.21-3.91c.14-.77.28-1.55.43-2.32l22.16,4.15C443.13,603.14,443,603.84,442.88,604.53Zm402.59-.36c-.12-.69-.25-1.38-.38-2.06l22.15-4.21c.14.78.29,1.55.43,2.34Zm-401.8-3.81L421.55,596c.16-.77.31-1.54.48-2.31l22.06,4.61C444,599,443.8,599.67,443.67,600.36Zm401-.35c-.14-.69-.28-1.37-.43-2.06l22-4.67c.17.77.33,1.55.49,2.33Zm-400.14-3.8-22-4.82c.17-.77.34-1.54.52-2.3l22,5.06C444.85,594.84,444.7,595.53,444.54,596.21Zm399.25-.35c-.15-.68-.31-1.37-.47-2.05l21.95-5.13c.18.77.36,1.54.53,2.32Zm-398.28-3.78L423.6,586.8c.18-.77.38-1.53.57-2.3L446,590Zm397.31-.35c-.17-.68-.34-1.36-.52-2l21.84-5.58c.2.76.39,1.53.58,2.3ZM446.56,588l-21.79-5.75c.2-.76.41-1.52.62-2.28l21.73,6C446.93,586.61,446.74,587.3,446.56,588Zm395.2-.35c-.18-.68-.36-1.36-.56-2l21.71-6.05c.22.76.43,1.53.64,2.29ZM447.7,583.89,426,577.69c.22-.76.44-1.52.67-2.27l21.6,6.44C448.1,582.54,447.89,583.21,447.7,583.89Zm392.92-.34-.61-2,21.59-6.45c.23.75.45,1.5.67,2.25Zm-391.7-3.71-21.52-6.67.71-2.25,21.46,6.87Zm390.46-.35-.65-2,21.45-6.91.72,2.23Zm-389.14-3.72-21.39-7.09c.26-.76.51-1.51.77-2.25l21.31,7.34Zm387.83-.31-.7-2,21.3-7.37c.26.74.51,1.48.76,2.22Zm-386.43-3.7-21.23-7.56c.27-.75.54-1.49.82-2.23l21.14,7.8C452.12,570.43,451.88,571.09,451.64,571.76Zm385-.32c-.24-.66-.48-1.32-.73-2l21.13-7.83c.28.75.55,1.49.82,2.24Zm-383.53-3.68-21.07-8,.87-2.21,21,8.23C453.64,566.44,453.38,567.1,453.13,567.76Zm382-.29-.77-2,21-8.22c.29.72.58,1.45.86,2.18ZM454.7,563.81l-20.89-8.45c.3-.72.6-1.45.91-2.17l20.8,8.65Zm378.9-.29c-.27-.64-.53-1.28-.81-1.92l20.78-8.72c.31.73.61,1.46.91,2.2Zm-377.25-3.63L435.65,551c.31-.73.63-1.45,1-2.17l20.61,9.1C456.92,558.59,456.63,559.23,456.35,559.89Zm375.59-.27c-.27-.64-.56-1.28-.84-1.91l20.6-9.11,1,2.16ZM458.09,556l-20.51-9.31,1-2.13L459,554.05Zm372.13-.23c-.29-.63-.58-1.26-.88-1.89l20.39-9.57c.34.72.67,1.44,1,2.16Zm-370.31-3.62-20.31-9.73c.34-.71.68-1.42,1-2.12l20.22,9.93ZM828.42,552l-.94-1.89,20.2-10c.35.7.69,1.4,1,2.11ZM461.8,548.34l-20.09-10.16,1.08-2.09,20,10.35Zm364.72-.17-1-1.88,20-10.36,1.08,2.08Zm-362.73-3.61L443.9,534c.37-.71.75-1.4,1.14-2.1l19.75,10.8Zm360.75-.15c-.32-.61-.66-1.22-1-1.82l19.75-10.82,1.14,2.09Zm-358.7-3.57-19.66-11,1.18-2.06L466.9,539C466.54,539.61,466.19,540.23,465.84,540.84Zm356.68-.08-1.07-1.87L841,527.69l1.15,2ZM468,537.16l-19.42-11.39c.4-.68.81-1.35,1.22-2l19.29,11.6Zm352.4-.1-1.09-1.82,19.29-11.59c.41.66.81,1.34,1.21,2Zm-350.19-3.54L451,521.74c.42-.68.84-1.35,1.27-2l19,12C470.93,532.33,470.56,532.92,470.19,533.52Zm348-.09L817,531.65l19-12c.43.66.85,1.33,1.27,2Zm-345.69-3.5-18.93-12.18c.43-.66.87-1.32,1.31-2l18.78,12.4C473.25,528.75,472.86,529.34,472.48,529.93Zm343.42-.06-1.18-1.78,18.8-12.38,1.29,2Zm-341.06-3.48-18.67-12.57,1.34-2L476,524.64Zm338.7,0-1.2-1.75,18.52-12.77c.45.64.9,1.29,1.34,1.94Zm-336.27-3.43-18.39-13,1.38-1.91,18.26,13.15Zm333.84,0-1.24-1.72L828.12,508l1.38,1.91Zm-331.33-3.39-18.12-13.34,1.42-1.89,18,13.53Zm328.83,0-1.29-1.72,18-13.5,1.4,1.86Zm-326.25-3.37-17.84-13.69c.48-.63,1-1.25,1.46-1.87l17.69,13.9ZM806,516c-.43-.55-.86-1.11-1.3-1.66l17.69-13.89,1.46,1.86Zm-321-3.3-17.56-14.06,1.52-1.84,17.38,14.28Zm318.38,0-1.34-1.63,17.38-14.28,1.5,1.83Zm-315.66-3.26-17.26-14.42c.51-.61,1-1.21,1.55-1.81l17.08,14.62C488.64,508.4,488.18,508.93,487.73,509.47Zm312.94,0c-.45-.54-.91-1.07-1.37-1.6l17.09-14.62,1.54,1.8Zm-310.16-3.19-16.94-14.79,1.56-1.76,16.8,15Zm307.38,0-1.42-1.6,16.8-14.94,1.56,1.74Zm-304.52-3.16L476.73,488l1.61-1.74,16.47,15.31C494.32,502.06,493.84,502.57,493.37,503.09Zm301.68,0-1.45-1.55,16.47-15.32,1.6,1.73ZM496.27,500,480,484.52c.54-.57,1.09-1.13,1.64-1.69l16.14,15.64Zm295.84,0-1.46-1.5,16.14-15.65,1.67,1.72Zm-292.86-3-16-15.81,1.69-1.66,15.81,16Zm289.9,0c-.5-.5-1-1-1.51-1.49l15.81-16,1.69,1.67Zm-286.86-3-15.64-16.14,1.7-1.62,15.5,16.29Zm283.8,0c-.51-.48-1-1-1.52-1.44L800,476.22l1.74,1.65ZM505.4,491.07l-15.32-16.44c.58-.54,1.17-1.07,1.75-1.59L507,489.64Zm277.6,0-1.56-1.42L796.57,473l1.75,1.6Zm-274.44-2.83-15-16.77,1.77-1.54,14.8,16.9Zm271.27,0-1.6-1.4L793,469.9l1.78,1.56Zm-268.05-2.76-14.6-17.08,1.8-1.5,14.44,17.21Zm264.84,0L775,484.06l14.44-17.21,1.8,1.51Zm-261.57-2.7-14.24-17.38,1.84-1.47,14.07,17.51Zm258.3,0-1.68-1.34,14.07-17.52,1.83,1.47Zm-255-2.64-13.88-17.66,1.85-1.43,13.73,17.78Zm251.61,0-1.69-1.3L782,461c.63.47,1.25.95,1.88,1.44Zm-248.22-2.56-13.52-17.93,1.89-1.4,13.35,18.07Zm244.84,0-1.74-1.27,13.33-18.08,1.89,1.39ZM525.21,475,512.08,456.8l1.92-1.36,13,18.34Zm238,0-1.75-1.23,12.92-18.36,1.93,1.35Zm-234.46-2.41L516,454.1c.65-.45,1.31-.89,2-1.33l12.54,18.63Zm230.93,0-1.75-1.18,12.54-18.63c.66.44,1.33.89,2,1.34Zm-227.4-2.32-12.36-18.74,2-1.27L534,469.07Zm223.85-.05L754.32,469l12.14-18.88,2,1.3Zm-220.26-2.23-12-19,2-1.24,11.75,19.12C537,467.2,536.43,467.56,535.83,467.94Zm216.67-.05-1.82-1.12,11.77-19.12,2,1.24Zm-213-2.16-11.57-19.24,2.05-1.2,11.34,19.37Zm209.39-.06L747,464.59l11.36-19.36,2,1.2ZM543.13,463.6,532,444.12l2-1.14,11,19.58Zm202-.07-1.86-1,10.94-19.59,2.07,1.16Zm-198.3-2L536.1,441.85l2.09-1.12,10.54,19.82C548.1,460.87,547.48,461.21,546.86,461.54Zm194.58-.06-1.9-1,10.53-19.82,2.08,1.11Zm-190.83-1.91-10.32-19.92,2.08-1.06,10.16,20Zm187-.09-1.9-1,10.09-20,2.13,1.07Zm-183.22-1.81-9.92-20.13,2.13-1,9.7,20.23Zm179.39-.09-1.93-.92,9.69-20.24,2.14,1Zm-175.55-1.73-9.5-20.33,2.15-1L560.19,455Zm171.69-.1-2-.88,9.26-20.43,2.16,1Zm-167.82-1.64-9.07-20.52,2.18-.93,8.83,20.62ZM726,454l-1.95-.84,8.8-20.63,2.2.94Zm-160-1.55-8.63-20.71,2.2-.89,8.4,20.8Zm156.05-.12-2-.79,8.37-20.81,2.23.9ZM570,450.88,561.81,430l2.21-.85,8,21Zm148.14-.12-2-.76,7.94-21,2.23.85ZM574,449.38l-7.75-21.05,2.24-.8L576,448.66Zm140.14-.11-2-.72,7.47-21.14,2.24.8ZM578,448l-7.28-21.21L573,426,580,447.29Zm132.09-.11-2-.68,7.05-21.28,2.24.74Zm-128-1.23-6.85-21.35,2.27-.7L584.09,446Zm124-.1-2-.63,6.58-21.44,2.28.71Zm-119.87-1.14-6.39-21.49,2.28-.66,6.15,21.56Zm115.79-.1-2-.59L706,423.13l2.28.66Zm-111.69-1.06-5.93-21.62,2.28-.6,5.72,21.67Zm107.59-.09-2.07-.55,5.66-21.69,2.28.6Zm-103.47-1-5.46-21.74,2.29-.56,5.26,21.79Zm99.34-.09-2.09-.5,5.22-21.8,2.29.55Zm-95.17-.9-5-21.85,2.33-.51,4.78,21.9Zm91-.08-2.09-.46,4.76-21.9,2.3.51Zm-86.84-.82-4.57-21.94,2.33-.47,4.32,22Zm82.68-.07-2.11-.42,4.29-22,2.31.45Zm-78.5-.74-4.1-22,2.34-.41L609,440.08Zm74.3-.07-2.11-.37,3.83-22.08,2.32.41Zm-70.11-.66-3.61-22.12,2.33-.36,3.4,22.15Zm65.91-.05c-.7-.12-1.41-.22-2.11-.33l3.34-22.16,2.34.36Zm-61.69-.58-3.14-22.19,2.33-.32,2.94,22.22Zm57.46-.05-2.11-.29,2.88-22.22,2.35.31Zm-53.22-.51-2.68-22.24,2.34-.27,2.47,22.27Zm49,0-2.12-.24L668.81,416l2.36.27Zm-44.75-.42-2.22-22.3,2.35-.22,2,22.32Zm40.53,0-2.15-.2,2-22.32,2.34.21ZM628,437.71l-1.76-22.34,2.36-.17,1.52,22.35Zm32,0-2.13-.15,1.49-22.36,2.36.17Zm-27.73-.26L631,415.05c.78,0,1.57-.09,2.36-.12l1.06,22.38Zm23.47,0-2.13-.11,1-22.38L657,415Zm-19.2-.18-.83-22.39,2.34-.08.63,22.4Zm14.93,0-2.13-.06.56-22.41,2.37.07Zm-10.67-.1-.37-22.41,2.37,0,.13,22.4Zm6.4,0-2.14,0,.1-22.4,2.37,0Z"/></g><g class="cls-8"><path class="cls-7" d="M644.87,705.53h-.66c-.89,0-1.76,0-2.64-.06l.89-22.39,1.44,0h.36v11.21l1.26,11.12Zm2.13-.06-1-22.39c.61,0,1.21-.06,1.8-.11l1.87,22.33C648.79,705.38,647.9,705.43,647,705.47Zm-8.12-.16c-.92-.07-1.83-.16-2.74-.27l2.8-22.24c.57.07,1.15.13,1.73.18Zm13.48-.28-2.76-22.24c.58-.07,1.16-.16,1.74-.26l3.73,22.11C654.17,704.78,653.27,704.91,652.36,705Zm-18.86-.37c-.9-.14-1.8-.31-2.69-.49l4.6-21.94c.57.12,1.14.22,1.72.32Zm24.22-.52-4.62-21.93c.58-.12,1.16-.26,1.74-.4l5.52,21.72C659.49,703.75,658.61,704,657.72,704.14Zm-29.55-.58c-.87-.22-1.74-.45-2.61-.71l6.38-21.49c.57.17,1.15.33,1.73.47Zm34.84-.75-6.49-21.46c.58-.17,1.16-.36,1.73-.55L665.56,702C664.71,702.28,663.86,702.55,663,702.81ZM623,702c-.87-.3-1.73-.61-2.58-.94l8.2-20.87c.54.21,1.09.41,1.65.59Zm45.15-1-8.24-20.86c.56-.21,1.11-.44,1.66-.68L670.61,700C669.79,700.39,669,700.73,668.13,701.05Zm-50.24-1c-.83-.36-1.66-.74-2.47-1.14l9.92-20.12c.53.26,1.07.5,1.61.74Zm55.17-1.17-9.9-20.13,1.56-.8,10.77,19.68C674.69,698.09,673.88,698.5,673.06,698.9Zm-60-1.19c-.81-.44-1.6-.89-2.39-1.35l11.58-19.23c.5.3,1,.58,1.52.86Zm64.84-1.4-11.62-19.2q.78-.47,1.53-1l12.36,18.75C679.38,695.38,678.63,695.85,677.86,696.31Zm-69.51-1.37q-1.14-.74-2.25-1.53l13.11-18.22q.72.51,1.47,1Zm74-1.57-13.14-18.21c.49-.34,1-.7,1.44-1.06l13.86,17.66C683.82,692.31,683.1,692.85,682.37,693.37Zm-78.44-1.56c-.71-.56-1.41-1.12-2.1-1.7L616.39,673c.46.39.92.76,1.39,1.12Zm82.73-1.76L672,673c.46-.39.92-.79,1.37-1.2l15.27,16.49C688,688.89,687.33,689.47,686.66,690.05Zm-86.86-1.72c-.66-.61-1.32-1.23-2-1.86l15.93-15.86c.42.41.84.82,1.28,1.22Zm90.82-1.91-16-15.84c.42-.42.83-.84,1.23-1.28l16.6,15.18C691.88,685.14,691.26,685.79,690.62,686.42ZM596,684.52c-.61-.66-1.21-1.33-1.79-2L611.35,668c.39.45.78.9,1.19,1.33Zm98.33-2.06L677.08,668c.39-.45.77-.92,1.14-1.39L696,680.38C695.44,681.08,694.88,681.77,694.29,682.46Zm-101.84-2c-.55-.7-1.08-1.41-1.61-2.14l18.31-13.08q.52.74,1.08,1.44Zm105.17-2.21-18.34-13c.34-.48.68-1,1-1.47L699.15,676C698.65,676.75,698.14,677.49,697.62,678.21ZM589.3,676c-.49-.74-1-1.49-1.43-2.25l19.33-11.55q.46.78,1,1.53Zm111.29-2.34-19.36-11.48q.45-.75.87-1.53l19.84,10.65C701.51,672.14,701.06,672.92,700.59,673.7Zm-114.07-2.27c-.43-.78-.84-1.58-1.24-2.38l20.23-9.89c.26.53.54,1.05.82,1.57ZM703.16,669,683,659.07c.25-.52.5-1,.73-1.57l20.65,9Q703.78,667.76,703.16,669Zm-119-2.39c-.36-.81-.71-1.63-1-2.46l21-8.22q.33.84.69,1.65ZM705.36,664l-21-8.16c.21-.55.41-1.1.61-1.66l21.32,7.28C706,662.33,705.69,663.18,705.36,664Zm-123.21-2.42c-.3-.85-.57-1.71-.83-2.57l21.6-6.42c.17.57.35,1.13.55,1.69Zm125-2.68-21.61-6.41c.17-.55.32-1.11.46-1.67l21.87,5.45C707.63,657.16,707.39,658,707.13,658.91Zm-126.54-2.49c-.22-.87-.42-1.74-.61-2.62L602,649.17c.13.59.26,1.16.41,1.73Zm127.88-2.79-22.09-4.5c.12-.59.23-1.18.33-1.78L709,651C708.81,651.9,708.65,652.77,708.47,653.63Zm-129-2.48c-.15-.88-.28-1.77-.4-2.67l22.37-2.79c.08.59.17,1.17.26,1.75Zm129.86-2.82L687,645.62c.08-.59.14-1.18.19-1.78l22.47,1.84C709.55,646.57,709.45,647.45,709.34,648.33ZM578.8,645.81c-.07-.89-.13-1.79-.17-2.7l22.53-1c0,.59.06,1.18.11,1.76Zm131-2.81-22.54-.93c0-.59,0-1.18,0-1.77l22.55-.22v.22C709.84,641.2,709.82,642.1,709.79,643Zm-108.68-2.37-7.72-.23H578.57v-.11c0-.86,0-1.71,0-2.56l22.53.87c0,.56,0,1.13,0,1.69Zm86.14-2.26c0-.6-.07-1.2-.12-1.79l22.47-1.92c.08.88.13,1.77.17,2.66Zm-86-1.53-22.48-1.78c.07-.9.16-1.8.27-2.69l22.39,2.72C601.36,635.67,601.3,636.25,601.26,636.84Zm85.68-2c-.07-.58-.16-1.16-.26-1.73l22.23-3.77c.15.89.29,1.78.4,2.68Zm-85.25-1.48-22.26-3.62c.15-.89.31-1.77.5-2.65L602,631.59C601.89,632.16,601.78,632.74,601.69,633.33Zm84.66-2c-.13-.58-.26-1.15-.41-1.73l21.84-5.55c.23.87.43,1.74.62,2.62Zm-84-1.47-21.87-5.42c.22-.88.46-1.75.71-2.61l21.63,6.34C602.7,628.73,602.55,629.29,602.4,629.86Zm83.07-1.92c-.17-.58-.36-1.15-.56-1.72l21.31-7.33c.29.84.57,1.68.83,2.53Zm-82.06-1.46-21.35-7.22c.3-.86.61-1.71.94-2.56l21,8.13C603.8,625.38,603.6,625.92,603.41,626.48Zm80.89-1.89c-.22-.56-.45-1.1-.69-1.64l20.62-9.07c.36.81.71,1.63,1,2.46Zm-79.6-1.41-20.67-9c.37-.82.75-1.64,1.14-2.45l20.27,9.81C605.18,622.1,604.93,622.64,604.7,623.18Zm78.16-1.83c-.26-.53-.53-1-.81-1.55L701.82,609q.66,1.19,1.26,2.4ZM606.26,620l-19.84-10.65c.42-.78.87-1.56,1.32-2.32l19.4,11.41C606.84,619,606.54,619.48,606.26,620Zm74.9-1.74c-.31-.5-.62-1-.94-1.48L699,604.42c.5.75,1,1.52,1.45,2.29ZM608.08,617l-18.89-12.23c.49-.75,1-1.49,1.52-2.23l18.37,13C608.74,616,608.4,616.46,608.08,617Zm71.12-1.64c-.35-.48-.7-.94-1.06-1.4l17.72-13.85c.56.7,1.11,1.43,1.64,2.16Zm-69.05-1.25-17.82-13.72c.56-.72,1.13-1.43,1.73-2.12l17.19,14.49C610.88,613.15,610.51,613.6,610.15,614.06ZM677,612.53c-.39-.45-.78-.9-1.19-1.33L692.36,596c.61.65,1.21,1.32,1.8,2Zm-64.56-1.16-16.61-15.16c.61-.66,1.24-1.31,1.87-1.94l16,15.81C613.26,610.5,612.85,610.93,612.44,611.37Zm62.12-1.46c-.41-.41-.83-.81-1.27-1.2l15.22-16.54c.67.61,1.33,1.24,2,1.88Zm-59.6-1-15.3-16.46c.66-.61,1.34-1.21,2-1.79l14.6,17.07C615.83,608.07,615.39,608.46,615,608.86Zm57-1.32c-.45-.38-.92-.76-1.39-1.12l13.81-17.71c.72.55,1.42,1.11,2.11,1.69Zm-54.27-1-13.91-17.65c.71-.55,1.43-1.09,2.17-1.61l13.16,18.19C618.62,605.84,618.14,606.19,617.68,606.56Zm51.47-1.19c-.49-.34-1-.67-1.48-1l12.27-18.8c.76.49,1.5,1,2.24,1.51Zm-48.59-.88-12.39-18.72c.75-.49,1.51-1,2.29-1.42l11.62,19.2C621.57,603.85,621.06,604.17,620.56,604.49Zm45.58-1.06c-.51-.3-1-.59-1.55-.87l10.69-19.73c.8.43,1.59.87,2.37,1.33Zm-42.52-.76L612.81,583c.8-.44,1.6-.85,2.42-1.25l9.95,20.11C624.65,602.12,624.13,602.39,623.62,602.67Zm39.38-.92c-.53-.25-1.06-.5-1.6-.73l9-20.55q1.26.54,2.49,1.14Zm-36.2-.63-9.13-20.5c.82-.36,1.66-.7,2.5-1l8.26,20.85C627.88,600.65,627.34,600.88,626.8,601.12Zm33-.77c-.57-.22-1.13-.42-1.7-.61l7.27-21.22c.85.29,1.69.6,2.53.92Zm-29.67-.53-7.38-21.17c.86-.29,1.72-.57,2.59-.83l6.48,21.46C631.21,599.45,630.65,599.63,630.09,599.82Zm26.28-.61c-.56-.17-1.13-.32-1.71-.47L660.11,577c.88.22,1.76.45,2.62.71Zm-22.87-.4-5.59-21.71c.88-.22,1.76-.43,2.65-.62l4.66,21.93C634.64,598.53,634.07,598.66,633.5,598.81Zm19.41-.46c-.57-.12-1.14-.22-1.73-.31l3.6-22.13c.9.15,1.8.31,2.69.5ZM637,598.08,633.22,576c.88-.15,1.78-.28,2.68-.39l2.84,22.23C638.15,597.89,637.56,598,637,598.08Zm12.44-.29c-.6-.07-1.19-.13-1.79-.18l1.79-22.34c.9.07,1.79.16,2.69.27Zm-8.92-.16-1.9-22.33c.9-.07,1.8-.13,2.7-.17l1,22.39C641.69,597.54,641.09,597.58,640.5,597.63Zm5.35-.12c-.54,0-1.09,0-1.64,0L644,575.07h.39c.6,0,1.45,0,2.29,0Z"/></g></g></g></svg>