<svg id="Layer_3" data-name="Layer 3" xmlns="http://www.w3.org/2000/svg" xmlns:xlink="http://www.w3.org/1999/xlink" viewBox="0 0 1296 1296"><defs><style>.cls-1{fill:url(#linear-gradient);}.cls-2{fill:url(#linear-gradient-2);}.cls-3{fill:url(#linear-gradient-3);}.cls-4{fill:url(#linear-gradient-4);}.cls-5{fill:url(#linear-gradient-5);}.cls-6{fill:url(#linear-gradient-6);}.cls-7{fill:url(#linear-gradient-7);}.cls-8{fill:url(#linear-gradient-8);}.cls-9{fill:url(#linear-gradient-9);}</style><linearGradient id="linear-gradient" x1="82.45" y1="298.3" x2="247.49" y2="298.3" gradientUnits="userSpaceOnUse"><stop offset="0" stop-color="lime"/><stop offset="0.17" stop-color="#00d310"/><stop offset="0.34" stop-color="#00ac1e"/><stop offset="0.51" stop-color="#008f29"/><stop offset="0.68" stop-color="#007931"/><stop offset="0.85" stop-color="#006c35"/><stop offset="1" stop-color="#006837"/></linearGradient><linearGradient id="linear-gradient-2" x1="1117.71" y1="311.7" x2="1165.87" y2="311.7" xlink:href="#linear-gradient"/><linearGradient id="linear-gradient-3" x1="1178.41" y1="361.37" x2="1275.08" y2="361.37" xlink:href="#linear-gradient"/><linearGradient id="linear-gradient-4" x1="26.8" y1="409.07" x2="140.62" y2="409.07" xlink:href="#linear-gradient"/><linearGradient id="linear-gradient-5" x1="1200.14" y1="1040.18" x2="1276.12" y2="1040.18" xlink:href="#linear-gradient"/><linearGradient id="linear-gradient-6" x1="116.75" y1="1145.1" x2="173.24" y2="1145.1" xlink:href="#linear-gradient"/><linearGradient id="linear-gradient-7" x1="1090.31" y1="1067.31" x2="1206.61" y2="1067.31" xlink:href="#linear-gradient"/><linearGradient id="linear-gradient-8" x1="173.24" y1="1056.2" x2="249.68" y2="1056.2" xlink:href="#linear-gradient"/><linearGradient id="linear-gradient-9" x1="7.26" y1="1045.7" x2="133.53" y2="1045.7" xlink:href="#linear-gradient"/></defs><title>trt10</title><path class="cls-1" d="M127.94,169.12l-27.47,28.34a11.91,11.91,0,0,0-6.12-1.62,12.25,12.25,0,1,0,10.47,5.83l23.26-24,.7,45.86-17.44,18,.88,56.45L96.13,314.57a3.64,3.64,0,0,0-2.87,3.58A3.68,3.68,0,0,0,97,321.77a3.63,3.63,0,0,0,3.48-3l11.87-12.24.5,32.47a12.08,12.08,0,1,0,6.06-.1l-1.47-95,17.44-18-1.4-90.69,13.11-15.41,15.56,15.08L163.51,223l-34.73,35.82.73,47.27a12,12,0,1,0,6.05-.43l-.68-44.43,28.76-29.66,1.63,105.16,18.86-.29.18,11.3-36.23.56.36,23.61,54.35-.84.18,11.49-71.71,1.1.38,24.55,92.08-1.42.18,11.86L113,420.38l.36,23.61,90.58-1.4.22,14.18-72.46,1.12.36,23.27,56.61-.88.19,12.8-38.48.6.36,23.72,18.12-.28.3,20a12.19,12.19,0,1,0,6.06.34l-.4-26.5-18.11.28-.18-11.61,38.49-.59-.39-24.92L138,475l-.17-11.16,72.46-1.12-.4-26.29-90.58,1.4-.18-11.5,111-1.71-.38-24-92.08,1.42-.19-12.43,71.71-1.11-.37-23.61-54.35.84-.17-11.49,36.23-.56-.36-23.41-18.87.29-1-63.28,12.22,11.84A3.61,3.61,0,0,0,186,282a3.68,3.68,0,0,0,3.63-3.73,3.63,3.63,0,0,0-3-3.48l-16.57-16.06-2-126.41L132.91,98.16l-.44-28.43,28.61,27.73a3.45,3.45,0,0,0-.15.79,3.68,3.68,0,1,0,6.88-1.79l.45-.47L132.34,61.16l-.44-28.23,49,46.65,1.65,106.91,20.05,19.43,1.18,76.56a12.1,12.1,0,1,0,6.06-.09l-.53-34.07,12,11.64a3.64,3.64,0,0,0,3.58,2.87,3.67,3.67,0,0,0,3.62-3.73,3.63,3.63,0,0,0-3-3.49L209.2,239.75l-.56-36.43-20-19.43-1-61.78,31.65,30.68a3.63,3.63,0,0,0,3.57,2.88,3.69,3.69,0,0,0,3.62-3.74,3.63,3.63,0,0,0-3-3.49l-36-34.9-.56-36.6L150.46,42.23l13-12.79,72.06,68.92,5.82,376.82-36.1,37.09,1,62.34a12.12,12.12,0,1,0,6.06,0l-.92-59.88,36.1-37.09-5.9-381.87L163.46,21l-17.39,17-14.3-13.61-.41-26.17-6.05.1,1.58,102.39,15.34,14.87-14.84,17.45Zm-27.37,38.71A6.1,6.1,0,1,1,96,202.09l-2.25,2.32A3.62,3.62,0,0,0,90.86,208a3.68,3.68,0,0,0,3.74,3.63,3.63,3.63,0,0,0,3.48-3l2.25-2.32A6.35,6.35,0,0,1,100.57,207.83Zm21.52,142.7a6,6,0,1,1-9.14-5l0,3.21a3.6,3.6,0,0,0-.62,2,3.68,3.68,0,1,0,6.68-2.07l0-3.21A6,6,0,0,1,122.09,350.53Zm17.2-33.09a6,6,0,1,1-9.68-4.68l.07,4.13h0a2.71,2.71,0,0,0-.13.7,3.68,3.68,0,1,0,6.11-2.79l0-2.79A6,6,0,0,1,139.29,317.44ZM177.6,548.86a6,6,0,1,1-8.4-5.45l0,2.76a3.66,3.66,0,1,0,6,2.72h.09l-.07-4.66A6,6,0,0,1,177.6,548.86ZM213,294a6,6,0,1,1-9.14-5l0,3.21a3.6,3.6,0,0,0-.62,2,3.68,3.68,0,0,0,7.36-.11,3.54,3.54,0,0,0-.68-2l0-3.21A6,6,0,0,1,213,294Zm2.37,292.15a6,6,0,1,1-9.06-5.08l.05,3.13a3.6,3.6,0,0,0-.7,2.1,3.68,3.68,0,1,0,7.36-.11,3.56,3.56,0,0,0-.6-1.84l-.05-3.29A6,6,0,0,1,215.41,586.15Z"/><path class="cls-2" d="M1125.64,535.36l.95,61.16a12.09,12.09,0,1,0,6.06-.09l-.91-58.66,34.13-35.2L1156.64,3.18l-6.06.11,9.18,496.88ZM1135.82,608a6,6,0,1,1-9.13-5l0,3.22a3.49,3.49,0,0,0-.62,2,3.68,3.68,0,1,0,7.35-.12,3.53,3.53,0,0,0-.68-2l0-3.22A6,6,0,0,1,1135.82,608Z"/><path class="cls-3" d="M1192.7,692.22a12.07,12.07,0,0,0,2.56-23.82l-1.39-57.27,11.86-12.23,1.51,97.1a12.09,12.09,0,1,0,6.06-.09L1211.13,556l15.42-32.08,14.48,14,1.35,87.19a12.07,12.07,0,1,0,6.06-.1l-1.39-89.69-36.79-35.68-2-126.26-18.68-35.95-1-64.43,30.64,29.7,1.76,113.9a12.09,12.09,0,1,0,6-.09l-1.79-116.41-36.79-35.67-.43-27.66,11.74,11.38a3.63,3.63,0,0,0,3.57,2.87,3.69,3.69,0,0,0,3.62-3.74,3.62,3.62,0,0,0-3-3.48L1188,228.22l-.43-27.66,11.74,11.38a3.63,3.63,0,0,0,3.57,2.87,3.68,3.68,0,0,0,3.62-3.74,3.62,3.62,0,0,0-3-3.48L1187.39,192l-.71-45.78,30.64,29.71,1.4,90.57,18.39,17.84,3.36,217.37,18.39,17.84.92,59.55a12.1,12.1,0,1,0,6.06-.09l-1-62.06-18.39-17.84-3.36-217.37-18.39-17.84-.71-45.78,30.64,29.71,3.15,204.47a12.08,12.08,0,1,0,6.06-.1l-3.19-207-36.79-35.66-.56-36.23-36.79-35.67L1184.47,3l-6.06.09L1183.6,339l18.67,35.95,2,127.34,17.73,17.2-16.92,35.18.55,35.69-17.85,18.41,1.46,59.82a12.06,12.06,0,0,0,3.49,23.66Zm58.92-55.58a6,6,0,1,1-9.14-5l0,3.21a3.6,3.6,0,0,0-.62,2,3.68,3.68,0,1,0,7.35-.11,3.61,3.61,0,0,0-.67-2l0-3.21A6,6,0,0,1,1251.62,636.64Zm-21.35-208.51a6,6,0,1,1-9.13-5l0,3.21a3.52,3.52,0,0,0-.62,2,3.68,3.68,0,1,0,7.35-.11,3.54,3.54,0,0,0-.68-2l0-3.21A6,6,0,0,1,1230.27,428.13ZM1269,590.61a6,6,0,1,1-9.14-5.05l0,3.22a3.55,3.55,0,0,0-.62,2,3.68,3.68,0,1,0,7.36-.12,3.54,3.54,0,0,0-.68-2l0-3.21A6,6,0,0,1,1269,590.61Zm-2-126.81a6,6,0,1,1-9.14-5l0,3.21a3.65,3.65,0,1,0,6.74,1.87,3.54,3.54,0,0,0-.68-2l0-3.21A6,6,0,0,1,1267.06,463.8Zm-50.59,243.72a6,6,0,1,1-9.13-5l.05,3.2a3.62,3.62,0,0,0-.63,2,3.68,3.68,0,0,0,7.36-.12,3.57,3.57,0,0,0-.67-1.94l0-3.22A6,6,0,0,1,1216.47,707.52Zm-27.1-32.5.07,3.22a3.54,3.54,0,0,0-.6,2,3.68,3.68,0,0,0,7.36-.11,3.49,3.49,0,0,0-.7-2l-.08-3.22a6,6,0,1,1-6.05.14Z"/><path class="cls-4" d="M39.26,710.27a12.06,12.06,0,0,0,2.66-23.79L41,626.93l29.71-30.64.7,45.77-17.83,18.4,1,62.06a12.1,12.1,0,1,0,6.06-.09l-.92-59.55,11.87-12.25,1.66,107.84a12.08,12.08,0,1,0,6.06-.1L78.72,723l30.64,29.7,1,65,6-.09-1-67.51L78.59,714.43l-2.1-136.35L88.73,590l1.16,75.42a12.1,12.1,0,1,0,6.06-.09l-1.2-77.93-18.4-17.83-.7-45.79,30.63,29.71,1.63,105.47a3.63,3.63,0,0,0-.62,2,3.68,3.68,0,1,0,7.36-.12,3.56,3.56,0,0,0-.68-2l-.69-45.06,4.78,4.64a12.23,12.23,0,1,0,4.21-4.35l-9.13-8.86-.84-54.34L75.51,515.17l-.84-54.35L37.89,425.15,36.06,306.92,48.3,318.79l.92,59.55a12.08,12.08,0,1,0,6.06-.1l-1-62.05L35.93,298.35,34.1,180.11,46.34,192l.92,59.54a12.1,12.1,0,1,0,6.06-.09l-1-62.06L34,171.55l-.71-45.78L63.9,155.48l2.88,186.35a12.09,12.09,0,1,0,6.06-.09L71.45,252l12.24,11.88.64,41.43a12.1,12.1,0,1,0,6.06-.09l-.68-44L71.32,243.45l-1.4-90.57L33.13,117.2l-.25-16.14L50.44,64.55,50,34.92l30.63,29.7.64,41.44a12.08,12.08,0,1,0,6.06-.1L86.64,62,49.85,26.35,49.45.43l-6.06.1,1,62.68L26.8,99.72l5.07,328,36.79,35.67,1.92,124.29L34.9,624.51l1,62.06a12.07,12.07,0,0,0,3.4,23.7ZM63.78,734a6,6,0,1,1-9.14-5l0,3.21a3.6,3.6,0,0,0-.62,2,3.68,3.68,0,1,0,6.68-2.07l0-3.21A6,6,0,0,1,63.78,734Zm29.38-53.38A3.59,3.59,0,0,0,96,679.18h.19v-.28a3.57,3.57,0,0,0,.62-2,3.54,3.54,0,0,0-.68-2l0-3.21a6,6,0,1,1-6.06.09l.05,3.21A3.31,3.31,0,0,0,90.1,679v.28h.19A3.59,3.59,0,0,0,93.16,680.65Zm29.54-57.76,2.31,2.24a3.63,3.63,0,0,0,3.57,2.87,3.68,3.68,0,0,0,3.63-3.74,3.63,3.63,0,0,0-3-3.48l-2.32-2.25a6.43,6.43,0,0,1,1.52-.24,6,6,0,1,1-5.93,6.12A5.47,5.47,0,0,1,122.7,622.89ZM52.49,393.62a3.67,3.67,0,0,0,3.62-3.73,3.54,3.54,0,0,0-.68-2l0-3.21a6,6,0,1,1-6.06.09l0,3.21a3.6,3.6,0,0,0-.62,2A3.66,3.66,0,0,0,52.49,393.62Zm-2-126.8a3.67,3.67,0,0,0,3.62-3.73,3.54,3.54,0,0,0-.68-2l0-3.22a6,6,0,1,1-6.06.1l0,3.21a3.59,3.59,0,0,0,3.12,5.6ZM87.6,320.61a3.68,3.68,0,0,0,3.62-3.74,3.54,3.54,0,0,0-.68-2l-.05-3.21a6,6,0,1,1-6.06.09l0,3.21a3.59,3.59,0,0,0,3.12,5.61ZM70,357.12a3.69,3.69,0,0,0,3.63-3.74,3.62,3.62,0,0,0-.68-2l0-3.21a6,6,0,1,1-6.06.09l.05,3.21a3.6,3.6,0,0,0-.62,2A3.68,3.68,0,0,0,70,357.12ZM84.52,121.35a3.68,3.68,0,0,0,3.62-3.74,3.54,3.54,0,0,0-.68-2l0-3.21a6,6,0,1,1-6.06.09l.05,3.21a3.59,3.59,0,0,0-.61,2A3.68,3.68,0,0,0,84.52,121.35Zm-8,652.41A3.69,3.69,0,0,0,80.1,770a3.54,3.54,0,0,0-.68-2l0-3.21a6,6,0,1,1-6.06.09l0,3.21a3.6,3.6,0,0,0-.62,2A3.68,3.68,0,0,0,76.48,773.76ZM36,693.05l0,3.2a3.65,3.65,0,1,0,6.74,1.87,3.54,3.54,0,0,0-.68-2L42,693a6,6,0,1,1-6.06.1Z"/><path class="cls-5" d="M1256,1154.54l.08-.06-.08-.12v-99.49l.08,0-.08-.13v-39.24l.29-.14-.29-.59v-46.4a13.31,13.31,0,1,0-6.66,0v33.07l-12.63-25.25V813.35a13.3,13.3,0,1,0-6.67,0V977.72l19.3,38.58v28.39l-32.56-48.83V890.09a13.31,13.31,0,1,0-6.67,0V997.87l39.23,58.84v87.65l-32.56-48.84v-26a13.31,13.31,0,1,0-6.67,0v28l39.23,58.83v59.46l20.11,20.12v57.19h6.67v-60L1256,1213.07Zm-10-199a6.64,6.64,0,1,1,10,5.7v-3.53a4,4,0,0,0,.72-2.17,4.05,4.05,0,0,0-8.1,0,3.91,3.91,0,0,0,.72,2.17v3.53A6.6,6.6,0,0,1,1246,955.49Zm-19.28-155a6.63,6.63,0,1,1,10,5.71V802.7a3.94,3.94,0,0,0,.72-2.18,4,4,0,1,0-8.09,0,3.91,3.91,0,0,0,.7,2.16v3.54A6.6,6.6,0,0,1,1226.75,800.52Zm-19.94,76.74a6.64,6.64,0,1,1,10,5.7v-3.53a4,4,0,0,0,.72-2.17,4,4,0,0,0-8.1,0,4,4,0,0,0,.71,2.17V883A6.61,6.61,0,0,1,1206.81,877.26Zm0,179.4a6.64,6.64,0,1,1,10,5.7v-3.53a4,4,0,0,0,.72-2.17,4.05,4.05,0,0,0-8.1,0,4,4,0,0,0,.71,2.17v3.53A6.61,6.61,0,0,1,1206.81,1056.66Z"/><path class="cls-6" d="M173.24,1165.32l-39.86-39.87v-105.4a13.3,13.3,0,1,0-6.67,0v108.16l39.87,39.87v30.44l-25.12-25.12a13.06,13.06,0,0,0,1.89-6.7,13.3,13.3,0,1,0-13.3,13.3,13.18,13.18,0,0,0,6.7-1.88l29.83,29.82v17.18l-19.93,19.93v51.22h6.67v-48.46l19.92-19.93Zm-49.83-158.09a6.64,6.64,0,1,1,10,5.7v-3.54a4,4,0,0,0,.71-2.16,4,4,0,1,0-7.38,2.17v3.53A6.64,6.64,0,0,1,123.41,1007.23Zm6.64,166.1a6.74,6.74,0,1,1,6.39-4.95l-2.51-2.52a4,4,0,0,0-3.88-3.21,4,4,0,0,0-4.05,4,4,4,0,0,0,3.21,3.88l2.52,2.51A6.75,6.75,0,0,1,130.05,1173.33Z"/><path class="cls-7" d="M1186.68,932.27a13.31,13.31,0,1,0-6.66,0l0,156.24,19.93,19.93-.3,70-4.87-4.86a13.49,13.49,0,1,0-4.72,4.71l9.54,9.54-.21,50.15-32.63-32.62V1000.29a13.31,13.31,0,1,0-6.67,0v38.93l-33.2-33.2V864.28a13.31,13.31,0,1,0-6.67,0v35.41l-5.18-5.18a13.15,13.15,0,0,0,1.88-6.71,13.45,13.45,0,1,0-6.59,11.42l9.89,9.89v99.67l39.87,39.87v90.24l-33.2-33.2v-25.85a13.31,13.31,0,1,0-6.67,0v28.61l39.87,39.87v59.8l39.25,39.25-.22,49.05,6.67,0,.84-190.76-19.94-20Zm-3.34,241.23a6.74,6.74,0,1,1,6.39-5l-2.51-2.51a4,4,0,0,0-3.88-3.22,4,4,0,0,0-4,4,4,4,0,0,0,3.21,3.88l2.52,2.51A6.31,6.31,0,0,1,1183.34,1173.5ZM1103.6,894.43a6.74,6.74,0,1,1,6.39-4.95l-2.51-2.51a4,4,0,0,0-3.88-3.22,4,4,0,0,0-4,4,4,4,0,0,0,3.21,3.88l2.51,2.51A6.62,6.62,0,0,1,1103.6,894.43Zm13.3-43a6.64,6.64,0,1,1,10,5.7v-3.54a3.92,3.92,0,0,0,.71-2.16,4,4,0,1,0-8.09,0,4,4,0,0,0,.71,2.17v3.53A6.61,6.61,0,0,1,1116.9,851.45Zm0,215.56a6.64,6.64,0,1,1,10,5.71v-3.54a4,4,0,0,0,.71-2.17,4,4,0,0,0-8.09,0,4,4,0,0,0,.71,2.17v3.54A6.64,6.64,0,0,1,1116.9,1067Zm39.87-79.54a6.64,6.64,0,1,1,10,5.7v-3.53a4,4,0,1,0-6.67,0v3.53A6.61,6.61,0,0,1,1156.77,987.47Zm19.93-68a6.64,6.64,0,1,1,10,5.69V921.6a3.92,3.92,0,0,0,.71-2.15,4,4,0,0,0-8.1,0,3.87,3.87,0,0,0,.73,2.17v3.53A6.59,6.59,0,0,1,1176.7,919.45Z"/><path class="cls-8" d="M219.78,1188.54v-96.91l19.93-19.93V943.9a13.3,13.3,0,1,0-6.66,0v58.56L219.78,989.2V903.73a13.31,13.31,0,1,0-6.67,0V992l19.94,19.93v57l-19.94,19.93V1142l-33.2-33.2v-77l19.93-19.94V838.94a13.32,13.32,0,1,0-6.66-.06v170.25l-19.94,19.93v82.5l39.87,39.87v39.87l20,20,1,51.33-26.09-26.09a13.45,13.45,0,1,0-4.71,4.71L234,1272l.17-.17.52,27.77,6.66-.12-1.68-91Zm-10-297.63a6.64,6.64,0,1,1,10,5.7v-3.54a4,4,0,0,0,.71-2.16,4,4,0,1,0-8.09,0,4,4,0,0,0,.71,2.17v3.53A6.61,6.61,0,0,1,209.81,890.91Zm19.94,40.17a6.63,6.63,0,1,1,10,5.7v-3.54a3.88,3.88,0,0,0,.72-2.16,4.05,4.05,0,1,0-7.38,2.17v3.53A6.59,6.59,0,0,1,229.75,931.08ZM190,826.08a6.64,6.64,0,1,1,9.86,5.76V828.4a4,4,0,0,0,.82-2.32,4,4,0,1,0-8.09,0,3.93,3.93,0,0,0,.61,2v3.63A6.62,6.62,0,0,1,190,826.08Zm6.53,410.34a6.75,6.75,0,1,1,6.39-5l-2.51-2.51a4,4,0,0,0-3.88-3.22,4,4,0,0,0-4,4,4,4,0,0,0,3.22,3.88l2.51,2.52A6.68,6.68,0,0,1,196.51,1236.42Z"/><path class="cls-9" d="M120.23,1214a13.27,13.27,0,0,0-3.34,26.12v25.66l-11.79,11.8-1.48-151.35-19.93-19.92V949.59l19.94-19.94V861.36a13.3,13.3,0,1,0-6.67,0v65.53L83.69,940.16V834.82a3.89,3.89,0,0,0,.72-2.17,4,4,0,0,0-8.1,0,4,4,0,0,0,.72,2.17v274.23l20,20,.89,91.13L63.76,1186V1006.62L43.83,986.69V820.44a13.31,13.31,0,1,0-6.67,0v40l-5.26-5.25a13.12,13.12,0,0,0,2-6.84,13.3,13.3,0,1,0-13.3,13.29,13.12,13.12,0,0,0,6.57-1.8l10,10v119.6l19.93,19.94v179.4l40.85,40.85,0,0,.53,54.55-.55.55.56.57.12,11.79,6.67-.07-.1-10.11,18.37-18.38V1240.1a13.27,13.27,0,0,0-3.33-26.12ZM93.66,848.53a6.63,6.63,0,1,1,10,5.7V850.7a4,4,0,0,0,.72-2.17,4.06,4.06,0,0,0-8.11,0,3.94,3.94,0,0,0,.72,2.18v3.52A6.61,6.61,0,0,1,93.66,848.53ZM20.56,855a6.64,6.64,0,1,1,6.63-6.63,6.54,6.54,0,0,1-.29,1.83l-2.41-2.4a4,4,0,0,0-3.93-3.48,4,4,0,0,0-4,4.05,4,4,0,0,0,2.95,3.82l2.61,2.62A6.86,6.86,0,0,1,20.56,855Zm13.3-47.34a6.64,6.64,0,1,1,10,5.7v-3.54a4,4,0,0,0,.71-2.16,4,4,0,1,0-8.09,0,4,4,0,0,0,.71,2.16v3.54A6.64,6.64,0,0,1,33.86,807.62ZM123.56,1233v-3.53a3.94,3.94,0,0,0,.72-2.17,4.05,4.05,0,1,0-7.39,2.17V1233a6.64,6.64,0,1,1,6.67,0Zm-3.33-19a13.27,13.27,0,0,0-3.34,26.12v25.66l-11.79,11.8-1.48-151.35-19.93-19.92V949.59l19.94-19.94V861.36a13.3,13.3,0,1,0-6.67,0v65.53L83.69,940.16V834.82a3.89,3.89,0,0,0,.72-2.17,4,4,0,0,0-8.1,0,4,4,0,0,0,.72,2.17v274.23l20,20,.89,91.13L63.76,1186V1006.62L43.83,986.69V820.44a13.31,13.31,0,1,0-6.67,0v40l-5.26-5.25a13.12,13.12,0,0,0,2-6.84,13.3,13.3,0,1,0-13.3,13.29,13.12,13.12,0,0,0,6.57-1.8l10,10v119.6l19.93,19.94v179.4l40.85,40.85,0,0,.53,54.55-.55.55.56.57.12,11.79,6.67-.07-.1-10.11,18.37-18.38V1240.1a13.27,13.27,0,0,0-3.33-26.12ZM93.66,848.53a6.63,6.63,0,1,1,10,5.7V850.7a4,4,0,0,0,.72-2.17,4.06,4.06,0,0,0-8.11,0,3.94,3.94,0,0,0,.72,2.18v3.52A6.61,6.61,0,0,1,93.66,848.53ZM20.56,855a6.64,6.64,0,1,1,6.63-6.63,6.54,6.54,0,0,1-.29,1.83l-2.41-2.4a4,4,0,0,0-3.93-3.48,4,4,0,0,0-4,4.05,4,4,0,0,0,2.95,3.82l2.61,2.62A6.86,6.86,0,0,1,20.56,855Zm13.3-47.34a6.64,6.64,0,1,1,10,5.7v-3.54a4,4,0,0,0,.71-2.16,4,4,0,1,0-8.09,0,4,4,0,0,0,.71,2.16v3.54A6.64,6.64,0,0,1,33.86,807.62ZM123.56,1233v-3.53a3.94,3.94,0,0,0,.72-2.17,4.05,4.05,0,1,0-7.39,2.17V1233a6.64,6.64,0,1,1,6.67,0Zm-3.33-19a13.27,13.27,0,0,0-3.34,26.12v25.66l-11.79,11.8-1.48-151.35-19.93-19.92V949.59l19.94-19.94V861.36a13.3,13.3,0,1,0-6.67,0v65.53L83.69,940.16V834.82a3.89,3.89,0,0,0,.72-2.17,4,4,0,0,0-8.1,0,4,4,0,0,0,.72,2.17v274.23l20,20,.89,91.13L63.76,1186V1006.62L43.83,986.69V820.44a13.31,13.31,0,1,0-6.67,0v40l-5.26-5.25a13.12,13.12,0,0,0,2-6.84,13.3,13.3,0,1,0-13.3,13.29,13.12,13.12,0,0,0,6.57-1.8l10,10v119.6l19.93,19.94v179.4l40.85,40.85,0,0,.53,54.55-.55.55.56.57.12,11.79,6.67-.07-.1-10.11,18.37-18.38V1240.1a13.27,13.27,0,0,0-3.33-26.12ZM93.66,848.53a6.63,6.63,0,1,1,10,5.7V850.7a4,4,0,0,0,.72-2.17,4.06,4.06,0,0,0-8.11,0,3.94,3.94,0,0,0,.72,2.18v3.52A6.61,6.61,0,0,1,93.66,848.53ZM20.56,855a6.64,6.64,0,1,1,6.63-6.63,6.54,6.54,0,0,1-.29,1.83l-2.41-2.4a4,4,0,0,0-3.93-3.48,4,4,0,0,0-4,4.05,4,4,0,0,0,2.95,3.82l2.61,2.62A6.86,6.86,0,0,1,20.56,855Zm13.3-47.34a6.64,6.64,0,1,1,10,5.7v-3.54a4,4,0,0,0,.71-2.16,4,4,0,1,0-8.09,0,4,4,0,0,0,.71,2.16v3.54A6.64,6.64,0,0,1,33.86,807.62ZM123.56,1233v-3.53a3.94,3.94,0,0,0,.72-2.17,4.05,4.05,0,1,0-7.39,2.17V1233a6.64,6.64,0,1,1,6.67,0Zm-3.33-19a13.27,13.27,0,0,0-3.34,26.12v25.66l-11.79,11.8-1.48-151.35-19.93-19.92V949.59l19.94-19.94V861.36a13.3,13.3,0,1,0-6.67,0v65.53L83.69,940.16V834.82a3.89,3.89,0,0,0,.72-2.17,4,4,0,0,0-8.1,0,4,4,0,0,0,.72,2.17v274.23l20,20,.89,91.13L63.76,1186V1006.62L43.83,986.69V820.44a13.31,13.31,0,1,0-6.67,0v40l-5.26-5.25a13.12,13.12,0,0,0,2-6.84,13.3,13.3,0,1,0-13.3,13.29,13.12,13.12,0,0,0,6.57-1.8l10,10v119.6l19.93,19.94v179.4l40.85,40.85,0,0,.53,54.55-.55.55.56.57.12,11.79,6.67-.07-.1-10.11,18.37-18.38V1240.1a13.27,13.27,0,0,0-3.33-26.12ZM93.66,848.53a6.63,6.63,0,1,1,10,5.7V850.7a4,4,0,0,0,.72-2.17,4.06,4.06,0,0,0-8.11,0,3.94,3.94,0,0,0,.72,2.18v3.52A6.61,6.61,0,0,1,93.66,848.53ZM20.56,855a6.64,6.64,0,1,1,6.63-6.63,6.54,6.54,0,0,1-.29,1.83l-2.41-2.4a4,4,0,0,0-3.93-3.48,4,4,0,0,0-4,4.05,4,4,0,0,0,2.95,3.82l2.61,2.62A6.86,6.86,0,0,1,20.56,855Zm13.3-47.34a6.64,6.64,0,1,1,10,5.7v-3.54a4,4,0,0,0,.71-2.16,4,4,0,1,0-8.09,0,4,4,0,0,0,.71,2.16v3.54A6.64,6.64,0,0,1,33.86,807.62ZM123.56,1233v-3.53a3.94,3.94,0,0,0,.72-2.17,4.05,4.05,0,1,0-7.39,2.17V1233a6.64,6.64,0,1,1,6.67,0Zm-3.33-19a13.27,13.27,0,0,0-3.34,26.12v25.66l-11.79,11.8-1.48-151.35-19.93-19.92V949.59l19.94-19.94V861.36a13.3,13.3,0,1,0-6.67,0v65.53L83.69,940.16V834.82a3.89,3.89,0,0,0,.72-2.17,4,4,0,0,0-8.1,0,4,4,0,0,0,.72,2.17v274.23l20,20,.89,91.13L63.76,1186V1006.62L43.83,986.69V820.44a13.31,13.31,0,1,0-6.67,0v40l-5.26-5.25a13.12,13.12,0,0,0,2-6.84,13.3,13.3,0,1,0-13.3,13.29,13.12,13.12,0,0,0,6.57-1.8l10,10v119.6l19.93,19.94v179.4l40.85,40.85,0,0,.53,54.55-.55.55.56.57.12,11.79,6.67-.07-.1-10.11,18.37-18.38V1240.1a13.27,13.27,0,0,0-3.33-26.12ZM93.66,848.53a6.63,6.63,0,1,1,10,5.7V850.7a4,4,0,0,0,.72-2.17,4.06,4.06,0,0,0-8.11,0,3.94,3.94,0,0,0,.72,2.18v3.52A6.61,6.61,0,0,1,93.66,848.53ZM20.56,855a6.64,6.64,0,1,1,6.63-6.63,6.54,6.54,0,0,1-.29,1.83l-2.41-2.4a4,4,0,0,0-3.93-3.48,4,4,0,0,0-4,4.05,4,4,0,0,0,2.95,3.82l2.61,2.62A6.86,6.86,0,0,1,20.56,855Zm13.3-47.34a6.64,6.64,0,1,1,10,5.7v-3.54a4,4,0,0,0,.71-2.16,4,4,0,1,0-8.09,0,4,4,0,0,0,.71,2.16v3.54A6.64,6.64,0,0,1,33.86,807.62ZM123.56,1233v-3.53a3.94,3.94,0,0,0,.72-2.17,4.05,4.05,0,1,0-7.39,2.17V1233a6.64,6.64,0,1,1,6.67,0Zm-3.33-19a13.27,13.27,0,0,0-3.34,26.12v25.66l-11.79,11.8-1.48-151.35-19.93-19.92V949.59l19.94-19.94V861.36a13.3,13.3,0,1,0-6.67,0v65.53L83.69,940.16V834.82a3.89,3.89,0,0,0,.72-2.17,4,4,0,0,0-8.1,0,4,4,0,0,0,.72,2.17v274.23l20,20,.89,91.13L63.76,1186V1006.62L43.83,986.69V820.44a13.31,13.31,0,1,0-6.67,0v40l-5.26-5.25a13.12,13.12,0,0,0,2-6.84,13.3,13.3,0,1,0-13.3,13.29,13.12,13.12,0,0,0,6.57-1.8l10,10v119.6l19.93,19.94v179.4l40.85,40.85,0,0,.53,54.55-.55.55.56.57.12,11.79,6.67-.07-.1-10.11,18.37-18.38V1240.1a13.27,13.27,0,0,0-3.33-26.12ZM93.66,848.53a6.63,6.63,0,1,1,10,5.7V850.7a4,4,0,0,0,.72-2.17,4.06,4.06,0,0,0-8.11,0,3.94,3.94,0,0,0,.72,2.18v3.52A6.61,6.61,0,0,1,93.66,848.53ZM20.56,855a6.64,6.64,0,1,1,6.63-6.63,6.54,6.54,0,0,1-.29,1.83l-2.41-2.4a4,4,0,0,0-3.93-3.48,4,4,0,0,0-4,4.05,4,4,0,0,0,2.95,3.82l2.61,2.62A6.86,6.86,0,0,1,20.56,855Zm13.3-47.34a6.64,6.64,0,1,1,10,5.7v-3.54a4,4,0,0,0,.71-2.16,4,4,0,1,0-8.09,0,4,4,0,0,0,.71,2.16v3.54A6.64,6.64,0,0,1,33.86,807.62ZM123.56,1233v-3.53a3.94,3.94,0,0,0,.72-2.17,4.05,4.05,0,1,0-7.39,2.17V1233a6.64,6.64,0,1,1,6.67,0Zm-3.33-19a13.27,13.27,0,0,0-3.34,26.12v25.66l-11.79,11.8-1.48-151.35-19.93-19.92V949.59l19.94-19.94V861.36a13.3,13.3,0,1,0-6.67,0v65.53L83.69,940.16V834.82a3.89,3.89,0,0,0,.72-2.17,4,4,0,0,0-8.1,0,4,4,0,0,0,.72,2.17v274.23l20,20,.89,91.13L63.76,1186V1006.62L43.83,986.69V820.44a13.31,13.31,0,1,0-6.67,0v40l-5.26-5.25a13.12,13.12,0,0,0,2-6.84,13.3,13.3,0,1,0-13.3,13.29,13.12,13.12,0,0,0,6.57-1.8l10,10v119.6l19.93,19.94v179.4l40.85,40.85,0,0,.53,54.55-.55.55.56.57.12,11.79,6.67-.07-.1-10.11,18.37-18.38V1240.1a13.27,13.27,0,0,0-3.33-26.12ZM93.66,848.53a6.63,6.63,0,1,1,10,5.7V850.7a4,4,0,0,0,.72-2.17,4.06,4.06,0,0,0-8.11,0,3.94,3.94,0,0,0,.72,2.18v3.52A6.61,6.61,0,0,1,93.66,848.53ZM20.56,855a6.64,6.64,0,1,1,6.63-6.63,6.54,6.54,0,0,1-.29,1.83l-2.41-2.4a4,4,0,0,0-3.93-3.48,4,4,0,0,0-4,4.05,4,4,0,0,0,2.95,3.82l2.61,2.62A6.86,6.86,0,0,1,20.56,855Zm13.3-47.34a6.64,6.64,0,1,1,10,5.7v-3.54a4,4,0,0,0,.71-2.16,4,4,0,1,0-8.09,0,4,4,0,0,0,.71,2.16v3.54A6.64,6.64,0,0,1,33.86,807.62ZM123.56,1233v-3.53a3.94,3.94,0,0,0,.72-2.17,4.05,4.05,0,1,0-7.39,2.17V1233a6.64,6.64,0,1,1,6.67,0Zm-3.33-19a13.27,13.27,0,0,0-3.34,26.12v25.66l-11.79,11.8-1.48-151.35-19.93-19.92V949.59l19.94-19.94V861.36a13.3,13.3,0,1,0-6.67,0v65.53L83.69,940.16V834.82a3.89,3.89,0,0,0,.72-2.17,4,4,0,0,0-8.1,0,4,4,0,0,0,.72,2.17v274.23l20,20,.89,91.13L63.76,1186V1006.62L43.83,986.69V820.44a13.31,13.31,0,1,0-6.67,0v40l-5.26-5.25a13.12,13.12,0,0,0,2-6.84,13.3,13.3,0,1,0-13.3,13.29,13.12,13.12,0,0,0,6.57-1.8l10,10v119.6l19.93,19.94v179.4l40.85,40.85,0,0,.53,54.55-.55.55.56.57.12,11.79,6.67-.07-.1-10.11,18.37-18.38V1240.1a13.27,13.27,0,0,0-3.33-26.12ZM93.66,848.53a6.63,6.63,0,1,1,10,5.7V850.7a4,4,0,0,0,.72-2.17,4.06,4.06,0,0,0-8.11,0,3.94,3.94,0,0,0,.72,2.18v3.52A6.61,6.61,0,0,1,93.66,848.53ZM20.56,855a6.64,6.64,0,1,1,6.63-6.63,6.54,6.54,0,0,1-.29,1.83l-2.41-2.4a4,4,0,0,0-3.93-3.48,4,4,0,0,0-4,4.05,4,4,0,0,0,2.95,3.82l2.61,2.62A6.86,6.86,0,0,1,20.56,855Zm13.3-47.34a6.64,6.64,0,1,1,10,5.7v-3.54a4,4,0,0,0,.71-2.16,4,4,0,1,0-8.09,0,4,4,0,0,0,.71,2.16v3.54A6.64,6.64,0,0,1,33.86,807.62ZM123.56,1233v-3.53a3.94,3.94,0,0,0,.72-2.17,4.05,4.05,0,1,0-7.39,2.17V1233a6.64,6.64,0,1,1,6.67,0Z"/></svg>